<svg xmlns="http://www.w3.org/2000/svg" viewBox="0 0 50 0.74"><defs><style>.cls-1{fill:none;}.cls-2{fill:#85b7d5;}</style></defs><g id="レイヤー_2" data-name="レイヤー 2"><g id="モバMAIN"><path class="cls-1" d="M.49-21.42h0s0,0,0,0,0,0,.06-.05h0Z" transform="translate(-0.07 21.8)"/><path class="cls-1" d="M.4-21.41l0,0h0l0,0Z" transform="translate(-0.07 21.8)"/><path class="cls-1" d="M1-21.44H1v0s0,0,0,.05v-.05S1-21.45,1-21.44Z" transform="translate(-0.07 21.8)"/><path class="cls-1" d="M.26-21.63Z" transform="translate(-0.07 21.8)"/><path class="cls-1" d="M.93-21.42s0,0,0,0l0,0s0,0,0,0S1-21.42.93-21.42Z" transform="translate(-0.07 21.8)"/><polygon class="cls-2" points="0.2 0.17 0.21 0.16 0.2 0.17 0.2 0.17"/><path class="cls-2" d="M1.05-21.38v.12l0,0a.29.29,0,0,1-.16,0l0,0s0,0,0,0,0,0,0,0v0s0,0,0,0v0c-.06,0,0,.1-.09.1h0s0,0,0,0h0l-.25,0H.31s0,0,0,0v0H.33v0H.24s0,0,0,0,.08-.16-.07-.08-.05,0-.08,0,0,0,0,0,0,0,0,0h0v0h0s0-.05,0-.07a.33.33,0,0,0,0-.14l0,0a.06.06,0,0,0,.07,0h0v0h0l0,0h0v0h0a.05.05,0,0,1,0,0h0c0,.05.09,0,.13,0h0s0-.05,0,0H.6l0,0H.65s.08,0,.12,0H.83c.05,0,0,0,0,0H.87v0a0,0,0,0,1,0,0h0l0,0s0,0,.06,0H1v0a.08.08,0,0,1,0,0s0,0,0,0,0,0,0,0,0,0,0,0v.16s0,0,0,0H1v0S1-21.39,1.05-21.38Zm-.61,0h0l0,0h0Zm.17-.05h0l-.11,0h0s0,0,0,0S.59-21.43.61-21.45Zm.36,0s0,0,0,0,0,0,0,0l0,0S1-21.4,1-21.41Z" transform="translate(-0.07 21.8)"/><path class="cls-2" d="M1-21.24s-.05,0-.07,0v0h0s0,0,0,0H1v0s0,0,0,0h0v-.06Z" transform="translate(-0.07 21.8)"/><path class="cls-2" d="M.92-21.22c-.05,0-.09,0-.05.06s0-.05.06-.05Z" transform="translate(-0.07 21.8)"/><polygon class="cls-2" points="0.79 0.64 0.79 0.64 0.79 0.64 0.79 0.64"/><path class="cls-2" d="M.87-21.13v0l0,0Z" transform="translate(-0.07 21.8)"/><path class="cls-2" d="M.78-21.22h0l0,0h0S.8-21.21.78-21.22Z" transform="translate(-0.07 21.8)"/><path class="cls-2" d="M1.05-21.64h0v0Z" transform="translate(-0.07 21.8)"/><path class="cls-1" d="M2.71-21.33l0,0s0,0,0,0H2.5a0,0,0,0,0,0,0h0s-.05,0,0,.05h0l-.11,0h0v0s-.05,0,0-.06h0s0,0,0,0h0v0l0,0h0v0s0,0-.06,0v-.08l0,0c.07,0,.1,0,.15,0h0v0h0s0,0,0,0,0,0,0,0h0l0,0s.06,0,.08,0,.07,0,.11,0,.05,0,.08,0,0,0,0,0l0,0,0,0s0,0,0,0-.05,0-.07,0S2.71-21.35,2.71-21.33Zm-.12-.09-.06,0v0s0,0,0,0Zm.1,0,.05,0s0,0,0,0,0,0,0,0S2.72-21.44,2.69-21.39Z" transform="translate(-0.07 21.8)"/><path class="cls-1" d="M2-21.28s0,0,0,0a0,0,0,0,0,0,0H2l0-.08S1.91-21.3,2-21.28Z" transform="translate(-0.07 21.8)"/><path class="cls-1" d="M2.16-21.27s0-.05,0-.08,0,0,0,0l0,0s0,0,0,0,0,0,0,0,0,0,0,0l.07,0v0H2.16Z" transform="translate(-0.07 21.8)"/><path class="cls-1" d="M2.45-21.23v.08l.06-.07s0,0,0,0S2.49-21.17,2.45-21.23Z" transform="translate(-0.07 21.8)"/><path class="cls-1" d="M2.14-21.4h0s.08,0,0,0h0l0,0s0-.05-.05,0,0,0-.06,0,0,0,0,0-.13,0-.2,0,0,0,0,0v0s0,0,0,0h0s-.05,0,0,0,0,0,0,0h.07l0,0h0l.05,0c0-.05,0,0,0-.07s.05-.05.1-.06H2v0H2c-.05,0-.06.05-.11,0h0s0,0,0,0,0-.05,0,0,.05,0,.07,0a0,0,0,0,0,0,0s.06,0,0,0h0v0S2.14-21.39,2.14-21.4Z" transform="translate(-0.07 21.8)"/><path class="cls-1" d="M2.36-21.28l0,0,0,0c0-.05,0,0,0,0s0,0,0,0,.05,0,0,0,0,0,0,0h0s0,0,0,0,0,0,0,0a.05.05,0,0,0,.07,0S2.36-21.23,2.36-21.28Z" transform="translate(-0.07 21.8)"/><path class="cls-1" d="M2.86-21.26h0l0,0a.1.1,0,0,1,0,0s-.07,0-.06,0h0s0,0,0,0,0,0,0,0h0s0,0,0,0,.05,0,.05,0,.08-.07.14-.08S2.9-21.21,2.86-21.26Z" transform="translate(-0.07 21.8)"/><path class="cls-1" d="M3.55-21.33c.05,0,.1,0,.16,0l0,0v0h0s-.07,0-.1,0,0,0,0,0,0,0,0,0l-.06,0h0v0l0,0h0s0,0,0,0l0,0,0,0h0s0,0,0,0,0-.05,0-.08,0,0,0,0,0,.11,0,.16Z" transform="translate(-0.07 21.8)"/><path class="cls-1" d="M3.63-21.22s0-.05-.07,0,0,0,0,0l0,0s0,0,0,0,0,.07,0,.06h0s.07,0,.1,0,0,.05.08,0h0c0,.05,0,0-.06,0s0,0,0,0h.06l0,0S3.68-21.21,3.63-21.22Z" transform="translate(-0.07 21.8)"/><path class="cls-1" d="M3.85-21.23a.09.09,0,0,1-.1,0s0,0-.07,0v0h.05a.07.07,0,0,1,.07.05l0,0h0s0,0,0,0,.07,0,.07,0,0,0,0,0Z" transform="translate(-0.07 21.8)"/><path class="cls-1" d="M2-21.2v0l0,0h0c0-.06,0,0,0,0H2A0,0,0,0,0,2-21.2Z" transform="translate(-0.07 21.8)"/><path class="cls-1" d="M3.24-21.33h0c0-.07-.06-.08-.12-.09h0l.09.07s0,.05,0,.08l0,0s0,0-.06,0l.07,0h.06s.06,0,0,.05,0,0,0,0,0,0,0,0,0,0,0,0,0,0,0,0,0-.08,0-.09,0,0,0,0l0,0S3.22-21.38,3.24-21.33Z" transform="translate(-0.07 21.8)"/><path class="cls-1" d="M3-21.44s0,0,0,0,0,0,0,0,0,0,0,0A.07.07,0,0,0,3-21.44Z" transform="translate(-0.07 21.8)"/><path class="cls-1" d="M3.25-21.4s0,0,0,0,0,0,.07,0v0h0s0-.06,0-.09l0,0S3.24-21.46,3.25-21.4Z" transform="translate(-0.07 21.8)"/><path class="cls-1" d="M1.62-21.36l0,0a0,0,0,0,0,0,0l0,0Z" transform="translate(-0.07 21.8)"/><path class="cls-1" d="M9.36-21.29c0-.06.08,0,.11,0v0h0v0s0-.07,0-.08H9.42c-.05,0-.12,0-.12.08Z" transform="translate(-0.07 21.8)"/><path class="cls-1" d="M1.73-21.23h0c-.05,0-.09-.07-.15-.05h0s0,0,0,0l.16,0s0,0,0,0h0v0Z" transform="translate(-0.07 21.8)"/><path class="cls-1" d="M2.68-21.66h.08s0-.06-.06-.06S2.73-21.67,2.68-21.66Z" transform="translate(-0.07 21.8)"/><path class="cls-1" d="M1.07-21.62s0,0,0,0h0v0S1.06-21.63,1.07-21.62Z" transform="translate(-0.07 21.8)"/><path class="cls-1" d="M1.11-21.4c.06,0,.11,0,.17,0h0l.05,0s0,0,0,0,0,0,0,0l0,0c-.05,0-.1,0-.14,0h0s0,0,0,0v0h0c0,.06,0,0,0,0v.05S1.09-21.39,1.11-21.4Z" transform="translate(-0.07 21.8)"/><path class="cls-1" d="M7.24-21.24v0h0s0,0,0,0v-.06h0l0,0s0,0,0,0h0l0,0s0,0,0,0,0,0,0,0,0,0,0,0-.06,0,0,.06a.08.08,0,0,0,0,0l0,0h0l0,0h0s0,0,0,0,0,.07,0,.08l0-.05Z" transform="translate(-0.07 21.8)"/><path class="cls-1" d="M1.41-21.4v0h.09l0,0Z" transform="translate(-0.07 21.8)"/><path class="cls-1" d="M1.5-21.24h0a.05.05,0,0,0,0,0S1.51-21.27,1.5-21.24Z" transform="translate(-0.07 21.8)"/><path class="cls-1" d="M2-21.51Z" transform="translate(-0.07 21.8)"/><path class="cls-1" d="M1.4-21.35l0,0,0,0,0,0h0s0,0,0,0Z" transform="translate(-0.07 21.8)"/><path class="cls-1" d="M1.41-21.43l0,0s-.09,0-.12,0l0,0S1.39-21.49,1.41-21.43Z" transform="translate(-0.07 21.8)"/><path class="cls-1" d="M2.1-21.48h0a.08.08,0,0,0-.09,0S2.08-21.5,2.1-21.48Z" transform="translate(-0.07 21.8)"/><path class="cls-1" d="M4.21-21.39H4.14v0H4.2v0h0s-.08,0-.11,0l-.05,0H4l0,0H4s0,0,0,0,0,0,0,0-.06,0-.07,0l-.06,0h0c.07,0,.07,0,.09,0a.19.19,0,0,1,.18,0S4.17-21.39,4.21-21.39Z" transform="translate(-0.07 21.8)"/><path class="cls-1" d="M3-21.23H3s0,0,0,0,0,0,0,0H3v0a.07.07,0,0,0,0-.05S3-21.22,3-21.23Z" transform="translate(-0.07 21.8)"/><path class="cls-1" d="M8.41-21.55l-.05,0,0,0,.06,0Z" transform="translate(-0.07 21.8)"/><path class="cls-1" d="M8.15-21.74l0,0s0,0,0,0,0,0,0,0,0,0,0,0a0,0,0,0,0,0-.05Z" transform="translate(-0.07 21.8)"/><path class="cls-1" d="M8.43-21.46s0,0,0,0l.08.06,0,0Z" transform="translate(-0.07 21.8)"/><path class="cls-1" d="M8.91-21.37s0,0,0,0,0,.05,0,.07,0,0,0,0l0,0S8.93-21.36,8.91-21.37Z" transform="translate(-0.07 21.8)"/><path class="cls-1" d="M8.87-21.44Z" transform="translate(-0.07 21.8)"/><path class="cls-1" d="M7.58-21.73c-.06,0,0,0,0,.05s0,0,0,0h0s0,0,0,0S7.54-21.7,7.58-21.73Z" transform="translate(-0.07 21.8)"/><path class="cls-1" d="M4.2-21.38l0,0s0,0,0-.06h0Z" transform="translate(-0.07 21.8)"/><path class="cls-1" d="M7.26-21.41h0l.1,0v0S7.3-21.45,7.26-21.41Z" transform="translate(-0.07 21.8)"/><path class="cls-1" d="M7.36-21.64l-.06-.05h0s0,0,0-.05h0c0,.05,0,.05,0,.08h.12Z" transform="translate(-0.07 21.8)"/><path class="cls-1" d="M7.39-21.67l0,0-.08,0s.05,0,0,0Z" transform="translate(-0.07 21.8)"/><path class="cls-1" d="M7.48-21.28h0l-.1,0h0C7.4-21.21,7.45-21.32,7.48-21.28Z" transform="translate(-0.07 21.8)"/><path class="cls-1" d="M10.07-21.47h0L10-21.53h0C10-21.47,10-21.48,10.07-21.47Z" transform="translate(-0.07 21.8)"/><path class="cls-1" d="M10-21.29h.13L10-21.34Z" transform="translate(-0.07 21.8)"/><path class="cls-1" d="M10.56-21.49l0,0s0,.06.07,0l0,0Z" transform="translate(-0.07 21.8)"/><path class="cls-1" d="M10.05-21.38l0,0,0,0,0,.05Z" transform="translate(-0.07 21.8)"/><path class="cls-1" d="M10.85-21.35v0h0l0,0s0,0,0-.06S10.87-21.32,10.85-21.35Z" transform="translate(-0.07 21.8)"/><path class="cls-1" d="M9-21.45h-.1s0,0,0,0H9Z" transform="translate(-0.07 21.8)"/><path class="cls-1" d="M12.34-21.29l.06,0s0,0,0,0l-.07,0Z" transform="translate(-0.07 21.8)"/><path class="cls-1" d="M9-21.63l0,0s0-.05,0-.05H9Z" transform="translate(-0.07 21.8)"/><path class="cls-1" d="M7.11-21.45l0,0s0,.06,0,.07,0,0,.14,0C7.08-21.39,7.08-21.41,7.11-21.45Z" transform="translate(-0.07 21.8)"/><path class="cls-1" d="M9.18-21.61a.07.07,0,0,0,0,.05s0,0,0,0,0-.05,0-.07Z" transform="translate(-0.07 21.8)"/><path class="cls-1" d="M9.89-21.48a0,0,0,0,0,.07,0h0s0,0,0,0Z" transform="translate(-0.07 21.8)"/><path class="cls-1" d="M9.4-21.5l-.06.06h0s.05,0,.06-.05S9.42-21.5,9.4-21.5Z" transform="translate(-0.07 21.8)"/><path class="cls-1" d="M7.46-21.25h0l0,.06a.14.14,0,0,0,0-.06Z" transform="translate(-0.07 21.8)"/><path class="cls-1" d="M5-21.39l0,0-.1-.05,0,0v0h0l0,0,0,0c0,.08,0,0,0,0a0,0,0,0,1,0,0s0,0,0,0,.06,0,.1,0,0,0,0,0,.07,0,.1,0v0a0,0,0,0,0,0,0H5s0,0,0,0h0s0,0,0,0h0l.08,0v0H5Z" transform="translate(-0.07 21.8)"/><path class="cls-1" d="M5.56-21.36a.21.21,0,0,0,0,.07s0,0,0,0l0-.05h0l0,0C5.61-21.44,5.59-21.33,5.56-21.36Z" transform="translate(-0.07 21.8)"/><path class="cls-1" d="M5.28-21.64l0,0,0,0,.08-.05Z" transform="translate(-0.07 21.8)"/><path class="cls-1" d="M5.09-21.37s-.08,0,0,0,0,0,0,0H5a.06.06,0,0,0,0,0s0,0,.07,0S5.09-21.36,5.09-21.37Z" transform="translate(-0.07 21.8)"/><path class="cls-1" d="M5.33-21.36h.09s0,0,0,0v0h0v0l.05-.08-.12-.06Z" transform="translate(-0.07 21.8)"/><path class="cls-1" d="M6.36-21.47s0,0,0,0l-.06,0,0,.05.07,0,0,0,0,0h0l0,0h0s0,0,0,0S6.37-21.47,6.36-21.47Z" transform="translate(-0.07 21.8)"/><path class="cls-1" d="M5.68-21.4l.09,0s0,0,0,0H5.71Z" transform="translate(-0.07 21.8)"/><path class="cls-1" d="M6.36-21.64s.07,0,.07,0-.06,0-.07,0,0,0,0,0S6.36-21.64,6.36-21.64Z" transform="translate(-0.07 21.8)"/><path class="cls-1" d="M6.07-21.41s0,0,0,0,0,0,0,0h0l.05,0s0,0,0,.06h0s0,0,0,0S6.12-21.41,6.07-21.41Z" transform="translate(-0.07 21.8)"/><path class="cls-1" d="M6.65-21.35s0,0,0,0,0,0,0,0,0,0,0,0S6.66-21.37,6.65-21.35Z" transform="translate(-0.07 21.8)"/><path class="cls-1" d="M6.44-21.49s0,0-.05,0a.09.09,0,0,0,.11-.05h0C6.47-21.55,6.47-21.49,6.44-21.49Z" transform="translate(-0.07 21.8)"/><path class="cls-1" d="M6.6-21.28s.06,0,.07,0h0l-.09-.06S6.6-21.29,6.6-21.28Z" transform="translate(-0.07 21.8)"/><path class="cls-1" d="M4.45-21.38h0s.06,0,.08,0l0,0S4.46-21.4,4.45-21.38Z" transform="translate(-0.07 21.8)"/><path class="cls-1" d="M4.33-21.7h0l-.06,0s0,0,0,0h0s0,0,0,0,0,0,.05,0,0,0,0-.05l-.06,0Z" transform="translate(-0.07 21.8)"/><path class="cls-1" d="M6.82-21.34c0-.05-.09,0-.12,0h0l0,0h0s0,0,0,0,0,0,.06.05v0Z" transform="translate(-0.07 21.8)"/><polygon class="cls-2" points="7.09 0.58 7.09 0.59 7.09 0.59 7.09 0.59 7.09 0.58"/><path class="cls-2" d="M3.29-21.37Z" transform="translate(-0.07 21.8)"/><path class="cls-2" d="M9.3-21.29Z" transform="translate(-0.07 21.8)"/><path class="cls-2" d="M13-21.3v.07s0,0-.05-.05h0v0l0,.08s0,0,0,0,0,0,0,0-.09,0-.12,0,0-.07-.07,0v0s0,0,0,0-.05,0-.07,0h0v0c0,.05-.07,0-.11,0a.18.18,0,0,1-.09,0h0s0,0,0,0,0,0,0,.05-.07,0-.1,0a.11.11,0,0,0-.15,0s0,0,0,0-.07,0,0-.08v0h0c-.06,0,0,0,0,0s-.1,0-.09.07h0a0,0,0,0,0,0,0h-.08s0,.07,0,0H11.6a0,0,0,0,1,0,0c0-.06-.06,0-.08-.08s0,0,0,0l0,.06s0,0,0,0-.09,0-.1,0,0,0,0,0l-.08,0h0c0,.12-.07,0-.11,0a.17.17,0,0,0-.1,0s0,0-.07,0h0s0,0,0,0,0,0,0,0-.05,0,0,0l-.11,0-.13.05h0s0,0,0,0a0,0,0,0,0,0,0,0,0,0,0,0,0,0s0-.05-.06,0,0,0,0,0h0s0,0,0,0,0,0,0,0-.09,0-.11,0-.1,0-.14,0h0s0,0,0,0,.05,0,0,0h0s0,0-.07,0-.07-.06-.13,0a.08.08,0,0,1-.08,0s-.05,0-.07,0l-.07,0,0,0s0,0-.05,0-.1,0-.15,0a.57.57,0,0,1-.19,0c-.05,0,0,0,0,0l-.15,0h0v0h0s0,0,0,0,0,0,0,0h.06c0-.06.08,0,.11,0v0h0v0s0-.07,0-.08H9.42c-.05,0-.12,0-.12.08h0c-.05,0,0,0,0,.05s0,0-.06,0h0c0,.07-.1,0-.12.05s0,0,0,0,0,0-.08,0-.06,0-.07.07h0l0-.05s0,0,0,0h0a.13.13,0,0,0,0-.06s0,0,0,0v0s0,0,0,.06,0,0,0,0-.06,0-.06,0a.06.06,0,0,1,0,0h0s0,.06-.06,0a0,0,0,0,0,0,0h0l-.07-.05h0l0,0a0,0,0,0,0,0,0s0,0,0,0-.05,0-.09,0h0s0,0,0,0H8.4a0,0,0,0,0,0,0s-.07,0-.12,0H8.16v0h0s-.05,0,0-.05h0v0s0,0,0,.05v0l0,0h0v0s-.07,0-.11,0,0,0,0,0,0,0,0,0,0,0,0,0h0s0,0,0,0a.2.2,0,0,1,0-.07.06.06,0,0,1,0,0s0,0,0,0,0,0,0,0h0s0,0,0,0l0,0s0,0,0,0l0,0s0,0,0,0l0,0v0h0s0,0,0,0l-.07,0h0s0,0,0,0h0l0,0s0,0,0,0-.11,0-.13.07h0s0,0,0,0,0,0,0-.05h0c0,.05-.11,0-.1.06a.1.1,0,0,1,0,0H7.21l0,0s0,0,0-.05,0,0,0,0v.06h0s0,0,0,0,0,0,0,0h0l0-.05.06,0v0h0s0,0,0,0v-.06h0l0,0s0,0,0,0h0l0,0s0,0,0,0,0,0,0,0,0,0,0,0-.06,0,0,.06a.08.08,0,0,0,0,0l0,0h0l0,0h0s0,0,0,0,0,.07,0,.08h0s0,0,0,0,0,0-.06.05h0s0,0-.06,0-.12,0-.11-.07c0,.08,0,0,0,0h0v0s0,0,0,0,0,0-.06,0H6.66s0,0,0,.06-.05-.05-.09,0,0,0,0,0a0,0,0,0,0,0,0s0,0-.06,0-.08,0-.12,0,0,0,0,0v0s-.06,0-.07,0-.06,0-.08,0h0s0-.07-.06-.06,0-.06,0,0,0,.06,0,.09h0s0,0-.06,0v0H6s-.07,0-.1,0-.08,0-.11,0h0c-.08,0-.16,0-.24,0h-.1s-.05,0-.07.05,0,0,0,0-.05,0,0,0l0,0h0v0l0,0s0,0,0,0,0,0,0,0,0,0,0,0H5c0,.07,0,0-.06,0h0c0-.08-.06,0-.09-.05l0,0h0l-.05,0v0l0-.06v0h0s0,0-.06,0H4.6l-.16,0h0l0,0h0a.06.06,0,0,1-.08,0s0,0,0,0,0,0,.06,0h0s0,0,0,0,0,0-.06,0-.05,0,0,0h0c-.07-.09-.17,0-.25-.05s-.08,0-.12,0,0,0,0,0,0,0,0,0,0,.05,0,.09,0,0,0,0h0v0l-.05,0s0,0,0,0h0s0,0,0,0h0c0-.07-.05,0-.08,0s-.08,0-.12,0-.09,0-.14,0l-.06,0s0,0-.06,0,0,0,0,0,0,0,0,0,0,0,0,0l0,0,0,0s0,0,0,0-.1,0-.13,0-.07,0-.1,0-.06,0-.1,0-.09,0-.14,0h0s0-.05,0,0h0s0,0,0,0v0l-.08,0s0,0-.05,0H2.15a.2.2,0,0,0-.11,0,.48.48,0,0,1-.24,0,.59.59,0,0,1-.14,0s0,0-.08,0-.1,0-.15,0,0,0-.06,0-.05,0-.07,0H1.23a.71.71,0,0,1-.09-.07h0c0,.08,0,0-.07,0v-.12s0,0,.05,0,.11,0,.17,0h0l.05,0s0,0,0,0,0,0,0,0l0,0c-.05,0-.1,0-.14,0h0s0,0,0,0v0h0c0,.06,0,0,0,0v-.14s0,0,0,0,0,0,0,0h0v0h0s.07,0,.05,0,0,0,0,0h0s0,0,0,0v0s0,0,0,0,0,0,.05,0l0,0s.06,0,.07,0h0s0-.06,0,0l0,0c.06-.05,0,0,.05,0s0,0,0,0h0v0h0s0,0,0,0a.47.47,0,0,0,.17,0s0,0,0,0h0s-.06,0-.05,0,.06,0,.07,0,.09.06.11,0h0s0,0-.06,0h.1s0,0,0,0,0,0,0,0H2a.08.08,0,0,0,0,0H2l0,0c.05,0,.08,0,.11,0a.32.32,0,0,1,.3.06c0,.05,0,0,0,0s.06,0,.06,0,0,0,.06,0,.06,0,.1,0h0c0,.07.06-.05.08,0s.08.07.09,0c0,.06.06,0,.07.06h0a0,0,0,0,0,0,0s0,0,0,0v0H3s0,0,0,.06h.08v0s0,0,0,0,0-.06.08,0h0s0,0,0,0l0,0,0,0h0s.07,0,.11,0h0l.08-.07h0s.05,0,0,0l0,0v0h.11l0,0s0,0,0,0h0v0s0,0,.06,0,0,0,0-.07,0,0,0,0,.07,0,.08,0,0,0,.07,0h0l0,0v0h0l0,0h0l0,0v.05h.07s0,0,0,0h0s0,0,0,0H4a0,0,0,0,0,0,0s0-.05,0-.07l.05,0,0,0H4v-.06H4l.13.07c0-.1,0,0,.07,0s0,0,0,0,.09,0,.14,0a.34.34,0,0,1,.14,0l0,0h0v0l.07,0,0,0s0,0,.06,0h0l0,0v0l0,0,0,0,0,0s0,0,0,0v0s0,0,0,0,0,0,0,0,0,0,0,0h0l.05,0,0,0h.07c-.05,0,0-.08,0-.05s0,0,0,0h0s-.08,0,0-.08,0,0,0,.05h0v0a.05.05,0,0,1,0,0H5v-.05H5s.07,0,.09,0h.06l0,0H5.13s0,0,0,.07,0,0,0,0a0,0,0,0,1,0,0s0,0,.07,0,.06,0,0,0h0v0h0s.07,0,.09,0v0h0s0,0,0,0l0,0h0l.05,0h0s0,0,0,0l0,0h0s0,0,0-.05,0-.07.08-.08,0,0,0,0h0c0-.06.09,0,.1-.05h0s.05,0,0,0h.22a.57.57,0,0,0,.13,0,.48.48,0,0,1,.31,0s.09,0,.14,0,.08,0,.1,0,.09,0,.13,0,.1,0,.14,0a.13.13,0,0,1,.12.07H7v0H7v0s0,0,0,0,0,0,0,0h.14s0,0,0,0,.1,0,.15,0,.06,0,.08,0,0,0,0,0,0,0,0,0,0,0,0,0a.19.19,0,0,1,.16,0l0,0v-.05s0,0,0,0,0,0,0,0,0,0,0,0h0v0h.07l0,0s0,0,0,0,0-.05,0,0,0,0,0,0,0,0,0,0,0,0,.07,0,0,0,0,0,0,0,0,0,0-.06.09,0,.06,0,.1,0,.11,0,.13,0h0c0-.05,0,0,.05,0s.05,0,.09,0h.24s.08,0,.12,0h0l.1,0s0,0,0,0a2.26,2.26,0,0,0,.26,0h.24s0,0,0,0,.1.05.14,0l.06,0s.05,0,.08,0a.54.54,0,0,1,.22,0h.14a.09.09,0,0,0,0,.05s0,0,0-.06h0l0,0a0,0,0,0,0,0,0,.14.14,0,0,1,.09,0,.66.66,0,0,1,.14,0,2.17,2.17,0,0,0,.26,0,.81.81,0,0,1,.22,0s.08,0,.12,0,.05,0,.07,0,.06,0,.08,0,.14,0,.21,0,0,0,.08,0,0,0,0,0a.31.31,0,0,1,.23,0s0,0,.07,0l0,0,.13,0h.19a1.7,1.7,0,0,0,.39,0c0,.06.05,0,.05,0h0l0,0h0l.09,0h0l.13,0h0a0,0,0,0,0,0,0ZM2.68-21.66h.08s0-.06-.06-.06S2.73-21.67,2.68-21.66ZM2-21.5H2s.05,0,.07,0h0a.08.08,0,0,0-.09,0H2Zm-.46.14,0,0,0,0,0,0A0,0,0,0,0,1.55-21.36Zm-.14-.07,0,0s-.09,0-.12,0l0,0S1.39-21.49,1.41-21.43Zm0,.1v0l0,0,0,0,0,0h0S1.43-21.3,1.41-21.33Zm.08,0,0,0H1.41v0Zm.29.15H1.72c-.05,0-.09-.07-.15-.05h0s-.06,0-.07,0h0a.05.05,0,0,0,0,0h0s0,0,0,0l.16,0s0,0,0,0h0Zm.33,0H2a0,0,0,0,0,0,0v0l0,0h0c0-.06,0,0,0,0Zm0-.17v0s0,0,0,0h0s.08,0,0,0h0l0,0s0-.05-.05,0,0,0-.06,0,0,0,0,0-.13,0-.2,0,0,0,0,0v0s0,0,0,0h0s-.05,0,0,0,0,0,0,0h.07l0,0h0l.05,0c0-.05,0,0,0-.07s.05-.05.1-.06H2v0H2c-.05,0-.06.05-.11,0h0s0,0,0,0H2s0,0,0,0,0,0,0,0a0,0,0,0,0,0,0H2l0-.08H2s0-.05,0,0,.05,0,.07,0a0,0,0,0,0,0,0s.06,0,0,0Zm.12.11H2.16s0-.05,0-.08,0,0,0,0l0,0s0,0,0,0,0,0,0,0,0,0,0,0l.07,0Zm.12,0,0,0,0,0c0-.05,0,0,0,0s0,0,0,0,.05,0,0,0,0,0,0,0h0s0,0,0,0,0,0,0,0a.05.05,0,0,0,.07,0S2.36-21.23,2.36-21.28Zm.15,0s0,.08-.06,0v.08l.06-.07S2.52-21.24,2.51-21.25Zm.2-.08s0,0,0,0,.06.08.07,0,0,0,0,0l0,0,0,0s0,0,0,0-.06,0-.08,0-.08,0-.11,0-.06,0-.08,0l0,0h0s0,0,0,0,0,0,0,0h0v0h0s-.08.07-.15,0l0,0v.08s0,0,.06,0v0h0l0,0v0h0s0,0,0,0h0s0,0,0,.06v0h0l.11,0h0s0,0,0-.05h0a0,0,0,0,1,0,0h.16s0,0,0,0Zm.34.15a.07.07,0,0,0,0-.05s0,0,0,0H3c0-.07-.11,0-.15,0h0l0,0a.1.1,0,0,1,0,0s-.07,0-.06,0h0s0,0,0,0,0,0,0,0h0s0,0,0,0,.05,0,.05,0,.08-.07.14-.08H3s0,0,0,0,0,0,0,0H3Zm0-.25a.07.07,0,0,0-.06,0s0,0,0,0,0,0,0,0S3.05-21.42,3.08-21.43Zm.26,0,0,0s-.08,0-.07.05,0,0,0,0,0,0,.07,0h0s-.07,0,0,0h0c0-.07-.06-.08-.12-.09h0l.09.07s0,.05,0,.08l0,0s0,0-.06,0l.07,0h.06s.06,0,0,.05,0,0,0,0,0,0,0,0,0,0,0,0,0,0,0,0,0-.08,0-.09,0,0,0,0l0,0h0v0h0S3.33-21.44,3.34-21.47Zm.11.16.1,0c.05,0,.1,0,.16,0l0,0v0h0s-.07,0-.1,0,0,0,0,0,0,0,0,0l-.06,0h0v0l0,0h0s0,0,0,0l0,0,0,0h0s0,0,0,0,0-.05,0-.08,0,0,0,0S3.46-21.36,3.45-21.31Zm.22.16s0-.06,0-.07,0-.05-.07,0,0,0,0,0l0,0s0,0,0,0,0,.07,0,.06h0s.07,0,.1,0,0,.05.08,0h0c0,.05,0,0-.06,0s0,0,0,0h.06Zm.21-.06s0,0,0,0h0a.09.09,0,0,1-.1,0s0,0-.07,0v0h.05a.07.07,0,0,1,.07.05l0,0h0s0,0,0,0S3.88-21.18,3.88-21.21Zm.33-.18H4.14v0H4.2v0h0s-.08,0-.11,0l-.05,0H4l0,0H4s0,0,0,0,0,0,0,0-.06,0-.07,0l-.06,0h0c.07,0,.07,0,.09,0a.19.19,0,0,1,.18,0S4.17-21.39,4.21-21.39Zm0,0h0l-.06,0,0,0S4.26-21.38,4.26-21.4Zm.13-.29-.06,0v0h0l-.06,0s0,0,0,0h0s0,0,0,0,0,0,.05,0S4.37-21.67,4.39-21.69Zm.12.29s0,0-.06,0h0s.06,0,.08,0Zm.46,0H5l0,0,0,0-.1-.05,0,0v0h0l0,0,0,0c0,.08,0,0,0,0a0,0,0,0,1,0,0s0,0,0,0,.06,0,.1,0,0,0,0,0,.07,0,.1,0v0a0,0,0,0,0,0,0H5s0,0,0,0h0s0,0,0,0h0l.08,0Zm.14.05h0s0,0,0,0-.08,0,0,0,0,0,0,0H5a.06.06,0,0,0,0,0s0,0,.07,0h0Zm.26-.28H5.28l0,0,0,0Zm.11.27-.12-.06,0,.07h.09s0,0,0,0v0h0v0Zm.17,0c0-.07-.06,0-.09,0a.21.21,0,0,0,0,.07s0,0,0,0l0-.05h0Zm.14-.05H5.71l0,0,.09,0S5.78-21.41,5.79-21.42Zm.42.07s0,0,0,0-.07,0-.12,0,0,0,0,0,0,0,0,0h0l.05,0s0,0,0,.06Zm.13-.31s0,0,0,0,.07,0,.07,0-.06,0-.07,0S6.34-21.67,6.34-21.66Zm0,.19s0,0,0,0l-.06,0,0,.05.07,0,0,0,0,0h0l0,0h0s0,0,0,0S6.37-21.47,6.36-21.47Zm.15,0c0-.05,0,0-.07,0s0,0-.05,0a.09.09,0,0,0,.11-.05Zm.19.23-.09-.06s0,0,0,0,.06,0,.07,0Zm.1,0,0,0c0-.05-.09,0-.12,0h0l0,0h0s0,0-.06,0,0,0,0,0,0,0,0,0,0,0,0,0h0s0,0,0,0,0,0,.06.05Zm.39-.1c-.11,0-.11,0-.08,0l0,0s0,.06,0,.07S7.1-21.39,7.19-21.41Zm.09-.24h.08l-.06-.05h0s0,0,0-.05h0c0,.05,0,.05,0,.08Zm.08.24s-.06,0-.1,0h0l.1,0Zm0-.26,0,0-.08,0s.05,0,0,0Zm.09.39h0l-.1,0h0C7.4-21.21,7.45-21.32,7.48-21.28Zm0,0H7.44l0,.06A.14.14,0,0,0,7.5-21.24Zm.08-.49c-.06,0,0,0,0,.05s0,0,0,0h0s0,0,0,0S7.54-21.7,7.58-21.73Zm.61,0h0l0,0s0,0,0,0,0,0,0,0,0,0,0,0A0,0,0,0,0,8.19-21.73Zm.25.19h0l-.05,0,0,0Zm.05.12-.06,0s0,0,0,0l.08.06Zm.42.05s0,0,0,0,0,.05,0,.07,0,0,0,0l0,0S8.93-21.36,8.91-21.37ZM9-21.44H8.87s0,0,0,0H9Zm.07-.2H9l0,0,0,0S9-21.64,9.05-21.64Zm.15,0h0a.07.07,0,0,0,0,.05s0,0,0,0S9.2-21.6,9.2-21.62Zm.2.12-.06.06h0s.05,0,.06-.05S9.42-21.5,9.4-21.5Zm.58,0s0,0,0,0l0,0a0,0,0,0,0,.07,0Zm0,0c0,.05,0,0,.08.05h0L10-21.53Zm0,.14,0,.05,0-.05,0,0Zm.13.09L10-21.34l0,.05h.13Zm.49-.16,0,0,0,0s0,.06.07,0Zm.28.12s0,0,0,0v0h0l0,0S10.89-21.31,10.89-21.33Zm1.55,0-.07,0h0l.06,0S12.42-21.27,12.44-21.28Z" transform="translate(-0.07 21.8)"/><path class="cls-2" d="M10.91-21.22Z" transform="translate(-0.07 21.8)"/><polygon class="cls-2" points="8.73 0.57 8.73 0.57 8.73 0.57 8.73 0.57"/><polygon class="cls-2" points="8.73 0.57 8.73 0.57 8.73 0.57 8.73 0.57"/><polygon class="cls-2" points="1.68 0.04 1.68 0.04 1.68 0.04 1.68 0.04"/><path class="cls-2" d="M5.1-21.35h0Z" transform="translate(-0.07 21.8)"/><polygon class="cls-2" points="2.94 0.57 2.94 0.57 2.94 0.57 2.94 0.57"/><polygon class="cls-2" points="8.79 0.36 8.79 0.36 8.79 0.36 8.79 0.36 8.79 0.36"/><polygon class="cls-2" points="1.88 0.48 1.88 0.48 1.88 0.48 1.88 0.48 1.88 0.48"/><polygon class="cls-2" points="6.63 0.43 6.63 0.43 6.63 0.43 6.63 0.43"/><path class="cls-2" d="M2-21.51Z" transform="translate(-0.07 21.8)"/><polygon class="cls-2" points="1.5 0.54 1.5 0.54 1.5 0.54 1.5 0.54"/><polygon class="cls-2" points="4.28 0.68 4.28 0.68 4.28 0.68 4.28 0.68"/><path class="cls-2" d="M4.05-21.13H4l0,0H4s0,0,0,0H4v0H3.94v0a0,0,0,0,0,0,0s.06,0,.08.05,0,0,.08,0v-.07Z" transform="translate(-0.07 21.8)"/><path class="cls-2" d="M1.18-21.23h0s-.07,0-.09,0,0,0,0,0v.06h.08Z" transform="translate(-0.07 21.8)"/><path class="cls-2" d="M4.19-21.1h0s0,0,0,0,0-.05,0,0v.05s.09,0,.13,0v0h0S4.19-21.16,4.19-21.1Z" transform="translate(-0.07 21.8)"/><path class="cls-2" d="M1.61-21.7h.12l-.15-.06,0,0S1.59-21.7,1.61-21.7Z" transform="translate(-0.07 21.8)"/><polygon class="cls-2" points="4.28 0.68 4.28 0.68 4.28 0.68 4.28 0.68"/><path class="cls-2" d="M4.34-21.15s-.06,0-.07,0,0,0,0,0h0c0,.05.07,0,.1,0Z" transform="translate(-0.07 21.8)"/><path class="cls-2" d="M3.19-21.75c0-.06-.07,0-.1,0h0l.07,0S3.2-21.73,3.19-21.75Z" transform="translate(-0.07 21.8)"/><path class="cls-2" d="M4.78-21.11l0,0-.05,0v0l0,0Z" transform="translate(-0.07 21.8)"/><path class="cls-2" d="M6.25-21.15l0,0s0,0,0,0,.06,0,.07,0S6.3-21.14,6.25-21.15Z" transform="translate(-0.07 21.8)"/><path class="cls-2" d="M3.3-21.72v0h0s0,0,0,0h0s0,0,0,0h0s0,0,0,0h0S3.26-21.72,3.3-21.72Z" transform="translate(-0.07 21.8)"/><path class="cls-2" d="M3.29-21.68h0Z" transform="translate(-0.07 21.8)"/><path class="cls-2" d="M5.12-21.17v0h0s0,0,0,0,0,0,0-.06S5.15-21.14,5.12-21.17Z" transform="translate(-0.07 21.8)"/><path class="cls-2" d="M12.4-21.23v0l.09,0h0S12.42-21.18,12.4-21.23Z" transform="translate(-0.07 21.8)"/><path class="cls-2" d="M8.56-21.17l-.06,0h0l.05,0Z" transform="translate(-0.07 21.8)"/><path class="cls-2" d="M7.31-21.16v.05h0l0,0s0,0,0,0S7.33-21.16,7.31-21.16Z" transform="translate(-0.07 21.8)"/><path class="cls-2" d="M9.37-21.17l0,0h.05l0,0Z" transform="translate(-0.07 21.8)"/><path class="cls-2" d="M10.79-21.24l-.07,0s0,0,.07,0v0Z" transform="translate(-0.07 21.8)"/><path class="cls-2" d="M5.94-21.16s0,.06,0,.07,0,0,0,0,0,0,0,0S5.94-21.14,5.94-21.16Z" transform="translate(-0.07 21.8)"/><path class="cls-2" d="M1.68-21.74l.07,0h0S1.67-21.79,1.68-21.74Z" transform="translate(-0.07 21.8)"/><polygon class="cls-2" points="1.68 0.04 1.68 0.04 1.68 0.04 1.68 0.04"/><path class="cls-2" d="M1.75-21.76h0Z" transform="translate(-0.07 21.8)"/><path class="cls-2" d="M5.12-21.14Z" transform="translate(-0.07 21.8)"/><path class="cls-2" d="M5.11-21.18h0v0l0,.06v0S5.09-21.16,5.11-21.18Z" transform="translate(-0.07 21.8)"/><polygon class="cls-2" points="5.05 0.66 5.05 0.66 5.05 0.66 5.05 0.66"/><polygon class="cls-2" points="5.05 0.66 5.05 0.66 5.05 0.66 5.05 0.66"/><path class="cls-2" d="M8.8-21.23Z" transform="translate(-0.07 21.8)"/><path class="cls-2" d="M8.8-21.24s0,0,0,0a.43.43,0,0,0,0,.05h0v0h0Z" transform="translate(-0.07 21.8)"/><polygon class="cls-2" points="8.73 0.57 8.73 0.57 8.73 0.57 8.73 0.57"/><path class="cls-2" d="M8.24-21.13h0Z" transform="translate(-0.07 21.8)"/><path class="cls-2" d="M2.78-21.34s0,0,0,0,0-.06-.06,0l.05,0S2.77-21.33,2.78-21.34Z" transform="translate(-0.07 21.8)"/><path class="cls-2" d="M2.52-21.42s0,0,0,0l0,0-.06,0Z" transform="translate(-0.07 21.8)"/><path class="cls-2" d="M13-21.64h0v0Z" transform="translate(-0.07 21.8)"/><path class="cls-1" d="M14.62-21.33a.05.05,0,0,0,0,0s0,0,0,0h-.17s0,0,0,0h0s-.06,0,0,.05h0l-.12,0h0v0s0,0,0-.06h0v0h-.05l0,0v0h0s0,0,0,0,0,0,0,0v-.08a0,0,0,0,0,0,0c.06,0,.1,0,.15,0h0v0h0s0,0,0,0v0h.05l0,0s.06,0,.08,0,.08,0,.11,0,.06,0,.08,0l0,0a0,0,0,0,0,0,0l.05,0,0,0c0,.09-.05,0-.06,0S14.63-21.35,14.62-21.33Zm-.11-.09-.06,0s0,0,0,0,0,0,0,0Zm.09,0,.05,0s0,0,0,0,0,0,0,0S14.63-21.44,14.6-21.39Z" transform="translate(-0.07 21.8)"/><path class="cls-1" d="M13.87-21.28a.1.1,0,0,0,0,0s0,0,0,0h0a.19.19,0,0,0,0-.08S13.83-21.3,13.87-21.28Z" transform="translate(-0.07 21.8)"/><path class="cls-1" d="M14.07-21.27s0-.05,0-.08,0,0,0,0v0s0,0,0,0l0,0,0,0,.08,0v0h-.08Z" transform="translate(-0.07 21.8)"/><path class="cls-1" d="M14.36-21.23v.08l.07-.07a0,0,0,0,0,0,0S14.41-21.17,14.36-21.23Z" transform="translate(-0.07 21.8)"/><path class="cls-1" d="M14.06-21.4h0c.05,0,.08,0,0,0h0l0,0s0-.05,0,0-.05,0-.07,0,0,0,0,0-.13,0-.19,0,0,0,0,0,0,0,0,0,0,0,0,0h0s0,0,0,0,0,0,0,0h.07l0,0h0l0,0c.05-.05,0,0,0-.07s0-.05.09-.06H14v0h0s-.06.05-.1,0h0s0,0,0,0,0,0,0,0,0-.05,0,0,0,0,.08,0v0s.06,0,0,0h0v0Z" transform="translate(-0.07 21.8)"/><path class="cls-1" d="M14.28-21.28l0,0,0,0c0-.05,0,0,0,0s0,0,0,0,0,0,0,0,0,0,0,0h0s0,0,0,0,0,0,0,0a.07.07,0,0,0,.08,0S14.28-21.23,14.28-21.28Z" transform="translate(-0.07 21.8)"/><path class="cls-1" d="M14.78-21.26h0l0,0s0,0,0,0-.07,0-.06,0h0s0,0,0,0,0,0,0,0h0s.05,0,.05,0,0,0,0,0a.17.17,0,0,1,.14-.08C14.89-21.3,14.82-21.21,14.78-21.26Z" transform="translate(-0.07 21.8)"/><path class="cls-1" d="M15.47-21.33s.09,0,.15,0l0,0s0,0,0,0h0s-.07,0-.1,0,0,0,0,0,0,0,0,0l-.05,0h0s0,0,0,0,0,0,0,0h0s0,0,0,0l0,0,0,0h0s0,0,0,0a.12.12,0,0,0,0-.08s0,0,0,0,0,.11,0,.16Z" transform="translate(-0.07 21.8)"/><path class="cls-1" d="M15.54-21.22s0-.05-.07,0,0,0,0,0l-.05,0s0,0,0,0,0,.07,0,.06h0s.07,0,.1,0,0,.05.07,0h0c0,.05-.05,0-.06,0h0l.05,0S15.59-21.21,15.54-21.22Z" transform="translate(-0.07 21.8)"/><path class="cls-1" d="M15.77-21.23s-.09,0-.1,0-.05,0-.07,0l0,0h.05a.09.09,0,0,1,.08.05l0,0h0s0,0,0,0,.07,0,.07,0v0Z" transform="translate(-0.07 21.8)"/><path class="cls-1" d="M13.94-21.2v0l0,0h0c-.05-.06,0,0,0,0H14S13.94-21.21,13.94-21.2Z" transform="translate(-0.07 21.8)"/><path class="cls-1" d="M15.15-21.33h0c0-.07-.06-.08-.12-.09h0s.07,0,.09.07a.2.2,0,0,1,0,.08l0,0s0,0-.06,0l.06,0h.06s.06,0,0,.05,0,0,0,0,0,0,0,0,0,0,0,0,0,0,0,0,0-.08,0-.09,0,0,0,0,0,0,0,0S15.14-21.38,15.15-21.33Z" transform="translate(-0.07 21.8)"/><path class="cls-1" d="M14.93-21.44s0,0,0,0,0,0,0,0,0,0,0,0A.09.09,0,0,0,14.93-21.44Z" transform="translate(-0.07 21.8)"/><path class="cls-1" d="M15.16-21.4s0,0,0,0a.07.07,0,0,0,.07,0v0h.05a.29.29,0,0,1,0-.09l0,0S15.15-21.46,15.16-21.4Z" transform="translate(-0.07 21.8)"/><path class="cls-1" d="M13.54-21.36l0,0s0,0,0,0l0,0Z" transform="translate(-0.07 21.8)"/><path class="cls-1" d="M21.28-21.29c0-.06.08,0,.11,0v0h0v0s0-.07.05-.08h-.15s-.12,0-.11.08Z" transform="translate(-0.07 21.8)"/><path class="cls-1" d="M13.65-21.23h0c-.05,0-.09-.07-.15-.05h0s0,0,0,0l.15,0s0,0,0,0h0s0,0,0,0Z" transform="translate(-0.07 21.8)"/><path class="cls-1" d="M14.59-21.66h.08s0-.06-.06-.06S14.64-21.67,14.59-21.66Z" transform="translate(-0.07 21.8)"/><path class="cls-1" d="M13-21.62a0,0,0,0,1,0,0h0v0S13-21.63,13-21.62Z" transform="translate(-0.07 21.8)"/><path class="cls-1" d="M13-21.4c.06,0,.1,0,.16,0h0l.05,0s0,0,0,0,0,0,0,0l0,0c-.05,0-.1,0-.14,0h0v0s0,0,0,0h0c0,.06,0,0,0,0v.05S13-21.39,13-21.4Z" transform="translate(-0.07 21.8)"/><path class="cls-1" d="M19.15-21.24v0h0s0,0,0,0v-.06h0v0s0,0,0,0h0s0,0,0,0,0,0,0,0,0,0,0,0,0,0,0,0-.06,0-.05.06l0,0,0,0h0s0,0,0,0h0s0,0,0,0,0,.07,0,.08v-.05Z" transform="translate(-0.07 21.8)"/><path class="cls-1" d="M13.32-21.4v0h.09s0,0,0,0Z" transform="translate(-0.07 21.8)"/><path class="cls-1" d="M13.41-21.24h0l0,0S13.43-21.27,13.41-21.24Z" transform="translate(-0.07 21.8)"/><path class="cls-1" d="M13.94-21.51Z" transform="translate(-0.07 21.8)"/><path class="cls-1" d="M13.31-21.35l0,0,0,0v0h0s0,0,0,0Z" transform="translate(-0.07 21.8)"/><path class="cls-1" d="M13.33-21.43l0,0s-.08,0-.12,0v0S13.31-21.49,13.33-21.43Z" transform="translate(-0.07 21.8)"/><path class="cls-1" d="M14-21.48h0s0,0-.09,0S14-21.5,14-21.48Z" transform="translate(-0.07 21.8)"/><path class="cls-1" d="M16.13-21.39h-.07v0h.06v0h0s-.07,0-.1,0l-.05,0h0v0h0s0,0,0,0,0,0,0,0-.07,0-.08,0l0,0h0c.08,0,.07,0,.09,0a.19.19,0,0,1,.18,0S16.08-21.39,16.13-21.39Z" transform="translate(-0.07 21.8)"/><path class="cls-1" d="M14.92-21.23h0s0,0,0,0,0,0,0,0H15v0S14.94-21.22,14.92-21.23Z" transform="translate(-0.07 21.8)"/><path class="cls-1" d="M20.33-21.55l-.06,0,0,0,.06,0Z" transform="translate(-0.07 21.8)"/><path class="cls-1" d="M20.06-21.74s0,0,0,0,0,0,0,0,0,0,0,0,0,0,.05,0a0,0,0,0,0,0-.05Z" transform="translate(-0.07 21.8)"/><path class="cls-1" d="M20.34-21.46l0,0,.07.06,0,0Z" transform="translate(-0.07 21.8)"/><path class="cls-1" d="M20.83-21.37s0,0,0,0,0,.05,0,.07v0s0,0,0,0S20.84-21.36,20.83-21.37Z" transform="translate(-0.07 21.8)"/><path class="cls-1" d="M20.78-21.44Z" transform="translate(-0.07 21.8)"/><path class="cls-1" d="M19.49-21.73s0,0,0,.05,0,0,0,0h0s0,0,0,0S19.46-21.7,19.49-21.73Z" transform="translate(-0.07 21.8)"/><path class="cls-1" d="M16.11-21.38l.05,0,0-.06h0Z" transform="translate(-0.07 21.8)"/><path class="cls-1" d="M19.17-21.41h0l.09,0,0,0S19.21-21.45,19.17-21.41Z" transform="translate(-0.07 21.8)"/><path class="cls-1" d="M19.28-21.64l-.06-.05h0s0,0,0-.05h0c0,.05,0,.05,0,.08h.13Z" transform="translate(-0.07 21.8)"/><path class="cls-1" d="M19.3-21.67l0,0-.08,0s0,0,0,0Z" transform="translate(-0.07 21.8)"/><path class="cls-1" d="M19.39-21.28h0l-.1,0h0C19.31-21.21,19.37-21.32,19.39-21.28Z" transform="translate(-0.07 21.8)"/><path class="cls-1" d="M22-21.47h0l-.09-.05h0C21.9-21.47,22-21.48,22-21.47Z" transform="translate(-0.07 21.8)"/><path class="cls-1" d="M21.9-21.29H22l-.11-.05Z" transform="translate(-0.07 21.8)"/><path class="cls-1" d="M22.48-21.49l-.05,0s0,.06.07,0l0,0S22.5-21.48,22.48-21.49Z" transform="translate(-0.07 21.8)"/><path class="cls-1" d="M22-21.38l0,0,0,0,.05.05S22-21.37,22-21.38Z" transform="translate(-0.07 21.8)"/><path class="cls-1" d="M22.76-21.35a.1.1,0,0,1,0,0h0l0,0a.14.14,0,0,0,0-.06S22.79-21.32,22.76-21.35Z" transform="translate(-0.07 21.8)"/><path class="cls-1" d="M20.89-21.45h-.11a0,0,0,0,0,0,0h.1Z" transform="translate(-0.07 21.8)"/><path class="cls-1" d="M24.25-21.29l.07,0s0,0,0,0l-.07,0Z" transform="translate(-0.07 21.8)"/><path class="cls-1" d="M20.88-21.63l.06,0s0-.05,0-.05h-.06Z" transform="translate(-0.07 21.8)"/><path class="cls-1" d="M19-21.45s0,0,0,0,0,.06,0,.07.05,0,.13,0C19-21.39,19-21.41,19-21.45Z" transform="translate(-0.07 21.8)"/><path class="cls-1" d="M21.09-21.61a.11.11,0,0,1,0,.05s0,0,0,0a.21.21,0,0,0,0-.07Z" transform="translate(-0.07 21.8)"/><path class="cls-1" d="M21.8-21.48a0,0,0,0,0,.07,0h0s0,0,0,0Z" transform="translate(-0.07 21.8)"/><path class="cls-1" d="M21.31-21.5l0,.06h0l.07-.05Z" transform="translate(-0.07 21.8)"/><path class="cls-1" d="M19.37-21.25h0l0,.06s0,0,0-.06Z" transform="translate(-0.07 21.8)"/><path class="cls-1" d="M16.9-21.39l0,0-.1-.05v.05h0l-.06,0s0,0,0,0,0,0-.05,0l0,0s0,0,0,0,.06,0,.11,0,0,0,0,0,.07,0,.11,0v0l0,0h0s0,0,0,0h0s0,0,0,0h0l.08,0v0h0Z" transform="translate(-0.07 21.8)"/><path class="cls-1" d="M17.47-21.36a.19.19,0,0,0,0,.07s0,0,0,0l.06-.05h0l0,0C17.53-21.44,17.51-21.33,17.47-21.36Z" transform="translate(-0.07 21.8)"/><path class="cls-1" d="M17.19-21.64s0,0,0,0l0,0,.09-.05Z" transform="translate(-0.07 21.8)"/><path class="cls-1" d="M17-21.37s-.07,0,0,0,0,0,0,0H17a.08.08,0,0,0,0,0,.05.05,0,0,0,.07,0S17-21.36,17-21.37Z" transform="translate(-0.07 21.8)"/><path class="cls-1" d="M17.24-21.36h.09s0,0,0,0,0,0,0,0h0l0,0,0-.08-.11-.06A.25.25,0,0,0,17.24-21.36Z" transform="translate(-0.07 21.8)"/><path class="cls-1" d="M18.27-21.47s0,0,0,0a.1.1,0,0,0-.05,0l-.05.05.07,0,.05,0,0,0h0l.05,0h0s0,0,0,0S18.29-21.47,18.27-21.47Z" transform="translate(-0.07 21.8)"/><path class="cls-1" d="M17.6-21.4l.09,0a.14.14,0,0,1,0,0h-.09Z" transform="translate(-0.07 21.8)"/><path class="cls-1" d="M18.28-21.64s.06,0,.06,0-.05,0-.06,0,0,0,0,0A0,0,0,0,0,18.28-21.64Z" transform="translate(-0.07 21.8)"/><path class="cls-1" d="M18-21.41l0,0s-.05,0,0,0h0l0,0s.05,0,.05.06h0a.07.07,0,0,0,0,0C18.08-21.46,18-21.41,18-21.41Z" transform="translate(-0.07 21.8)"/><path class="cls-1" d="M18.56-21.35s0,0,0,0,0,0,0,0,0,0,0,0S18.58-21.37,18.56-21.35Z" transform="translate(-0.07 21.8)"/><path class="cls-1" d="M18.35-21.49l-.05,0a.09.09,0,0,0,.11-.05h0C18.39-21.55,18.38-21.49,18.35-21.49Z" transform="translate(-0.07 21.8)"/><path class="cls-1" d="M18.52-21.28s.05,0,.07,0h0l-.1-.06S18.51-21.29,18.52-21.28Z" transform="translate(-0.07 21.8)"/><path class="cls-1" d="M16.36-21.38h-.05s.06,0,.09,0,0,0,0,0S16.38-21.4,16.36-21.38Z" transform="translate(-0.07 21.8)"/><path class="cls-1" d="M16.25-21.7h0l-.06,0s0,0,0,0h0s0,0,.06,0a0,0,0,0,0,0,0s0,0,0-.05l-.05,0Z" transform="translate(-0.07 21.8)"/><path class="cls-1" d="M18.73-21.34c0-.05-.08,0-.12,0h0v0s0,0,0,0,0,0,.06.05v0A.1.1,0,0,1,18.73-21.34Z" transform="translate(-0.07 21.8)"/><polygon class="cls-2" points="19 0.58 19 0.59 19 0.59 19 0.59 19 0.58"/><path class="cls-2" d="M15.2-21.37Z" transform="translate(-0.07 21.8)"/><path class="cls-2" d="M21.22-21.29Z" transform="translate(-0.07 21.8)"/><path class="cls-2" d="M24.88-21.3v.07l-.05-.05h0v0a.24.24,0,0,1,0,.08l0,0c-.05-.1,0,0,0,0s-.08,0-.11,0,0-.07-.08,0v0s0,0,0,0-.05,0-.08,0,0,0,0,0v0c0,.05-.08,0-.12,0s-.05,0-.08,0h0s0,0,0,0,0,0,0,.05-.07,0-.11,0-.09,0-.14,0,0,0,0,0-.07,0,0-.08l0,0h0c-.06,0,0,0,0,0s-.09,0-.09.07h0s0,0,0,0h-.07s0,.07,0,0h-.08l0,0c0-.06-.07,0-.09-.08s0,0,0,0l0,.06s0,0,0,0-.09,0-.11,0,0,0,0,0l-.08,0h0c0,.12-.07,0-.12,0a.14.14,0,0,0-.09,0s0,0-.07,0h0s0,0,0,0-.05,0,0,0,0,0,0,0a.35.35,0,0,0-.11,0l-.13.05h0a.05.05,0,0,1,0,0v0l0,0s0-.05-.06,0l0,0h0s0,0,0,0,0,0,0,0-.09,0-.1,0-.11,0-.15,0h0s0,0,0,0,.05,0,0,0h0s0,0-.07,0-.08-.06-.14,0a.08.08,0,0,1-.08,0s0,0-.07,0l-.07,0,0,0s0,0,0,0-.1,0-.15,0a.61.61,0,0,1-.19,0c-.06,0,0,0,0,0l-.15,0h0s0,0,0,0,0,0,0,0,0,0-.06,0,0,0,0,0h.06c0-.06.08,0,.11,0v0h0v0s0-.07.05-.08h-.15s-.12,0-.11.08h0c-.06,0,0,0,0,.05s0,0-.06,0h0c0,.07-.09,0-.11.05s0,0,0,0-.06,0-.08,0-.06,0-.07.07h0a.1.1,0,0,1,0-.05s0,0,0,0h0a.13.13,0,0,1,0-.06s0,0,0,0v0s0,0,0,.06,0,0,0,0-.06,0-.07,0v0h0s0,.06-.05,0,0,0,0,0h0l-.06-.05h0l0,0a0,0,0,0,0,0,0s0,0,0,0-.05,0-.08,0h0l0,0h.06s0,0-.05,0-.07,0-.11,0h-.08v0h0s-.06,0,0-.05h0v0s0,0,0,.05v0l0,0h0l0,0v0s-.07,0-.11,0,0,0,0,0,0,0,0,0,0,0,0,0h0s0,0,0,0a.15.15,0,0,0,0-.07.06.06,0,0,1,0,0s0,0,0,0l0,0h0s0,0,0,0l0,0v0l0,0s-.05,0,0,0,0,0,0,0,0,0,0,0h0s0,0,0,0l-.07,0h0s0,0,0,0h0l-.05,0a0,0,0,0,0,0,0c0,.12-.11,0-.14.07h0s0,0,0,0l0-.05h0c0,.05-.11,0-.1.06s0,0,0,0h-.07l0,0s0,0,0-.05,0,0,0,0v.06h0s0,0,0,0,0,0,0,0h0v-.05l.06,0v0h0s0,0,0,0v-.06h0v0s0,0,0,0h0s0,0,0,0,0,0,0,0,0,0,0,0,0,0,0,0-.06,0-.05.06l0,0,0,0h0s0,0,0,0h0s0,0,0,0,0,.07,0,.08h0s0,0,0,0,0,0-.06.05h0s-.06,0-.06,0-.13,0-.12-.07c0,.08,0,0,0,0h0v0s0,0,0,0,0,0,0,0h-.12s0,0,0,.06,0-.05-.09,0,0,0,0,0,0,0,0,0,0,0-.06,0-.07,0-.11,0,0,0,0,0v0s-.05,0-.07,0-.06,0-.08,0,0,0,0,0h0s0-.07-.06-.06,0-.06,0,0,0,.06,0,.09h0s0,0,0,0v0h0c-.05,0-.08,0-.11,0s-.07,0-.11,0h0c-.08,0-.16,0-.24,0h-.1s-.05,0-.07.05v0s-.06,0-.05,0v0h0v0l0,0s0,0,0,0,0,0,0,0,0,0,0,0h-.31c0,.07-.05,0-.06,0h0c0-.08-.06,0-.09-.05l0,0h0l-.05,0v0l0-.06v0h0s0,0-.06,0h-.05l-.17,0h0l0,0h0a.08.08,0,0,1-.09,0s0,0,0,0,0,0,.06,0h0v0s0,0-.06,0-.05,0,0,0h0c-.07-.09-.18,0-.26-.05s-.07,0-.11,0,0,0,0,0,0,0,0,0,0,.05,0,.09v0h0v0l-.05,0s0,0,0,0h0s0,0,0,0h0c0-.07-.05,0-.07,0s-.09,0-.12,0-.1,0-.14,0l-.07,0s0,0-.05,0,0,0,0,0,0,0,0,0,0,0,0,0l0,0s0,0,0,0a.08.08,0,0,0,0,0s-.11,0-.14,0-.07,0-.1,0,0,0-.09,0-.09,0-.14,0h0s0-.05,0,0h0s0,0,0,0,0,0,0,0v0l-.07,0s0,0,0,0h-.48a.22.22,0,0,0-.11,0,.52.52,0,0,1-.25,0s-.1,0-.13,0-.06,0-.08,0-.1,0-.16,0,0,0-.05,0,0,0-.08,0h-.07l-.09-.07h0c0,.08-.05,0-.07,0v-.12s0,0,0,0,.1,0,.16,0h0l.05,0s0,0,0,0,0,0,0,0l0,0c-.05,0-.1,0-.14,0h0v0s0,0,0,0h0c0,.06,0,0,0,0v-.14s0,0,0,0a0,0,0,0,1,0,0h0v0h0s.06,0,0,0a0,0,0,0,1,0,0h0s0,0,0,0,0,0,0,0,0,0,0,0,0,0,.06,0,0,0,0,0,.06,0,.08,0h0s0-.06,0,0l0,0c.06-.05,0,0,0,0s0,0,0,0h0v0h0s0,0,0,0l.17,0s0,0,0,0h0s0,0,0,0,.06,0,.07,0,.1.06.12,0a0,0,0,0,1,0,0h0s0,0-.07,0h.1c.05,0,0,0,0,0s0,0,.05,0h.05l0,0h0l0,0s.08,0,.11,0a.31.31,0,0,1,.3.06c0,.05,0,0,0,0s.07,0,.07,0,0,0,.06,0,.06,0,.09,0h0c0,.07.06-.05.08,0s.07.07.08,0c0,.06.07,0,.08.06h0s0,0,0,0l0,0v0h.08s0,0,0,.06H15v0a.1.1,0,0,0,0,0s.05-.06.08,0h0a.08.08,0,0,0,0,0l0,0,0,0h0a.13.13,0,0,0,.12,0h0l.08-.07h0s.06,0,0,0,0,0,0,0a0,0,0,0,1,0,0v0h.11v.07h0v0s0,0,.06,0a.1.1,0,0,0,0-.07,0,0,0,0,1,0,0s.07,0,.08,0,.05,0,.07,0h0l0,0s0,0,0,0h0l0,0h0l0,0v.05h.07s0,0,0,0h0s0,0,0,0h.15l0,0s0-.05,0-.07l0,0,0,0h0s0,0,0,0v0h0l.13.07c0-.1.05,0,.07,0s0,0,0,0,.1,0,.15,0a.32.32,0,0,1,.14,0l0,0h0v0l.07,0,0,0s0,0,.07,0h0l0,0v0l0,0,0,0,0,0s0,0,0,0,0,0,0,0,0,0,0,0,0,0,0,0v0h0l0,0,0,0h.07s0-.08,0-.05,0,0,0,0h0s-.09,0,0-.08,0,0,0,.05h0v0l0,0h0v-.05h0s.07,0,.09,0,0,0,0,0l0,0h-.05s-.06,0,0,.07,0,0,0,0v0s.05,0,.07,0,.05,0,0,0h.06v0h0s.07,0,.1,0v0h0s0,0,0,0l0,0h0l0,0h0s0,0,0,0l0,0h.05s0,0,0-.05a.2.2,0,0,1,.08-.08s0,0,0,0h0c0-.06.08,0,.1-.05h0s.05,0,0,0h.21a.56.56,0,0,0,.13,0,.47.47,0,0,1,.31,0s.1,0,.15,0,.07,0,.1,0,.08,0,.13,0,.09,0,.14,0a.12.12,0,0,1,.11.07h0v0h0s0,0,0,0,0,0,0,0,0,0,0,0h.13s0,0,0,0,.1,0,.15,0,.06,0,.08,0,0,0,.05,0a0,0,0,0,0,0,0s0,0,0,0a.18.18,0,0,1,.16,0s0,0,0,0v-.05l0,0s0,0,0,0,0,0,0,0h.05l0,0h.07l0,0s0,0,0,0,0-.05.05,0a0,0,0,0,0,0,0s0,0,0,0,0,0,.08,0,0,0,0,0,0,0,0,0,0-.06.08,0,.07,0,.1,0,.11,0,.14,0h0c0-.05,0,0,.06,0s0,0,.08,0h.25s.08,0,.12,0h0l.11,0s0,0,0,0a2.25,2.25,0,0,0,.26,0h.24s0,0,0,0,.1.05.15,0l.05,0a.08.08,0,0,0,.08,0,.59.59,0,0,1,.23,0h.13a.09.09,0,0,1,0,.05s0,0,0-.06h0l0,0s0,0,0,0a.13.13,0,0,1,.09,0,.56.56,0,0,1,.13,0,2.26,2.26,0,0,0,.26,0,.81.81,0,0,1,.22,0c.05,0,.08,0,.13,0s.05,0,.06,0,.06,0,.09,0,.13,0,.2,0,.06,0,.08,0,0,0,0,0a.33.33,0,0,1,.24,0s.05,0,.07,0a0,0,0,0,0,0,0l.12,0h.2a1.6,1.6,0,0,0,.38,0c0,.06,0,0,0,0h0v0h0l.1,0h0l.13,0h0s0,0,0,0Zm-10.29-.36h.08s0-.06-.06-.06S14.64-21.67,14.59-21.66Zm-.66.16h0s.06,0,.08,0h0s0,0-.09,0h0Zm-.46.14,0,0,0,0,0,0S13.47-21.37,13.47-21.36Zm-.14-.07,0,0s-.08,0-.12,0v0S13.31-21.49,13.33-21.43Zm0,.1,0,0,0,0,0,0v0h0S13.35-21.3,13.33-21.33Zm.07,0s0,0,0,0h-.12v0Zm.29.15h-.06c-.05,0-.09-.07-.15-.05h0s-.05,0-.07,0h0l0,0h0s0,0,0,0l.15,0s0,0,0,0h0S13.7-21.22,13.69-21.22Zm.34,0H14s0,0,0,0v0l0,0h0c-.05-.06,0,0,0,0Zm0-.17v0l0,0h0c.05,0,.08,0,0,0h0l0,0s0-.05,0,0-.05,0-.07,0,0,0,0,0-.13,0-.19,0,0,0,0,0,0,0,0,0,0,0,0,0h0s0,0,0,0,0,0,0,0h.07l0,0h0l0,0c.05-.05,0,0,0-.07s0-.05.09-.06H14v0h0s-.06.05-.1,0h0s0,0,0,0,0,0,0,0h0s0,0,0,0a.1.1,0,0,0,0,0s0,0,0,0h0a.19.19,0,0,0,0-.08h0s0-.05,0,0,0,0,.08,0v0s.06,0,0,0Zm.12.11h-.08s0-.05,0-.08,0,0,0,0v0s0,0,0,0l0,0,0,0,.08,0Zm.13,0,0,0,0,0c0-.05,0,0,0,0s0,0,0,0,0,0,0,0,0,0,0,0h0s0,0,0,0,0,0,0,0a.07.07,0,0,0,.08,0S14.28-21.23,14.28-21.28Zm.14,0s0,.08-.06,0v.08l.07-.07A0,0,0,0,0,14.42-21.25Zm.2-.08s0,0,0,0,.06.08.06,0l0,0-.05,0a0,0,0,0,1,0,0l0,0s-.06,0-.08,0-.08,0-.11,0,0,0-.08,0l0,0h-.05v0s0,0,0,0h0v0h0c-.05,0-.09.07-.15,0a0,0,0,0,1,0,0v.08s0,0,0,0,0,0,0,0h0v0l0,0h.05v0h0s0,0,0,.06v0h0l.12,0h0s0,0,0-.05h0s0,0,0,0h.17s0,0,0,0A.05.05,0,0,1,14.62-21.33Zm.34.15v-.05s0,0,0,0h0c0-.07-.1,0-.14,0h0l0,0s0,0,0,0-.07,0-.06,0h0s0,0,0,0,0,0,0,0h0s.05,0,.05,0,0,0,0,0a.17.17,0,0,1,.14-.08h0s0,0,0,0,0,0,0,0H15Zm0-.25a.09.09,0,0,0-.07,0s0,0,0,0,0,0,0,0S15-21.42,15-21.43Zm.26,0,0,0s-.09,0-.08.05,0,0,0,0a.07.07,0,0,0,.07,0h0s-.06,0,0,0h0c0-.07-.06-.08-.12-.09h0s.07,0,.09.07a.2.2,0,0,1,0,.08l0,0s0,0-.06,0l.06,0h.06s.06,0,0,.05,0,0,0,0,0,0,0,0,0,0,0,0,0,0,0,0,0-.08,0-.09,0,0,0,0,0,0,0,0h0v0h.05A.29.29,0,0,1,15.26-21.47Zm.11.16.1,0s.09,0,.15,0l0,0s0,0,0,0h0s-.07,0-.1,0,0,0,0,0,0,0,0,0l-.05,0h0s0,0,0,0,0,0,0,0h0s0,0,0,0l0,0,0,0h0s0,0,0,0a.12.12,0,0,0,0-.08s0,0,0,0S15.37-21.36,15.37-21.31Zm.21.16s0-.06,0-.07,0-.05-.07,0,0,0,0,0l-.05,0s0,0,0,0,0,.07,0,.06h0s.07,0,.1,0,0,.05.07,0h0c0,.05-.05,0-.06,0h0Zm.21-.06v0h0s-.09,0-.1,0-.05,0-.07,0l0,0h.05a.09.09,0,0,1,.08.05l0,0h0s0,0,0,0S15.79-21.18,15.79-21.21Zm.34-.18h-.07v0h.06v0h0s-.07,0-.1,0l-.05,0h0v0h0s0,0,0,0,0,0,0,0-.07,0-.08,0l0,0h0c.08,0,.07,0,.09,0a.19.19,0,0,1,.18,0S16.08-21.39,16.13-21.39Zm.05,0h0l-.06,0,.05,0Zm.12-.29-.05,0v0h0l-.06,0s0,0,0,0h0s0,0,.06,0a0,0,0,0,0,0,0S16.29-21.67,16.3-21.69Zm.12.29s0,0-.06,0h-.05s.06,0,.09,0S16.41-21.39,16.42-21.4Zm.46,0h0l0,0,0,0-.1-.05v.05h0l-.06,0s0,0,0,0,0,0-.05,0l0,0s0,0,0,0,.06,0,.11,0,0,0,0,0,.07,0,.11,0v0l0,0h0s0,0,0,0h0s0,0,0,0h0l.08,0Zm.14.05h0s0,0,0,0-.07,0,0,0,0,0,0,0H17a.08.08,0,0,0,0,0,.05.05,0,0,0,.07,0h0S17-21.35,17-21.36Zm.27-.28h-.1s0,0,0,0l0,0Zm.1.27-.11-.06a.25.25,0,0,0,0,.07h.09s0,0,0,0,0,0,0,0h0l0,0Zm.18,0c0-.07-.06,0-.1,0a.19.19,0,0,0,0,.07s0,0,0,0l.06-.05h0Zm.14-.05h-.09l0,0,.09,0A.14.14,0,0,1,17.71-21.42Zm.41.07a.07.07,0,0,0,0,0c0-.06-.07,0-.13,0l0,0s-.05,0,0,0h0l0,0s.05,0,.05.06Zm.14-.31a0,0,0,0,0,0,0s.06,0,.06,0-.05,0-.06,0S18.26-21.67,18.26-21.66Zm0,.19s0,0,0,0a.1.1,0,0,0-.05,0l-.05.05.07,0,.05,0,0,0h0l.05,0h0s0,0,0,0S18.29-21.47,18.27-21.47Zm.15,0c0-.05,0,0-.07,0l-.05,0a.09.09,0,0,0,.11-.05Zm.2.23-.1-.06s0,0,0,0,.05,0,.07,0Zm.1,0a.1.1,0,0,1,0,0c0-.05-.08,0-.12,0h0v0h0s0,0-.06,0,0,0,0,0,0,0,0,0,0,0,0,0h0s0,0,0,0,0,0,.06.05Zm.38-.1c-.11,0-.1,0-.08,0s0,0,0,0,0,.06,0,.07S19-21.39,19.1-21.41Zm.09-.24h.09l-.06-.05h0s0,0,0-.05h0c0,.05,0,.05,0,.08Zm.09.24s-.07,0-.11,0h0l.09,0Zm0-.26,0,0-.08,0s0,0,0,0Zm.09.39h0l-.1,0h0C19.31-21.21,19.37-21.32,19.39-21.28Zm0,0h-.06l0,.06S19.41-21.22,19.41-21.24Zm.08-.49s0,0,0,.05,0,0,0,0h0s0,0,0,0S19.46-21.7,19.49-21.73Zm.62,0h-.05s0,0,0,0,0,0,0,0,0,0,0,0,0,0,.05,0A0,0,0,0,0,20.11-21.73Zm.24.19h0l-.06,0,0,0Zm0,.12-.06,0,0,0,.07.06Zm.43.05s0,0,0,0,0,.05,0,.07v0s0,0,0,0S20.84-21.36,20.83-21.37Zm.06-.07h-.11a0,0,0,0,0,0,0h.1Zm.08-.2h-.06l0,0,.06,0S20.93-21.64,21-21.64Zm.14,0h0a.11.11,0,0,1,0,.05s0,0,0,0A.21.21,0,0,0,21.11-21.62Zm.2.12,0,.06h0l.07-.05Zm.58,0s0,0,0,0l-.05,0a0,0,0,0,0,.07,0Zm0,0c0,.05.05,0,.09.05h0l-.09-.05Zm0,.14.05.05s0,0,0-.05l0,0Zm.13.09-.11-.05,0,.05H22Zm.49-.16s0,0,0,0l-.05,0s0,.06.07,0Zm.28.12s0,0,0,0a.1.1,0,0,1,0,0h0l0,0A.14.14,0,0,0,22.8-21.33Zm1.55,0-.07,0h0l.07,0S24.34-21.27,24.35-21.28Z" transform="translate(-0.07 21.8)"/><path class="cls-2" d="M22.82-21.22h0Z" transform="translate(-0.07 21.8)"/><path class="cls-2" d="M20.72-21.23Z" transform="translate(-0.07 21.8)"/><path class="cls-2" d="M20.72-21.23Z" transform="translate(-0.07 21.8)"/><polygon class="cls-2" points="13.6 0.04 13.6 0.04 13.6 0.04 13.6 0.04"/><path class="cls-2" d="M17-21.35s0,0,0,0h0Z" transform="translate(-0.07 21.8)"/><polygon class="cls-2" points="14.85 0.57 14.85 0.57 14.85 0.57 14.85 0.57"/><polygon class="cls-2" points="20.71 0.36 20.7 0.36 20.71 0.36 20.71 0.36 20.71 0.36"/><polygon class="cls-2" points="13.79 0.48 13.79 0.48 13.79 0.48 13.79 0.48 13.79 0.48"/><polygon class="cls-2" points="18.55 0.43 18.55 0.43 18.55 0.43 18.55 0.43"/><path class="cls-2" d="M13.94-21.51Z" transform="translate(-0.07 21.8)"/><polygon class="cls-2" points="13.41 0.54 13.41 0.54 13.41 0.54 13.41 0.54"/><polygon class="cls-2" points="16.2 0.68 16.2 0.68 16.2 0.68 16.2 0.68"/><path class="cls-2" d="M16-21.13h0s0,0,0,0h0l0,0h0v0h-.07v0h0a.07.07,0,0,1,.08.05s.06,0,.08,0l0,0v-.05Z" transform="translate(-0.07 21.8)"/><path class="cls-2" d="M13.09-21.23h0s-.07,0-.08,0a0,0,0,0,0,0,0v.06h.08Z" transform="translate(-0.07 21.8)"/><path class="cls-2" d="M16.11-21.1h0s0,0,0,0,0-.05,0,0v.05s.08,0,.13,0v0h0S16.11-21.16,16.11-21.1Z" transform="translate(-0.07 21.8)"/><path class="cls-2" d="M13.52-21.7h.12l-.15-.06,0,0S13.5-21.7,13.52-21.7Z" transform="translate(-0.07 21.8)"/><polygon class="cls-2" points="16.2 0.68 16.2 0.68 16.2 0.68 16.2 0.68"/><path class="cls-2" d="M16.25-21.15s-.06,0-.06,0,0,0,0,0h0c0,.05.07,0,.1,0S16.26-21.15,16.25-21.15Z" transform="translate(-0.07 21.8)"/><path class="cls-2" d="M15.1-21.75c0-.06-.06,0-.09,0h0l.07,0S15.11-21.73,15.1-21.75Z" transform="translate(-0.07 21.8)"/><path class="cls-2" d="M16.69-21.11l0,0-.05,0v0l0,0Z" transform="translate(-0.07 21.8)"/><path class="cls-2" d="M18.17-21.15l0,0s0,0,0,0,.06,0,.06,0S18.22-21.14,18.17-21.15Z" transform="translate(-0.07 21.8)"/><path class="cls-2" d="M15.21-21.72v0h0a0,0,0,0,0,0,0h0a0,0,0,0,1,0,0h0s0,0,0,0h0S15.17-21.72,15.21-21.72Z" transform="translate(-0.07 21.8)"/><path class="cls-2" d="M15.2-21.68h0Z" transform="translate(-0.07 21.8)"/><path class="cls-2" d="M17-21.17v0h0s0,0,0,0,0,0,0-.06S17.06-21.14,17-21.17Z" transform="translate(-0.07 21.8)"/><path class="cls-2" d="M24.31-21.23v0l.09,0h0S24.33-21.18,24.31-21.23Z" transform="translate(-0.07 21.8)"/><path class="cls-2" d="M20.48-21.17l-.06,0h0l.05,0Z" transform="translate(-0.07 21.8)"/><path class="cls-2" d="M19.23-21.16v.05h.05v0a.07.07,0,0,0,0,0Z" transform="translate(-0.07 21.8)"/><path class="cls-2" d="M21.28-21.17l0,0h.05s0,0,0,0Z" transform="translate(-0.07 21.8)"/><path class="cls-2" d="M22.7-21.24l-.06,0s.05,0,.07,0v0Z" transform="translate(-0.07 21.8)"/><path class="cls-2" d="M17.86-21.16s0,.06,0,.07,0,0,0,0,0,0,0,0S17.86-21.14,17.86-21.16Z" transform="translate(-0.07 21.8)"/><path class="cls-2" d="M13.59-21.74l.08,0h0S13.59-21.79,13.59-21.74Z" transform="translate(-0.07 21.8)"/><polygon class="cls-2" points="13.6 0.04 13.59 0.04 13.6 0.04 13.6 0.04"/><path class="cls-2" d="M13.67-21.76Z" transform="translate(-0.07 21.8)"/><path class="cls-2" d="M17-21.14Z" transform="translate(-0.07 21.8)"/><path class="cls-2" d="M17-21.18h0v0l0,.06v0S17-21.16,17-21.18Z" transform="translate(-0.07 21.8)"/><polygon class="cls-2" points="16.96 0.66 16.96 0.66 16.96 0.66 16.96 0.66"/><polygon class="cls-2" points="16.96 0.66 16.96 0.66 16.96 0.66 16.96 0.66"/><path class="cls-2" d="M20.72-21.23Z" transform="translate(-0.07 21.8)"/><path class="cls-2" d="M20.71-21.24s0,0,0,0a0,0,0,0,0,0,.05h0v0h0Z" transform="translate(-0.07 21.8)"/><polygon class="cls-2" points="20.64 0.57 20.64 0.57 20.64 0.57 20.64 0.57"/><path class="cls-2" d="M20.16-21.13h0A0,0,0,0,0,20.16-21.13Z" transform="translate(-0.07 21.8)"/><path class="cls-2" d="M14.69-21.34s0,0,0,0,0-.06-.06,0l.05,0S14.69-21.33,14.69-21.34Z" transform="translate(-0.07 21.8)"/><path class="cls-2" d="M14.43-21.42s0,0,0,0l0,0-.06,0S14.44-21.43,14.43-21.42Z" transform="translate(-0.07 21.8)"/><path class="cls-2" d="M24.88-21.64h0v0Z" transform="translate(-0.07 21.8)"/><path class="cls-1" d="M26.54-21.33l0,0s0,0,0,0h-.16a0,0,0,0,0,0,0h0s-.05,0,0,.05h0l-.12,0h0s0,0,0,0-.05,0,0-.06h0a0,0,0,0,0,0,0h0v0l0,0h0v0s0,0-.06,0v-.08l0,0c.07,0,.1,0,.15,0h0v0h0s.05,0,0,0,0,0,0,0h0l0,0s.06,0,.07,0,.08,0,.12,0,.05,0,.08,0,0,0,0,0,0,0,0,0l0,0s0,0,0,0-.05,0-.07,0S26.54-21.35,26.54-21.33Zm-.12-.09-.06,0v0s0,0,0,0Zm.1,0,0,0s0,0,.05,0,0,0,0,0S26.55-21.44,26.52-21.39Z" transform="translate(-0.07 21.8)"/><path class="cls-1" d="M25.78-21.28v0a0,0,0,0,0,0,0h0l0-.08S25.74-21.3,25.78-21.28Z" transform="translate(-0.07 21.8)"/><path class="cls-1" d="M26-21.27s.06-.05,0-.08,0,0,0,0v0s0,0,0,0,0,0,0,0,0,0,0,0l.07,0v0H26Z" transform="translate(-0.07 21.8)"/><path class="cls-1" d="M26.28-21.23v.08l.06-.07a0,0,0,0,0,0,0S26.32-21.17,26.28-21.23Z" transform="translate(-0.07 21.8)"/><path class="cls-1" d="M26-21.4h0c.05,0,.08,0,0,0h0s0,0,0,0l0,0s0-.05-.05,0,0,0-.06,0-.05,0,0,0-.13,0-.2,0,0,0,0,0a0,0,0,0,0,0,0s0,0,0,0h0s0,0,0,0,0,0,0,0h.07l0,0h0l.05,0c0-.05,0,0,0-.07s.05-.05.1-.06h.13v0h0c-.05,0-.06.05-.11,0h0s0,0,0,0,0-.05,0,0,.05,0,.07,0a0,0,0,0,0,0,0s.06,0,0,0h0v0S26-21.39,26-21.4Z" transform="translate(-0.07 21.8)"/><path class="cls-1" d="M26.19-21.28l0,0,0,0c0-.05,0,0-.05,0s0,0,0,0,0,0,0,0a0,0,0,0,1,0,0h0s0,0,0,0,0,0,0,0a.06.06,0,0,0,.07,0S26.19-21.23,26.19-21.28Z" transform="translate(-0.07 21.8)"/><path class="cls-1" d="M26.69-21.26h0l0,0a.1.1,0,0,1,0,0s-.07,0-.06,0h0s0,0,0,0,0,0,0,0h.05s0,0,0,0,.05,0,.05,0,.08-.07.14-.08S26.73-21.21,26.69-21.26Z" transform="translate(-0.07 21.8)"/><path class="cls-1" d="M27.38-21.33c.05,0,.1,0,.15,0l0,0v0h0s-.07,0-.1,0,0,0,0,0,0,0,0,0l-.06,0h0v0l0,0h0l0,0,0,0,0,0h0s0,0,0,0,0-.05,0-.08,0,0,0,0,0,.11,0,.16Z" transform="translate(-0.07 21.8)"/><path class="cls-1" d="M27.46-21.22s-.05-.05-.07,0,0,0,0,0l-.05,0v0s0,.07-.05.06h0s.07,0,.1,0,0,.05.08,0h0c0,.05,0,0-.06,0s0,0,0,0h.06l.05,0S27.51-21.21,27.46-21.22Z" transform="translate(-0.07 21.8)"/><path class="cls-1" d="M27.68-21.23a.09.09,0,0,1-.1,0s0,0-.07,0l0,0h.06a.08.08,0,0,1,.07.05l0,0h0s0,0,0,0,.07,0,.07,0l0,0Z" transform="translate(-0.07 21.8)"/><path class="cls-1" d="M25.85-21.2v0l0,0h0c0-.06,0,0,0,0h-.07A0,0,0,0,0,25.85-21.2Z" transform="translate(-0.07 21.8)"/><path class="cls-1" d="M27.07-21.33h0c0-.07-.06-.08-.12-.09h0l.1.07s0,.05,0,.08l0,0s0,0-.06,0l.06,0h.07s.06,0,0,.05,0,0,0,0,0,0,0,0,0,0,0,0,0,0,0,0,0-.08,0-.09,0,0,0,0l0,0S27.05-21.38,27.07-21.33Z" transform="translate(-0.07 21.8)"/><path class="cls-1" d="M26.85-21.44s0,0,0,0,0,0,0,0,0,0,0,0A.07.07,0,0,0,26.85-21.44Z" transform="translate(-0.07 21.8)"/><path class="cls-1" d="M27.08-21.4s0,0,0,0,0,0,.07,0v0h0s0-.06,0-.09l0,0S27.07-21.46,27.08-21.4Z" transform="translate(-0.07 21.8)"/><path class="cls-1" d="M25.45-21.36l0,0a0,0,0,0,0,0,0l0,0Z" transform="translate(-0.07 21.8)"/><path class="cls-1" d="M33.19-21.29c0-.06.08,0,.11,0v0h0v0s0-.07,0-.08h-.14s-.12,0-.12.08Z" transform="translate(-0.07 21.8)"/><path class="cls-1" d="M25.56-21.23h0c-.05,0-.09-.07-.15-.05h0s0,0,0,0l.16,0s0,0,0,0h0v0Z" transform="translate(-0.07 21.8)"/><path class="cls-1" d="M26.51-21.66h.08s0-.06-.06-.06S26.56-21.67,26.51-21.66Z" transform="translate(-0.07 21.8)"/><path class="cls-1" d="M24.9-21.62s0,0,0,0h0v0S24.89-21.63,24.9-21.62Z" transform="translate(-0.07 21.8)"/><path class="cls-1" d="M24.94-21.4c.06,0,.11,0,.16,0h0l.05,0s0,0-.05,0,0,0,0,0v0s-.09,0-.14,0h0s0,0,0,0a0,0,0,0,0,0,0h0c0,.06,0,0,0,0v.05S24.92-21.39,24.94-21.4Z" transform="translate(-0.07 21.8)"/><path class="cls-1" d="M31.06-21.24v0h0v0s0,0,0-.06h0l0,0s0,0,0,0h0a.14.14,0,0,0,0,0s0,0,0,0,0,0,0,0,0,0,0,0-.06,0,0,.06a.08.08,0,0,0,0,0s0,0,0,0h0l0,0h0s0,0,0,0,0,.07,0,.08l0-.05Z" transform="translate(-0.07 21.8)"/><path class="cls-1" d="M25.24-21.4v0h.09l0,0Z" transform="translate(-0.07 21.8)"/><path class="cls-1" d="M25.33-21.24h0a.05.05,0,0,0,0,0S25.34-21.27,25.33-21.24Z" transform="translate(-0.07 21.8)"/><path class="cls-1" d="M25.86-21.51Z" transform="translate(-0.07 21.8)"/><path class="cls-1" d="M25.23-21.35l0,0,0,0,0,0h0s0,0,0,0Z" transform="translate(-0.07 21.8)"/><path class="cls-1" d="M25.24-21.43l0,0s-.09,0-.12,0l0,0S25.22-21.49,25.24-21.43Z" transform="translate(-0.07 21.8)"/><path class="cls-1" d="M25.93-21.48h0a.08.08,0,0,0-.09,0S25.91-21.5,25.93-21.48Z" transform="translate(-0.07 21.8)"/><path class="cls-1" d="M28-21.39H28v0H28v0h0s-.08,0-.11,0l0,0h0l0,0h0s0,0,0,0,0,0,0,0-.06,0-.07,0l-.06,0h0c.07,0,.07,0,.09,0a.19.19,0,0,1,.18,0S28-21.39,28-21.39Z" transform="translate(-0.07 21.8)"/><path class="cls-1" d="M26.84-21.23h0s0,0,0,0,0,0,0,0h.08v0a.07.07,0,0,0,0-.05S26.85-21.22,26.84-21.23Z" transform="translate(-0.07 21.8)"/><path class="cls-1" d="M32.24-21.55l-.05,0,0,0,.06,0Z" transform="translate(-0.07 21.8)"/><path class="cls-1" d="M32-21.74l0,0s0,0,0,0,0,0,0,0,0,0,0,0a0,0,0,0,0,0-.05Z" transform="translate(-0.07 21.8)"/><path class="cls-1" d="M32.25-21.46l0,0,.08.06,0,0Z" transform="translate(-0.07 21.8)"/><path class="cls-1" d="M32.74-21.37s0,0,0,0,0,.05,0,.07,0,0,0,0,0,0,0,0S32.75-21.36,32.74-21.37Z" transform="translate(-0.07 21.8)"/><path class="cls-1" d="M32.7-21.44Z" transform="translate(-0.07 21.8)"/><path class="cls-1" d="M31.4-21.73s0,0,0,.05,0,0,0,0h0s0,0,0,0S31.37-21.7,31.4-21.73Z" transform="translate(-0.07 21.8)"/><path class="cls-1" d="M28-21.38l0,0s0,0,0-.06h0Z" transform="translate(-0.07 21.8)"/><path class="cls-1" d="M31.09-21.41h0l.1,0v0S31.12-21.45,31.09-21.41Z" transform="translate(-0.07 21.8)"/><path class="cls-1" d="M31.19-21.64l-.06-.05h0s0,0,0-.05h0c0,.05,0,.05,0,.08h.13Z" transform="translate(-0.07 21.8)"/><path class="cls-1" d="M31.22-21.67l0,0-.08,0s.05,0,0,0Z" transform="translate(-0.07 21.8)"/><path class="cls-1" d="M31.31-21.28h0l-.1,0h0C31.23-21.21,31.28-21.32,31.31-21.28Z" transform="translate(-0.07 21.8)"/><path class="cls-1" d="M33.9-21.47h0l-.09-.05h0C33.82-21.47,33.86-21.48,33.9-21.47Z" transform="translate(-0.07 21.8)"/><path class="cls-1" d="M33.82-21.29H34l-.11-.05Z" transform="translate(-0.07 21.8)"/><path class="cls-1" d="M34.39-21.49l0,0s0,.06.07,0l0,0Z" transform="translate(-0.07 21.8)"/><path class="cls-1" d="M33.88-21.38l-.05,0v0l0,.05Z" transform="translate(-0.07 21.8)"/><path class="cls-1" d="M34.68-21.35v0h0l.05,0s0,0,0-.06S34.7-21.32,34.68-21.35Z" transform="translate(-0.07 21.8)"/><path class="cls-1" d="M32.8-21.45h-.1v0h.09a0,0,0,0,0,0,0Z" transform="translate(-0.07 21.8)"/><path class="cls-1" d="M36.17-21.29l.06,0s0,0,0,0l-.07,0Z" transform="translate(-0.07 21.8)"/><path class="cls-1" d="M32.79-21.63l.06,0s0-.05,0-.05h-.06Z" transform="translate(-0.07 21.8)"/><path class="cls-1" d="M30.94-21.45l0,0c-.05,0,0,.06,0,.07s.05,0,.13,0C30.91-21.39,30.91-21.41,30.94-21.45Z" transform="translate(-0.07 21.8)"/><path class="cls-1" d="M33-21.61v.05s0,0,0,0,0-.05,0-.07Z" transform="translate(-0.07 21.8)"/><path class="cls-1" d="M33.72-21.48a0,0,0,0,0,.07,0h0s0,0,0,0Z" transform="translate(-0.07 21.8)"/><path class="cls-1" d="M33.23-21.5l-.06.06h0l.06-.05S33.25-21.5,33.23-21.5Z" transform="translate(-0.07 21.8)"/><path class="cls-1" d="M31.28-21.25h0l0,.06a.14.14,0,0,0,0-.06Z" transform="translate(-0.07 21.8)"/><path class="cls-1" d="M28.82-21.39l0,0-.11-.05v.05h0l-.06,0,0,0c0,.08,0,0,0,0a0,0,0,0,1,0,0,.23.23,0,0,0,0,0s.07,0,.11,0,0,0,0,0,.07,0,.1,0v0a0,0,0,0,0,0,0h0s0,0,0,0h0s0,0,0,0h0l.08,0v0h0Z" transform="translate(-0.07 21.8)"/><path class="cls-1" d="M29.39-21.36a.21.21,0,0,0,0,.07s0,0,0,0l.05-.05h0l0,0C29.44-21.44,29.42-21.33,29.39-21.36Z" transform="translate(-0.07 21.8)"/><path class="cls-1" d="M29.11-21.64l0,0,0,0,.08-.05Z" transform="translate(-0.07 21.8)"/><path class="cls-1" d="M28.91-21.37s-.07,0,0,0,0,0,0,0h-.07a.06.06,0,0,0,0,0s0,0,.07,0Z" transform="translate(-0.07 21.8)"/><path class="cls-1" d="M29.16-21.36h.09s0,0,0,0v0h0v0l0-.08-.11-.06Z" transform="translate(-0.07 21.8)"/><path class="cls-1" d="M30.19-21.47s0,0,0,0l-.05,0,0,.05.07,0,0,0,0,0h0l0,0h0s0,0,0,0S30.2-21.47,30.19-21.47Z" transform="translate(-0.07 21.8)"/><path class="cls-1" d="M29.51-21.4l.09,0a.14.14,0,0,1,0,0h-.09Z" transform="translate(-0.07 21.8)"/><path class="cls-1" d="M30.19-21.64s.07,0,.07,0-.06,0-.07,0,0,0,0,0S30.19-21.64,30.19-21.64Z" transform="translate(-0.07 21.8)"/><path class="cls-1" d="M29.9-21.41s0,0,0,0,0,0,0,0h0l.05,0s.05,0,0,.06h0s0,0,0,0S30-21.41,29.9-21.41Z" transform="translate(-0.07 21.8)"/><path class="cls-1" d="M30.48-21.35s0,0,0,0,0,0,0,0,0,0,0,0S30.49-21.37,30.48-21.35Z" transform="translate(-0.07 21.8)"/><path class="cls-1" d="M30.27-21.49s0,0-.05,0a.09.09,0,0,0,.11-.05h0C30.3-21.55,30.3-21.49,30.27-21.49Z" transform="translate(-0.07 21.8)"/><path class="cls-1" d="M30.43-21.28s.06,0,.07,0h0l-.09-.06S30.43-21.29,30.43-21.28Z" transform="translate(-0.07 21.8)"/><path class="cls-1" d="M28.28-21.38h-.05s.05,0,.08,0l0,0S28.29-21.4,28.28-21.38Z" transform="translate(-0.07 21.8)"/><path class="cls-1" d="M28.16-21.7h0l-.06,0s0,0,0,0h0s.06,0,.06,0,0,0,.05,0,0,0,0-.05l-.05,0Z" transform="translate(-0.07 21.8)"/><path class="cls-1" d="M30.65-21.34c0-.05-.09,0-.12,0h0v0s0,0,0,0,.05,0,.07.05v0Z" transform="translate(-0.07 21.8)"/><polygon class="cls-2" points="30.92 0.58 30.92 0.59 30.92 0.59 30.92 0.59 30.92 0.58"/><polygon class="cls-2" points="27.04 0.43 27.04 0.43 27.04 0.43 27.04 0.43"/><polygon class="cls-2" points="33.06 0.51 33.06 0.51 33.06 0.51 33.06 0.51"/><path class="cls-2" d="M36.79-21.3v.07l0-.05h0v0l0,.08s0,0,0,0,0,0,0,0-.09,0-.12,0,0-.07-.08,0v0s0,0,0,0,0,0-.08,0h0v0c0,.05-.07,0-.11,0a.18.18,0,0,1-.09,0h0s0,0,0,0,0,0,0,.05-.07,0-.11,0-.09,0-.14,0,0,0,0,0-.07,0,0-.08v0h0c-.06,0,0,0,0,0s-.09,0-.08.07h0s0,0,0,0h-.08s0,.07,0,0h-.07a0,0,0,0,1,0,0c0-.06-.07,0-.09-.08a0,0,0,0,0,0,0l0,.06s0,0,0,0-.09,0-.1,0,0,0,0,0l-.08,0h0c0,.12-.07,0-.11,0a.17.17,0,0,0-.1,0s0,0-.07,0h0s-.05,0,0,0-.05,0,0,0l-.11,0-.14.05h0l0,0v0a0,0,0,0,0,0,0s0-.05-.06,0l0,0h0s0,0,0,0,0,0,0,0-.09,0-.11,0-.1,0-.14,0h0a0,0,0,0,0,0,0s0,0,0,0h0s0,0-.07,0-.08-.06-.13,0a.08.08,0,0,1-.08,0s-.05,0-.07,0l-.07,0,0,0s0,0,0,0-.1,0-.15,0a.57.57,0,0,1-.19,0s0,0,0,0l-.16,0h0v0h0l-.05,0s0,0,0,0h.06c0-.06.08,0,.11,0v0h0v0s0-.07,0-.08h-.14s-.12,0-.12.08h0c-.05,0,0,0,0,.05a0,0,0,0,1-.06,0h0c0,.07-.1,0-.12.05s0,0,0,0,0,0-.08,0-.06,0-.07.07h0l0-.05s0,0,0,0h0a.13.13,0,0,0,0-.06s0,0,0,0v0s0,0,0,.06,0,0,0,0-.06,0-.07,0,0,0,0,0h0s0,.06-.06,0a0,0,0,0,0,0,0h0l-.07-.05h0l0,0a0,0,0,0,0,0,0s0,0,0,0,0,0-.09,0h0s0,0,0,0h0a0,0,0,0,0,0,0s-.08,0-.12,0H32v0h0s-.05,0,0-.05h0v0s0,0,0,.05v0l0,0h0v0s-.07,0-.11,0,0,0,0,0,0,0,0,0,0,0,0,0h0l0,0a.2.2,0,0,1,0-.07s0,0,0,0,0,0,0,0l0,0h0s0,0,0,0,0,0,0,0v0l0,0s-.05,0-.05,0l0,0v0h0s0,0,0,0l-.07,0h0s0,0,0,0h0l0,0s0,0,0,0-.11,0-.13.07h0v0l0-.05h0c0,.05-.12,0-.1.06s0,0,0,0H31l0,0s0,0,0-.05,0,0,0,0v.06h0s0,0-.05,0,0,0,0,0h0l0-.05,0,0v0h0v0s0,0,0-.06h0l0,0s0,0,0,0h0a.14.14,0,0,0,0,0s0,0,0,0,0,0,0,0,0,0,0,0-.06,0,0,.06a.08.08,0,0,0,0,0s0,0,0,0h0l0,0h0s0,0,0,0,0,.07,0,.08h0s0,0,0,0,0,0-.06.05h0s-.05,0-.06,0-.12,0-.11-.07c0,.08,0,0,0,0h0v0c.05,0,0,0,0,0s0,0-.06,0h-.12s0,0,0,.06-.05-.05-.09,0,0,0,0,0,0,0,0,0,0,0-.05,0-.08,0-.12,0,0,0,0,0v0s-.06,0-.08,0-.06,0-.08,0a0,0,0,0,1,0,0s0,0,0,0h0s0-.07-.06-.06,0-.06,0,0,0,.06,0,.09h0s-.05,0-.06,0v0h0s-.07,0-.1,0-.08,0-.11,0h0c-.07,0-.15,0-.23,0h-.11s0,0-.07.05v0s-.05,0,0,0l0,0h0v0l0,0s0,0,0,0,0,0,0,0,0,0,0,0h-.3c0,.07-.05,0-.07,0h0c0-.08-.06,0-.1-.05v0h0l0,0,0,0,0-.06v0h0s0,0-.06,0h-.06l-.16,0h0l0,0h0a.06.06,0,0,1-.08,0s0,0,0,0,0,0,.07,0h0v0s0,0-.06,0-.05,0,0,0h0c-.07-.09-.17,0-.26-.05s-.07,0-.11,0,0,0,0,0,0,0,0,0,0,.05,0,.09,0,0,0,0h0v0l0,0s0,0,0,0h0s0,0,0,0h0c0-.07-.05,0-.08,0s-.08,0-.12,0-.1,0-.14,0l-.06,0s0,0-.06,0,0,0,0,0,0,0,0,0,0,0,0,0l0,0,0,0a.08.08,0,0,0,0,0,.59.59,0,0,1-.14,0s-.06,0-.09,0-.06,0-.1,0-.09,0-.14,0h0s0-.05,0,0h0l-.05,0v0l-.08,0s0,0-.05,0H26a.21.21,0,0,0-.11,0,.53.53,0,0,1-.25,0,.59.59,0,0,1-.13,0s-.06,0-.08,0-.1,0-.15,0,0,0-.06,0-.05,0-.07,0h-.08L25-21.31h0c0,.08,0,0-.07,0v-.12s0,0,.05,0,.11,0,.16,0h0l.05,0s0,0-.05,0,0,0,0,0v0s-.09,0-.14,0h0s0,0,0,0a0,0,0,0,0,0,0h0c0,.06,0,0,0,0v-.14s0,0,0,0,0,0,0,0h0v0h0s.07,0,.05,0,0,0,0,0h0s0,0,0,0v0s0,0,0,0,0,0,.05,0,0,0,0,0,.06,0,.07,0h0s0-.06,0,0l0,0c.06-.05,0,0,0,0s0,0,0,0h0v0h0s0,0,0,0a.47.47,0,0,0,.17,0s0,0,0,0h0s-.06,0-.05,0,.06,0,.07,0,.09.06.11,0h0s0,0-.07,0h.11s0,0,0,0l0,0h.05l0,0h0l0,0c.05,0,.08,0,.11,0a.33.33,0,0,1,.3.06c0,.05,0,0,0,0s.06,0,.06,0,.05,0,.06,0,.06,0,.1,0h0c0,.07.06-.05.08,0s.08.07.09,0c0,.06.06,0,.07.06h0a0,0,0,0,0,0,0l0,0v0h.08s0,0,0,.06h.07v0s0,0,0,0,.05-.06.08,0h0s0,0,0,0l.05,0,0,0h0s.07,0,.11,0h0l.07-.07h0s.05,0,0,0l0,0v0s0,0,0,0h.1v0s0,0,0,0h0v0s0,0,.06,0,.05,0,0-.07,0,0,0,0,.07,0,.07,0,.06,0,.08,0h0l0,0v0h0l0,0h0l0,0v.05h.07s0,0,0,0h0s0,0,.05,0h.14a0,0,0,0,0,0,0s0-.05,0-.07l.05,0,0,0h0v-.06h0l.13.07c0-.1,0,0,.07,0s0,0,0,0,.09,0,.14,0a.34.34,0,0,1,.14,0l0,0h0v0l.07,0,0,0s0,0,.06,0h0s0,0,0,0v0l0,0,0,0,0,0s0,0,0,0v0s0,0,.05,0,0,0,0,0,0,0,0,0h0l.05,0,0,0h.06s0-.08,0-.05,0,0,0,0h0s-.08,0,0-.08,0,0,0,.05h0v0l0,0h0v-.05h0s.07,0,.09,0h0l0,0H29s-.05,0,0,.07,0,0,0,0v0s.05,0,.07,0,.06,0,0,0h.06v0h0a.05.05,0,0,1,.09,0v0h0s0,0,0,0,0,0,0,0h0l.05,0h0s0,0,0,0l0,0h.05s0,0,0-.05,0-.07.08-.08,0,0,0,0h0c0-.06.09,0,.1-.05h0s.05,0,0,0h.22a.57.57,0,0,0,.13,0,.48.48,0,0,1,.31,0s.09,0,.14,0,.08,0,.1,0,.08,0,.13,0,.1,0,.14,0a.11.11,0,0,1,.11.07h0v0h.05v0s0,0,0,0,.05,0,0,0H31s0,0,0,0,.1,0,.15,0,.06,0,.08,0,0,0,0,0l0,0s-.05,0,0,0a.19.19,0,0,1,.16,0l0,0v-.05s0,0,0,0,0,0,0,0,0,0,0,0h0l0,0h.08l0,0s0,0,0,0,0-.05,0,0,0,0,.05,0,0,0,0,0,0,0,.07,0,0,0,0,0,0,0,0,0,0-.06.09,0,.06,0,.1,0,.11,0,.13,0h0c0-.05,0,0,.05,0s0,0,.09,0h.24s.08,0,.12,0h0l.1,0s0,0,0,0a2.26,2.26,0,0,0,.26,0h.24s0,0,0,0,.1.05.14,0l.06,0a.06.06,0,0,0,.07,0,.59.59,0,0,1,.23,0H34v.05s0,0,0-.06h0l0,0a0,0,0,0,0,0,0,.14.14,0,0,1,.09,0,.65.65,0,0,1,.14,0,2.09,2.09,0,0,0,.25,0,.87.87,0,0,1,.23,0s.08,0,.12,0,0,0,.07,0,0,0,.08,0,.14,0,.21,0,.05,0,.08,0,0,0,0,0a.31.31,0,0,1,.23,0s0,0,.07,0l0,0,.12,0H36a1.7,1.7,0,0,0,.39,0c0,.06,0,0,0,0h0l0,0h0l.09,0h0l.13,0h0s0,0,0,0Zm-10.28-.36h.08s0-.06-.06-.06S26.56-21.67,26.51-21.66Zm-.67.16h0s.05,0,.07,0h0a.08.08,0,0,0-.09,0h0Zm-.46.14,0,0,0,0,0,0A0,0,0,0,0,25.38-21.36Zm-.14-.07,0,0s-.09,0-.12,0l0,0S25.22-21.49,25.24-21.43Zm0,.1v0l0,0,0,0,0,0h0S25.26-21.3,25.24-21.33Zm.08,0,0,0h-.11v0Zm.29.15h-.06c-.05,0-.09-.07-.15-.05h0s-.06,0-.07,0h0a.05.05,0,0,0,0,0h0s0,0,0,0l.16,0s0,0,0,0h0Zm.33,0h-.08a0,0,0,0,0,0,0v0l0,0h0c0-.06,0,0,0,0Zm0-.17v0s0,0,0,0h0c.05,0,.08,0,0,0h0s0,0,0,0l0,0s0-.05-.05,0,0,0-.06,0-.05,0,0,0-.13,0-.2,0,0,0,0,0a0,0,0,0,0,0,0s0,0,0,0h0s0,0,0,0,0,0,0,0h.07l0,0h0l.05,0c0-.05,0,0,0-.07s.05-.05.1-.06h.13v0h0c-.05,0-.06.05-.11,0h0s0,0,0,0h0s0,0,0,0v0a0,0,0,0,0,0,0h0l0-.08h0s0-.05,0,0,.05,0,.07,0a0,0,0,0,0,0,0s.06,0,0,0Zm.12.11H26s.06-.05,0-.08,0,0,0,0v0s0,0,0,0,0,0,0,0,0,0,0,0l.07,0Zm.12,0,0,0,0,0c0-.05,0,0-.05,0s0,0,0,0,0,0,0,0a0,0,0,0,1,0,0h0s0,0,0,0,0,0,0,0a.06.06,0,0,0,.07,0S26.19-21.23,26.19-21.28Zm.14,0s0,.08,0,0v.08l.06-.07A0,0,0,0,0,26.33-21.25Zm.21-.08s0,0,0,0,.06.08.07,0,0,0,0,0l0,0s0,0,0,0,0,0,0,0-.06,0-.08,0-.09,0-.12,0-.05,0-.07,0l0,0h0s0,0,0,0,0,0,0,0h0v0h0c-.05,0-.08.07-.15,0l0,0v.08s0,0,.06,0v0h0l0,0v0h0a0,0,0,0,1,0,0h0s0,0,0,.06,0,0,0,0h0l.12,0h0s.05,0,0-.05h0a0,0,0,0,1,0,0h.16s0,0,0,0Zm.34.15a.07.07,0,0,0,0-.05s0,0,0,0h0c0-.07-.11,0-.15,0h0l0,0a.1.1,0,0,1,0,0s-.07,0-.06,0h0s0,0,0,0,0,0,0,0h.05s0,0,0,0,.05,0,.05,0,.08-.07.14-.08h0s0,0,0,0,0,0,0,0h.08Zm0-.25a.07.07,0,0,0-.06,0s0,0,0,0,0,0,0,0S26.88-21.42,26.91-21.43Zm.26,0,0,0s-.08,0-.07.05,0,0,0,0,0,0,.07,0h0s-.07,0-.05,0h0c0-.07-.06-.08-.12-.09h0l.1.07s0,.05,0,.08l0,0s0,0-.06,0l.06,0h.07s.06,0,0,.05,0,0,0,0,0,0,0,0,0,0,0,0,0,0,0,0,0-.08,0-.09,0,0,0,0l0,0h0v0h0S27.16-21.44,27.17-21.47Zm.11.16.1,0c.05,0,.1,0,.15,0l0,0v0h0s-.07,0-.1,0,0,0,0,0,0,0,0,0l-.06,0h0v0l0,0h0l0,0,0,0,0,0h0s0,0,0,0,0-.05,0-.08,0,0,0,0S27.29-21.36,27.28-21.31Zm.22.16s0-.06,0-.07-.05-.05-.07,0,0,0,0,0l-.05,0v0s0,.07-.05.06h0s.07,0,.1,0,0,.05.08,0h0c0,.05,0,0-.06,0s0,0,0,0h.06Zm.21-.06,0,0h0a.09.09,0,0,1-.1,0s0,0-.07,0l0,0h.06a.08.08,0,0,1,.07.05l0,0h0s0,0,0,0S27.71-21.18,27.71-21.21Zm.33-.18H28v0H28v0h0s-.08,0-.11,0l0,0h0l0,0h0s0,0,0,0,0,0,0,0-.06,0-.07,0l-.06,0h0c.07,0,.07,0,.09,0a.19.19,0,0,1,.18,0S28-21.39,28-21.39Zm.05,0h0l-.06,0,0,0S28.09-21.38,28.09-21.4Zm.12-.29-.05,0v0h0l-.06,0s0,0,0,0h0s.06,0,.06,0,0,0,.05,0S28.2-21.67,28.21-21.69Zm.13.29s-.05,0-.06,0h-.05s.05,0,.08,0Zm.46,0h0l0,0,0,0-.11-.05v.05h0l-.06,0,0,0c0,.08,0,0,0,0a0,0,0,0,1,0,0,.23.23,0,0,0,0,0s.07,0,.11,0,0,0,0,0,.07,0,.1,0v0a0,0,0,0,0,0,0h0s0,0,0,0h0s0,0,0,0h0l.08,0Zm.14.05h0l0,0s-.07,0,0,0,0,0,0,0h-.07a.06.06,0,0,0,0,0s0,0,.07,0h0Zm.26-.28h-.09l0,0,0,0Zm.1.27-.11-.06,0,.07h.09s0,0,0,0v0h0v0Zm.18,0c0-.07-.06,0-.09,0a.21.21,0,0,0,0,.07s0,0,0,0l.05-.05h0Zm.14-.05h-.09l0,0,.09,0A.14.14,0,0,1,29.62-21.42Zm.42.07s0,0,0,0-.07,0-.12,0,0,0,0,0,0,0,0,0h0l.05,0s.05,0,0,.06Zm.13-.31s0,0,0,0,.07,0,.07,0-.06,0-.07,0S30.17-21.67,30.17-21.66Zm0,.19s0,0,0,0l-.05,0,0,.05.07,0,0,0,0,0h0l0,0h0s0,0,0,0S30.2-21.47,30.19-21.47Zm.15,0c0-.05,0,0-.07,0s0,0-.05,0a.09.09,0,0,0,.11-.05Zm.19.23-.09-.06s0,0,0,0,.06,0,.07,0Zm.1,0,0,0c0-.05-.09,0-.12,0h0v0h0s0,0-.05,0,0,0,0,0,0,0,0,0,0,0,0,0h0s0,0,0,0,.05,0,.07.05Zm.38-.1c-.1,0-.1,0-.07,0l0,0c-.05,0,0,.06,0,.07S30.93-21.39,31-21.41Zm.1-.24h.08l-.06-.05h0s0,0,0-.05h0c0,.05,0,.05,0,.08Zm.08.24s-.07,0-.1,0h0l.1,0Zm0-.26,0,0-.08,0s.05,0,0,0Zm.09.39h0l-.1,0h0C31.23-21.21,31.28-21.32,31.31-21.28Zm0,0h-.06l0,.06A.14.14,0,0,0,31.33-21.24Zm.07-.49s0,0,0,.05,0,0,0,0h0s0,0,0,0S31.37-21.7,31.4-21.73Zm.62,0H32l0,0s0,0,0,0,0,0,0,0,0,0,0,0A0,0,0,0,0,32-21.73Zm.25.19h0l-.05,0,0,0Zm0,.12-.07,0,0,0,.08.06Zm.42.05s0,0,0,0,0,.05,0,.07,0,0,0,0,0,0,0,0S32.75-21.36,32.74-21.37Zm.06-.07h-.1v0h.09A0,0,0,0,0,32.8-21.44Zm.08-.2h-.06l0,0,.06,0S32.84-21.64,32.88-21.64Zm.15,0h0v.05s0,0,0,0S33-21.6,33-21.62Zm.2.12-.06.06h0l.06-.05S33.25-21.5,33.23-21.5Zm.58,0s0,0,0,0l-.05,0a0,0,0,0,0,.07,0Zm0,0c0,.05,0,0,.08.05h0l-.09-.05Zm0,.14,0,.05,0-.05-.05,0Zm.13.09-.11-.05,0,.05H34Zm.49-.16,0,0,0,0s0,.06.07,0Zm.28.12s0,0,0,0v0h0l.05,0S34.72-21.31,34.72-21.33Zm1.54,0-.07,0h0l.06,0S36.25-21.27,36.26-21.28Z" transform="translate(-0.07 21.8)"/><path class="cls-2" d="M34.74-21.22Z" transform="translate(-0.07 21.8)"/><path class="cls-2" d="M32.63-21.23Z" transform="translate(-0.07 21.8)"/><polygon class="cls-2" points="32.56 0.57 32.56 0.57 32.56 0.57 32.56 0.57"/><polygon class="cls-2" points="25.51 0.04 25.51 0.04 25.51 0.04 25.51 0.04"/><path class="cls-2" d="M28.93-21.35h0Z" transform="translate(-0.07 21.8)"/><polygon class="cls-2" points="26.76 0.57 26.76 0.57 26.77 0.57 26.76 0.57"/><polygon class="cls-2" points="32.62 0.36 32.62 0.36 32.62 0.36 32.62 0.36 32.62 0.36"/><polygon class="cls-2" points="25.71 0.48 25.71 0.48 25.71 0.48 25.71 0.48 25.71 0.48"/><polygon class="cls-2" points="30.46 0.43 30.46 0.43 30.46 0.43 30.46 0.43"/><path class="cls-2" d="M25.86-21.51Z" transform="translate(-0.07 21.8)"/><polygon class="cls-2" points="25.32 0.54 25.32 0.54 25.32 0.54 25.32 0.54"/><polygon class="cls-2" points="28.11 0.68 28.11 0.68 28.11 0.68 28.11 0.68"/><path class="cls-2" d="M27.87-21.13h0l0,0h0a0,0,0,0,1,0,0h0v0h-.07v0a0,0,0,0,0,0,0s.06,0,.08.05.05,0,.08,0v-.07Z" transform="translate(-0.07 21.8)"/><path class="cls-2" d="M25-21.23h0s-.08,0-.09,0,0,0,0,0v.06H25Z" transform="translate(-0.07 21.8)"/><path class="cls-2" d="M28-21.1h0s0,0,0,0,0-.05,0,0v.05c.05,0,.09,0,.13,0v0h0S28-21.16,28-21.1Z" transform="translate(-0.07 21.8)"/><path class="cls-2" d="M25.44-21.7h.12l-.15-.06,0,0S25.42-21.7,25.44-21.7Z" transform="translate(-0.07 21.8)"/><polygon class="cls-2" points="28.11 0.68 28.11 0.68 28.11 0.68 28.11 0.68"/><path class="cls-2" d="M28.17-21.15s-.06,0-.07,0,0,0,0,0h0c0,.05.07,0,.1,0Z" transform="translate(-0.07 21.8)"/><path class="cls-2" d="M27-21.75c0-.06-.07,0-.1,0h0l.07,0S27-21.73,27-21.75Z" transform="translate(-0.07 21.8)"/><path class="cls-2" d="M28.61-21.11l0,0,0,0,0,0,0,0Z" transform="translate(-0.07 21.8)"/><path class="cls-2" d="M30.08-21.15l0,0s0,0,0,0,.06,0,.07,0S30.13-21.14,30.08-21.15Z" transform="translate(-0.07 21.8)"/><path class="cls-2" d="M27.13-21.72v0h0s0,0,0,0h0s0,0,0,0h0s0,0,0,0h0S27.08-21.72,27.13-21.72Z" transform="translate(-0.07 21.8)"/><path class="cls-2" d="M27.12-21.68h0Z" transform="translate(-0.07 21.8)"/><path class="cls-2" d="M29-21.17v0h0s0,0,0,0,0,0,0-.06S29-21.14,29-21.17Z" transform="translate(-0.07 21.8)"/><path class="cls-2" d="M36.23-21.23v0l.09,0h0S36.25-21.18,36.23-21.23Z" transform="translate(-0.07 21.8)"/><path class="cls-2" d="M32.39-21.17l-.06,0h0l.05,0Z" transform="translate(-0.07 21.8)"/><path class="cls-2" d="M31.14-21.16v.05h0l0,0s0,0,0,0S31.16-21.16,31.14-21.16Z" transform="translate(-0.07 21.8)"/><path class="cls-2" d="M33.19-21.17s0,0,0,0h0l0,0Z" transform="translate(-0.07 21.8)"/><path class="cls-2" d="M34.62-21.24l-.07,0s.05,0,.07,0v0Z" transform="translate(-0.07 21.8)"/><path class="cls-2" d="M29.77-21.16s0,.06,0,.07,0,0,0,0,0,0,0,0S29.77-21.14,29.77-21.16Z" transform="translate(-0.07 21.8)"/><path class="cls-2" d="M25.51-21.74l.07,0h0S25.5-21.79,25.51-21.74Z" transform="translate(-0.07 21.8)"/><polygon class="cls-2" points="25.51 0.04 25.51 0.04 25.51 0.04 25.51 0.04"/><path class="cls-2" d="M25.58-21.76Z" transform="translate(-0.07 21.8)"/><path class="cls-2" d="M29-21.14Z" transform="translate(-0.07 21.8)"/><path class="cls-2" d="M28.94-21.18h0v0l0,.06v0S28.92-21.16,28.94-21.18Z" transform="translate(-0.07 21.8)"/><polygon class="cls-2" points="28.88 0.66 28.88 0.66 28.88 0.66 28.88 0.66"/><polygon class="cls-2" points="28.88 0.66 28.88 0.66 28.88 0.66 28.88 0.66"/><path class="cls-2" d="M32.63-21.23Z" transform="translate(-0.07 21.8)"/><path class="cls-2" d="M32.63-21.24s0,0,0,0a.07.07,0,0,0,0,.05h0v0h0Z" transform="translate(-0.07 21.8)"/><polygon class="cls-2" points="32.56 0.57 32.56 0.57 32.56 0.57 32.56 0.57"/><path class="cls-2" d="M32.07-21.13h0Z" transform="translate(-0.07 21.8)"/><path class="cls-2" d="M26.61-21.34s0,0,0,0,0-.06-.06,0l0,0S26.6-21.33,26.61-21.34Z" transform="translate(-0.07 21.8)"/><path class="cls-2" d="M26.35-21.42s0,0,0,0l.05,0-.06,0Z" transform="translate(-0.07 21.8)"/><path class="cls-2" d="M36.79-21.64h0v0Z" transform="translate(-0.07 21.8)"/><path class="cls-1" d="M38.45-21.33a.05.05,0,0,0,0,0s0,0,0,0h-.17s0,0,0,0h0s-.06,0,0,.05h0l-.12,0h0v0s0,0,0-.06h0v0H38v0l0,0h0s0,0,0,0,0,0-.06,0v-.08a0,0,0,0,0,0,0c.06,0,.1,0,.15,0h0v0h0s0,0,0,0v0h0l0,0s.06,0,.08,0,.08,0,.11,0,.06,0,.08,0l0,0a0,0,0,0,0,0,0l0,0,0,0c0,.09,0,0-.06,0S38.46-21.35,38.45-21.33Zm-.11-.09-.06,0,0,0s0,0,0,0Zm.09,0,0,0s0,0,0,0,0,0,0,0S38.46-21.44,38.43-21.39Z" transform="translate(-0.07 21.8)"/><path class="cls-1" d="M37.7-21.28a.1.1,0,0,0,0,0s0,0,0,0h0s0-.06,0-.08S37.66-21.3,37.7-21.28Z" transform="translate(-0.07 21.8)"/><path class="cls-1" d="M37.9-21.27s.05-.05,0-.08,0,0,0,0v0s0,0,0,0,0,0,0,0,0,0,0,0l.07,0v0H37.9Z" transform="translate(-0.07 21.8)"/><path class="cls-1" d="M38.19-21.23v.08l.07-.07a0,0,0,0,0,0,0S38.24-21.17,38.19-21.23Z" transform="translate(-0.07 21.8)"/><path class="cls-1" d="M37.89-21.4h0c.05,0,.07,0,0,0h0l0,0s0-.05,0,0,0,0-.07,0,0,0,0,0-.13,0-.19,0,0,0,0,0,0,0,0,0,0,0,0,0h0s0,0,0,0,0,0,0,0h.07l0,0h0l0,0c0-.05,0,0,0-.07s0-.05.09-.06h.13v0h0s-.06.05-.1,0h0a0,0,0,0,0,0,0s0,0,0,0,0-.05,0,0,.05,0,.08,0v0s0,0,0,0h0v0Z" transform="translate(-0.07 21.8)"/><path class="cls-1" d="M38.11-21.28l0,0,0,0c0-.05,0,0,0,0a.05.05,0,0,1,0,0s0,0,0,0,0,0,0,0h0s0,0,0,0,0,0,0,0a.07.07,0,0,0,.08,0S38.1-21.23,38.11-21.28Z" transform="translate(-0.07 21.8)"/><path class="cls-1" d="M38.6-21.26h0l-.05,0a.1.1,0,0,1,0,0s-.06,0,0,0h0s0,0,0,0,0,0,0,0h0s.05,0,.05,0,0,0,0,0,.08-.07.14-.08S38.65-21.21,38.6-21.26Z" transform="translate(-0.07 21.8)"/><path class="cls-1" d="M39.3-21.33c.05,0,.09,0,.15,0l0,0s0,0,0,0h0s-.06,0-.1,0,0,0,0,0,0,0,0,0l0,0h0s0,0,0,0,0,0,0,0h0a0,0,0,0,0,0,0l0,0,0,0h0s0,0,0,0a.12.12,0,0,0,0-.08s0,0,0,0,0,.11,0,.16Z" transform="translate(-0.07 21.8)"/><path class="cls-1" d="M39.37-21.22s0-.05-.07,0,0,0,0,0l0,0s0,0,0,0,0,.07,0,.06h0a.06.06,0,0,0,.1,0s0,.05.07,0h0c0,.05,0,0-.06,0h0l0,0S39.42-21.21,39.37-21.22Z" transform="translate(-0.07 21.8)"/><path class="cls-1" d="M39.6-21.23a.1.1,0,0,1-.11,0s0,0-.06,0l0,0h.05a.07.07,0,0,1,.07.05v0h0s0,0,0,0,.07,0,.07,0,0,0,0,0Z" transform="translate(-0.07 21.8)"/><path class="cls-1" d="M37.76-21.2a0,0,0,0,1,0,0l0,0h0c-.05-.06,0,0,0,0h-.07A0,0,0,0,0,37.76-21.2Z" transform="translate(-0.07 21.8)"/><path class="cls-1" d="M39-21.33h0c0-.07-.06-.08-.12-.09h0s.07,0,.09.07a.2.2,0,0,1,0,.08l0,0s0,0,0,0l.06,0H39s.06,0,0,.05,0,0,0,0,0,0,0,0,0,0,0,0,0,0,0,0,0-.08,0-.09,0,0,0,0l0,0S39-21.38,39-21.33Z" transform="translate(-0.07 21.8)"/><path class="cls-1" d="M38.76-21.44s0,0,0,0,0,0,0,0,0,0,0,0S38.78-21.45,38.76-21.44Z" transform="translate(-0.07 21.8)"/><path class="cls-1" d="M39-21.4s0,0,0,0,0,0,.07,0v0h0s0-.06,0-.09l0,0S39-21.46,39-21.4Z" transform="translate(-0.07 21.8)"/><path class="cls-1" d="M37.37-21.36l0,0s0,0,0,0l0,0Z" transform="translate(-0.07 21.8)"/><path class="cls-1" d="M45.11-21.29c0-.06.08,0,.11,0v0h0v0s0-.07.05-.08h-.15s-.12,0-.12.08Z" transform="translate(-0.07 21.8)"/><path class="cls-1" d="M37.48-21.23h0c-.05,0-.09-.07-.15-.05h0s0,0,0,0l.15,0s0,0,0,0h0s0,0,0,0Z" transform="translate(-0.07 21.8)"/><path class="cls-1" d="M38.42-21.66h.08s0-.06-.06-.06S38.47-21.67,38.42-21.66Z" transform="translate(-0.07 21.8)"/><path class="cls-1" d="M36.81-21.62v0h0v0Z" transform="translate(-0.07 21.8)"/><path class="cls-1" d="M36.86-21.4s.1,0,.16,0h0l0,0s0,0,0,0,0,0,0,0l0,0s-.1,0-.14,0h0v0s0,0,0,0h0c0,.06,0,0,0,0v.05S36.83-21.39,36.86-21.4Z" transform="translate(-0.07 21.8)"/><path class="cls-1" d="M43-21.24v0h0s0,0,0,0v-.06h0l0,0s0,0,0,0h0s0,0,0,0,0,0,0,0,0,0,0,0,0,0,0,0-.06,0,0,.06l0,0,0,0h0l0,0h0s0,0,0,0,0,.07,0,.08v-.05Z" transform="translate(-0.07 21.8)"/><path class="cls-1" d="M37.15-21.4v0h.09l0,0Z" transform="translate(-0.07 21.8)"/><path class="cls-1" d="M37.24-21.24h0l0,0S37.26-21.27,37.24-21.24Z" transform="translate(-0.07 21.8)"/><path class="cls-1" d="M37.77-21.51Z" transform="translate(-0.07 21.8)"/><path class="cls-1" d="M37.14-21.35l0,0,0,0v0h0s0,0,0,0Z" transform="translate(-0.07 21.8)"/><path class="cls-1" d="M37.16-21.43l0,0s-.08,0-.12,0l0,0S37.14-21.49,37.16-21.43Z" transform="translate(-0.07 21.8)"/><path class="cls-1" d="M37.85-21.48h0s0,0-.09,0S37.83-21.5,37.85-21.48Z" transform="translate(-0.07 21.8)"/><path class="cls-1" d="M40-21.39h-.06v0h.06v0h0s-.07,0-.11,0l0,0h0v0h0s0,0,0,0,0,0,0,0-.07,0-.08,0l-.06,0h0c.08,0,.07,0,.09,0a.19.19,0,0,1,.18,0S39.91-21.39,40-21.39Z" transform="translate(-0.07 21.8)"/><path class="cls-1" d="M38.75-21.23h0s0,0,0,0,0,0,0,0h.08v0S38.76-21.22,38.75-21.23Z" transform="translate(-0.07 21.8)"/><path class="cls-1" d="M44.15-21.55l0,0,0,0,.06,0Z" transform="translate(-0.07 21.8)"/><path class="cls-1" d="M43.89-21.74s0,0,0,0,0,0,0,0,0,0,0,0,0,0,0,0,0,0,0-.05Z" transform="translate(-0.07 21.8)"/><path class="cls-1" d="M44.17-21.46s0,0,0,0l.07.06,0,0Z" transform="translate(-0.07 21.8)"/><path class="cls-1" d="M44.65-21.37s0,0,0,0,0,.05,0,.07v0s0,0,0,0S44.67-21.36,44.65-21.37Z" transform="translate(-0.07 21.8)"/><path class="cls-1" d="M44.61-21.44Z" transform="translate(-0.07 21.8)"/><path class="cls-1" d="M43.32-21.73s0,0,0,.05,0,0,0,0h0s0,0,0,0S43.29-21.7,43.32-21.73Z" transform="translate(-0.07 21.8)"/><path class="cls-1" d="M39.94-21.38l.05,0s0,0,0-.06h0Z" transform="translate(-0.07 21.8)"/><path class="cls-1" d="M43-21.41h0l.1,0,0,0S43-21.45,43-21.41Z" transform="translate(-0.07 21.8)"/><path class="cls-1" d="M43.1-21.64s0,0-.06-.05h0s0,0,0-.05h0c0,.05,0,.05,0,.08h.12Z" transform="translate(-0.07 21.8)"/><path class="cls-1" d="M43.13-21.67l0,0-.08,0s0,0,0,0Z" transform="translate(-0.07 21.8)"/><path class="cls-1" d="M43.22-21.28h0l-.11,0h0C43.14-21.21,43.2-21.32,43.22-21.28Z" transform="translate(-0.07 21.8)"/><path class="cls-1" d="M45.82-21.47h0l-.1-.05h0C45.73-21.47,45.78-21.48,45.82-21.47Z" transform="translate(-0.07 21.8)"/><path class="cls-1" d="M45.73-21.29h.13l-.11-.05Z" transform="translate(-0.07 21.8)"/><path class="cls-1" d="M46.31-21.49l-.05,0s0,.06.07,0l0,0Z" transform="translate(-0.07 21.8)"/><path class="cls-1" d="M45.79-21.38a.05.05,0,0,0,0,0l0,0,0,.05S45.8-21.37,45.79-21.38Z" transform="translate(-0.07 21.8)"/><path class="cls-1" d="M46.59-21.35a.1.1,0,0,1,0,0h0l0,0a.14.14,0,0,0,0-.06S46.61-21.32,46.59-21.35Z" transform="translate(-0.07 21.8)"/><path class="cls-1" d="M44.71-21.45h-.1a0,0,0,0,0,0,0h.09a0,0,0,0,1,0,0Z" transform="translate(-0.07 21.8)"/><path class="cls-1" d="M48.08-21.29l.07,0s0,0,0,0l-.07,0Z" transform="translate(-0.07 21.8)"/><path class="cls-1" d="M44.71-21.63l.06,0s0-.05,0-.05h-.06Z" transform="translate(-0.07 21.8)"/><path class="cls-1" d="M42.85-21.45s0,0,0,0,0,.06,0,.07.06,0,.14,0C42.82-21.39,42.82-21.41,42.85-21.45Z" transform="translate(-0.07 21.8)"/><path class="cls-1" d="M44.92-21.61a.43.43,0,0,0,0,.05s0,0,0,0a.21.21,0,0,0,0-.07Z" transform="translate(-0.07 21.8)"/><path class="cls-1" d="M45.63-21.48a0,0,0,0,0,.07,0h0s0,0,0,0Z" transform="translate(-0.07 21.8)"/><path class="cls-1" d="M45.14-21.5l0,.06h0l.07-.05Z" transform="translate(-0.07 21.8)"/><path class="cls-1" d="M43.2-21.25h0l0,.06s0,0,0-.06Z" transform="translate(-0.07 21.8)"/><path class="cls-1" d="M40.73-21.39l0,0-.1-.05v.05h0l-.06,0s0,0,0,0,0,0-.05,0,0,0,0,0,0,0,0,0,.06,0,.1,0,0,0,0,0,.07,0,.11,0,0,0,0,0a0,0,0,0,0,0,0h0s0,0,0,0h0s0,0,0,0h0l.08,0v0h0Z" transform="translate(-0.07 21.8)"/><path class="cls-1" d="M41.3-21.36s0,.05,0,.07,0,0,0,0l0-.05h0l0,0C41.36-21.44,41.34-21.33,41.3-21.36Z" transform="translate(-0.07 21.8)"/><path class="cls-1" d="M41-21.64s0,0,0,0l0,0,.09-.05Z" transform="translate(-0.07 21.8)"/><path class="cls-1" d="M40.83-21.37s-.07,0,0,0,0,0,0,0h-.06a.08.08,0,0,0,0,0s0,0,.07,0S40.83-21.36,40.83-21.37Z" transform="translate(-0.07 21.8)"/><path class="cls-1" d="M41.07-21.36h.09s0,0,0,0,0,0,0,0h0l0,0,0-.08-.11-.06A.25.25,0,0,0,41.07-21.36Z" transform="translate(-0.07 21.8)"/><path class="cls-1" d="M42.1-21.47s0,0,0,0a.1.1,0,0,0-.05,0l0,.05.07,0,0,0,0,0h0l0,0h0s0,0,0,0S42.11-21.47,42.1-21.47Z" transform="translate(-0.07 21.8)"/><path class="cls-1" d="M41.43-21.4l.08,0s0,0,0,0h-.08Z" transform="translate(-0.07 21.8)"/><path class="cls-1" d="M42.11-21.64s.06,0,.06,0-.05,0-.07,0,0,0,0,0A0,0,0,0,0,42.11-21.64Z" transform="translate(-0.07 21.8)"/><path class="cls-1" d="M41.81-21.41l0,0s-.05,0,0,0h0l0,0s0,0,0,.06h0a.07.07,0,0,0,0,0C41.91-21.46,41.87-21.41,41.81-21.41Z" transform="translate(-0.07 21.8)"/><path class="cls-1" d="M42.39-21.35s0,0,0,0,0,0,0,0,0,0,0,0S42.4-21.37,42.39-21.35Z" transform="translate(-0.07 21.8)"/><path class="cls-1" d="M42.18-21.49l0,0a.09.09,0,0,0,.11-.05h0C42.22-21.55,42.21-21.49,42.18-21.49Z" transform="translate(-0.07 21.8)"/><path class="cls-1" d="M42.35-21.28s0,0,.07,0h0l-.09-.06S42.34-21.29,42.35-21.28Z" transform="translate(-0.07 21.8)"/><path class="cls-1" d="M40.19-21.38h0s.06,0,.09,0l0,0S40.21-21.4,40.19-21.38Z" transform="translate(-0.07 21.8)"/><path class="cls-1" d="M40.08-21.7h0l-.06,0s0,0,0,0h0s0,0,.06,0a0,0,0,0,0,0,0s0,0,0-.05l-.05,0Z" transform="translate(-0.07 21.8)"/><path class="cls-1" d="M42.56-21.34c0-.05-.08,0-.12,0h0v0h0s0,0,0,0,0,0,.06.05v0A.1.1,0,0,1,42.56-21.34Z" transform="translate(-0.07 21.8)"/><polygon class="cls-2" points="42.83 0.58 42.83 0.59 42.83 0.59 42.83 0.59 42.83 0.58"/><path class="cls-2" d="M39-21.37Z" transform="translate(-0.07 21.8)"/><path class="cls-2" d="M45-21.29Z" transform="translate(-0.07 21.8)"/><path class="cls-2" d="M48.71-21.3v.07l-.05-.05h0s0,0,0,0,0,.05,0,.08l0,0c0-.1,0,0,0,0s-.08,0-.11,0,0-.07-.08,0v0s0,0,0,0,0,0-.08,0h0v0c0,.05-.08,0-.12,0a.12.12,0,0,1-.08,0h0l0,0s0,0,0,.05-.06,0-.1,0-.1,0-.14,0,0,0,0,0-.07,0,0-.08l0,0h0c-.06,0,0,0,0,0s-.09,0-.09.07h0s0,0,0,0h-.08s0,.07,0,0h-.08l0,0c0-.06-.07,0-.09-.08s0,0,0,0l0,.06s0,0,0,0-.09,0-.11,0,0,0,0,0l-.07,0h0c0,.12-.07,0-.12,0a.14.14,0,0,0-.09,0s-.05,0-.07,0h0s0,0,0,0,0,0,0,0,0,0,0,0a.45.45,0,0,0-.11,0l-.13.05h0s0,0,0,0a0,0,0,0,0,0,0l0,0s0-.05-.06,0l0,0h0s0,0,0,0,0,0,0,0-.09,0-.1,0-.11,0-.15,0h0s0,0,0,0,.05,0,0,0h0s0,0-.08,0-.07-.06-.13,0a.08.08,0,0,1-.08,0s0,0-.07,0l-.07,0,0,0s0,0,0,0-.1,0-.15,0a.61.61,0,0,1-.19,0c-.06,0,0,0,0,0l-.15,0h0v0h0a.09.09,0,0,0,0,0s0,0,0,0h.07c0-.06.08,0,.11,0v0h0v0s0-.07.05-.08h-.15s-.12,0-.12.08h0s0,0,0,.05,0,0-.06,0h0c0,.07-.09,0-.12.05s0,0,0,0-.05,0-.07,0-.06,0-.07.07h0a.1.1,0,0,1,0-.05s0,0,0,0h0a.13.13,0,0,1,0-.06l0,0s0,0,0,0,0,0,0,.06,0,0,0,0-.07,0-.07,0v0h0s0,.06-.05,0,0,0,0,0h0l-.06-.05h0l0,0a0,0,0,0,0,0,0s0,0,0,0-.05,0-.08,0h0s0,0,0,0h.06s0,0,0,0-.07,0-.11,0H43.9v0h0s-.06,0,0-.05h0v0s0,0,0,.05v0l0,0h0l0,0v0s-.07,0-.11,0,0,0,0,0v0s0,0,0,0h0s0,0,0,0,0-.05,0-.07a.06.06,0,0,1,0,0s0,0,0,0l0,0h0s0,0,0,0l0,0s0,0,0,0l0,0s-.05,0,0,0,0,0,0,0,0,0,0,0h0s0,0,0,0l-.06,0h0s0,0,0,0h0l-.05,0s0,0,0,0-.1,0-.13.07h0s0,0,0,0l0-.05h0c0,.05-.11,0-.1.06a.1.1,0,0,1,0,0H43l0,0s0,0,0-.05,0,0,0,0v.06h0s0,0,0,0,0,0,0,0h0v-.05l.06,0v0h0s0,0,0,0v-.06h0l0,0s0,0,0,0h0s0,0,0,0,0,0,0,0,0,0,0,0,0,0,0,0-.06,0,0,.06l0,0,0,0h0l0,0h0s0,0,0,0,0,.07,0,.08h0s0,0,0,0,0,0-.06.05h0s0,0-.06,0-.12,0-.11-.07c0,.08,0,0,0,0h0v0s0,0,0,0,0,0-.06,0H42.4s0,0,0,.06,0-.05-.09,0,0,0,0,0v0s0,0-.06,0-.08,0-.11,0,0,0,0,0v0s0,0-.07,0-.06,0-.08,0,0,0,0,0h0s0-.07-.06-.06,0-.06,0,0,0,.06,0,.09h0s0,0,0,0v0s0,0,0,0-.08,0-.11,0-.08,0-.11,0h0c-.08,0-.16,0-.24,0h-.1s0,0-.07.05,0,0,0,0-.05,0,0,0v0h0v0l0,0s0,0,0,0,0,0,0,0,0,0,0,0h-.3c0,.07-.05,0-.06,0h0c0-.08-.06,0-.09-.05l0,0h0l-.05,0v0l0-.06v0h0s0,0-.06,0h0l-.17,0a0,0,0,0,0,0,0l0,0h0a.08.08,0,0,1-.09,0s0,0,0,0,0,0,.06,0h0s0,0,0,0,0,0-.05,0,0,0,0,0h0c-.07-.09-.18,0-.26-.05s-.08,0-.11,0,0,0,0,0,0,0,0,0,0,.05,0,.09v0h0v0l0,0s0,0,0,0h0s0,0,0,0h0c0-.07,0,0-.07,0s-.09,0-.12,0-.1,0-.15,0l-.06,0s0,0,0,0,0,0,0,0,0,0,0,0,0,0,0,0l0,0s0,0,0,0a.08.08,0,0,0,0,0c-.05,0-.11,0-.14,0s-.07,0-.1,0-.05,0-.09,0-.1,0-.14,0h0s0-.05,0,0h0s0,0,0,0,0,0,0,0v0l-.08,0s0,0-.05,0H37.9a.22.22,0,0,0-.11,0,.52.52,0,0,1-.25,0s-.1,0-.13,0-.06,0-.08,0-.1,0-.16,0,0,0-.05,0,0,0-.08,0H37l-.09-.07h0c0,.08-.05,0-.07,0v-.12s0,0,0,0,.1,0,.16,0h0l0,0s0,0,0,0,0,0,0,0l0,0s-.1,0-.14,0h0v0s0,0,0,0h0c0,.06,0,0,0,0v-.18h0v0h0s.06,0,0,0v0h0s0,0,0,0a.07.07,0,0,0,0,0s0,0,0,0,0,0,.06,0,0,0,0,0,.06,0,.07,0h0s0-.06,0,0l.05,0c0-.05,0,0,0,0s0,0,0,0h0v0h0l0,0,.17,0s0,0,0,0h0s-.06,0,0,0,.06,0,.07,0,.09.06.12,0h0s0,0-.06,0h.1s0,0,0,0,0,0,.05,0h0l0,0h0l0,0c.05,0,.08,0,.11,0a.32.32,0,0,1,.3.06c0,.05,0,0,0,0s.06,0,.07,0,0,0,.05,0,.07,0,.1,0h0c0,.07.06-.05.07,0s.08.07.09,0c0,.06.07,0,.08.06h0s0,0,0,0,0,0,0,0a0,0,0,0,1,0,0h.08s0,0,0,.06h.08v0a.1.1,0,0,1,0,0s0-.06.08,0h0s0,0,0,0l0,0,0,0h0a.13.13,0,0,0,.12,0h0l.08-.07h0s.06,0,0,0,0,0,0,0v0s0,0,0,0h.11a0,0,0,0,0,0,0v0h0v0s0,0,.06,0a.1.1,0,0,0,0-.07,0,0,0,0,1,0,0s.07,0,.08,0,.05,0,.07,0h0l0,0v0h0l0,0h0l0,0v.05h.07s0,0,0,0h0s0,0,0,0h.15l0,0s0-.05,0-.07l0,0,0,0h0s0,0,0,0v0h0l.13.07c0-.1,0,0,.07,0s0,0,0,0,.1,0,.14,0a.34.34,0,0,1,.14,0l0,0h0v0l.07,0,0,0s0,0,.06,0h0l0,0,0,0,0,0,0,0,0,0s0,0,0,0l0,0s0,0,0,0,0,0,0,0v0h0l0,0,0,0h.07s0-.08,0-.05,0,0,0,0h0s-.09,0,0-.08,0,0,0,.05h0v0l0,0h0v-.05h0s.07,0,.09,0,0,0,0,0,0,0,0,0h0s-.06,0,0,.07,0,0,0,0v0s0,0,.07,0,0,0,0,0h0s0,0,0,0h0s.07,0,.1,0v0h0s0,0,0,0l0,0h0l0,0h0s0,0,0,0l0,0h.05s0,0,0-.05a.2.2,0,0,1,.08-.08s0,0,0,0h0c0-.06.09,0,.11-.05h0s0,0,0,0h.21a.56.56,0,0,0,.13,0,.47.47,0,0,1,.31,0s.1,0,.14,0,.08,0,.11,0,.08,0,.13,0,.09,0,.14,0a.12.12,0,0,1,.11.07h0v0h0s0,0,0,0,0,0,0,0,0,0,0,0H43s0,0,0,0,.1,0,.15,0,.06,0,.08,0,0,0,.05,0a0,0,0,0,0,0,0s0,0,0,0a.18.18,0,0,1,.16,0s0,0,0,0v-.05l0,0s0,0,0,0,0,0,0,0h0v0h.07l0,0s0,0,0,0,0-.05,0,0a0,0,0,0,0,0,0s0,0,0,0,0,0,.07,0,0,0,0,0,0,0,0,0,0-.06.08,0,.07,0,.1,0,.11,0,.14,0h0c0-.05,0,0,0,0s.05,0,.09,0h.25s.08,0,.12,0h0l.1,0s0,0,0,0a2.09,2.09,0,0,0,.25,0h.25s0,0,0,0,.1.05.15,0l0,0s.05,0,.08,0a.59.59,0,0,1,.23,0H46s0,0,0,.05,0,0,0-.06h0l0,0s0,0,0,0a.11.11,0,0,1,.08,0,.66.66,0,0,1,.14,0,2.17,2.17,0,0,0,.26,0,.81.81,0,0,1,.22,0c.05,0,.08,0,.12,0s.06,0,.07,0,.06,0,.09,0,.13,0,.2,0,0,0,.08,0,0,0,0,0a.33.33,0,0,1,.24,0s.05,0,.07,0a0,0,0,0,0,0,0l.13,0H48a1.6,1.6,0,0,0,.38,0c0,.06,0,0,0,0h0v0h0l.1,0h0l.13,0h0s0,0,0,0Zm-10.29-.36h.08s0-.06-.06-.06S38.47-21.67,38.42-21.66Zm-.66.16h0s.06,0,.08,0h0s0,0-.09,0h0Zm-.46.14,0,0,0,0,0,0S37.3-21.37,37.3-21.36Zm-.14-.07,0,0s-.08,0-.12,0l0,0S37.14-21.49,37.16-21.43Zm0,.1v0l0,0,0,0v0h0S37.18-21.3,37.15-21.33Zm.08,0,0,0h-.12v0Zm.29.15h-.06c-.05,0-.09-.07-.15-.05h0s-.05,0-.07,0h0l0,0h0s0,0,0,0l.15,0s0,0,0,0h0S37.53-21.22,37.52-21.22Zm.34,0h-.09a0,0,0,0,0,0,0,0,0,0,0,1,0,0l0,0h0c-.05-.06,0,0,0,0Zm0-.17v0l0,0h0c.05,0,.07,0,0,0h0l0,0s0-.05,0,0,0,0-.07,0,0,0,0,0-.13,0-.19,0,0,0,0,0,0,0,0,0,0,0,0,0h0s0,0,0,0,0,0,0,0h.07l0,0h0l0,0c0-.05,0,0,0-.07s0-.05.09-.06h.13v0h0s-.06.05-.1,0h0a0,0,0,0,0,0,0s0,0,0,0h0s0,0,0,0a.1.1,0,0,0,0,0s0,0,0,0h0s0-.06,0-.08h0s0-.05,0,0,.05,0,.08,0v0s0,0,0,0Zm.12.11H37.9s.05-.05,0-.08,0,0,0,0v0s0,0,0,0,0,0,0,0,0,0,0,0l.07,0Zm.13,0,0,0,0,0c0-.05,0,0,0,0a.05.05,0,0,1,0,0s0,0,0,0,0,0,0,0h0s0,0,0,0,0,0,0,0a.07.07,0,0,0,.08,0S38.1-21.23,38.11-21.28Zm.14,0s0,.08-.06,0v.08l.07-.07A0,0,0,0,0,38.25-21.25Zm.2-.08s0,0,0,0,0,.08.06,0l0,0,0,0a0,0,0,0,1,0,0l0,0s-.06,0-.08,0-.08,0-.11,0-.05,0-.08,0l0,0h0v0s0,0,0,0h0v0h0c-.05,0-.09.07-.15,0a0,0,0,0,1,0,0v.08s0,0,.06,0,0,0,0,0h0l0,0v0h.05v0h0s0,0,0,.06v0h0l.12,0h0s0,0,0-.05h0s0,0,0,0h.17s0,0,0,0A.05.05,0,0,1,38.45-21.33Zm.34.15v-.05s0,0,0,0h0c0-.07-.1,0-.15,0h0l-.05,0a.1.1,0,0,1,0,0s-.06,0,0,0h0s0,0,0,0,0,0,0,0h0s.05,0,.05,0,0,0,0,0,.08-.07.14-.08h0s0,0,0,0,0,0,0,0h.08Zm0-.25s0,0-.07,0,0,0,0,0,0,0,0,0S38.79-21.42,38.83-21.43Zm.25,0,0,0s-.08,0-.07.05,0,0,0,0,0,0,.07,0h0s-.07,0-.05,0h0c0-.07-.06-.08-.12-.09h0s.07,0,.09.07a.2.2,0,0,1,0,.08l0,0s0,0,0,0l.06,0H39s.06,0,0,.05,0,0,0,0,0,0,0,0,0,0,0,0,0,0,0,0,0-.08,0-.09,0,0,0,0l0,0h0v0h0S39.08-21.44,39.08-21.47Zm.11.16.11,0c.05,0,.09,0,.15,0l0,0s0,0,0,0h0s-.06,0-.1,0,0,0,0,0,0,0,0,0l0,0h0s0,0,0,0,0,0,0,0h0a0,0,0,0,0,0,0l0,0,0,0h0s0,0,0,0a.12.12,0,0,0,0-.08s0,0,0,0S39.2-21.36,39.19-21.31Zm.22.16s0-.06,0-.07,0-.05-.07,0,0,0,0,0l0,0s0,0,0,0,0,.07,0,.06h0a.06.06,0,0,0,.1,0s0,.05.07,0h0c0,.05,0,0-.06,0h0Zm.21-.06s0,0,0,0h0a.1.1,0,0,1-.11,0s0,0-.06,0l0,0h.05a.07.07,0,0,1,.07.05v0h0s0,0,0,0S39.62-21.18,39.62-21.21Zm.33-.18h-.06v0h.06v0h0s-.07,0-.11,0l0,0h0v0h0s0,0,0,0,0,0,0,0-.07,0-.08,0l-.06,0h0c.08,0,.07,0,.09,0a.19.19,0,0,1,.18,0S39.91-21.39,40-21.39Zm.06,0h0l-.06,0,.05,0S40-21.38,40-21.4Zm.12-.29-.05,0v0h0l-.06,0s0,0,0,0h0s0,0,.06,0a0,0,0,0,0,0,0S40.12-21.67,40.13-21.69Zm.12.29s0,0-.06,0h0s.06,0,.09,0Zm.46,0h0l0,0,0,0-.1-.05v.05h0l-.06,0s0,0,0,0,0,0-.05,0,0,0,0,0,0,0,0,0,.06,0,.1,0,0,0,0,0,.07,0,.11,0,0,0,0,0a0,0,0,0,0,0,0h0s0,0,0,0h0s0,0,0,0h0l.08,0Zm.14.05h0s0,0,0,0-.07,0,0,0,0,0,0,0h-.06a.08.08,0,0,0,0,0s0,0,.07,0h0S40.84-21.35,40.85-21.36Zm.27-.28H41s0,0,0,0l0,0Zm.1.27-.11-.06a.25.25,0,0,0,0,.07h.09s0,0,0,0,0,0,0,0h0l0,0Zm.17,0c0-.07,0,0-.09,0s0,.05,0,.07,0,0,0,0l0-.05h0Zm.14-.05h-.08l0,0,.08,0S41.53-21.41,41.53-21.42Zm.42.07a.07.07,0,0,0,0,0c0-.06-.07,0-.13,0l0,0s-.05,0,0,0h0l0,0s0,0,0,.06Zm.14-.31a0,0,0,0,0,0,0s.06,0,.06,0-.05,0-.07,0S42.09-21.67,42.09-21.66Zm0,.19s0,0,0,0a.1.1,0,0,0-.05,0l0,.05.07,0,0,0,0,0h0l0,0h0s0,0,0,0S42.11-21.47,42.1-21.47Zm.15,0c0-.05,0,0-.07,0l0,0a.09.09,0,0,0,.11-.05Zm.19.23-.09-.06s0,0,0,0,0,0,.07,0Zm.11,0a.1.1,0,0,1,0,0c0-.05-.08,0-.12,0h0v0h0s-.05,0-.06,0,0,0,0,0,0,0,0,0,0,0,0,0h0s0,0,0,0,0,0,.06.05Zm.38-.1c-.11,0-.11,0-.08,0s0,0,0,0,0,.06,0,.07S42.85-21.39,42.93-21.41Zm.09-.24h.08s0,0-.06-.05h0s0,0,0-.05h0c0,.05,0,.05,0,.08Zm.09.24s-.07,0-.11,0h0l.1,0Zm0-.26,0,0-.08,0s0,0,0,0Zm.09.39h0l-.11,0h0C43.14-21.21,43.2-21.32,43.22-21.28Zm0,0h-.06l0,.06S43.24-21.22,43.24-21.24Zm.08-.49s0,0,0,.05,0,0,0,0h0s0,0,0,0S43.29-21.7,43.32-21.73Zm.62,0h0s0,0,0,0,0,0,0,0,0,0,0,0,0,0,0,0S43.94-21.71,43.94-21.73Zm.24.19h0l0,0,0,0Zm0,.12-.06,0s0,0,0,0l.07.06Zm.42.05s0,0,0,0,0,.05,0,.07v0s0,0,0,0S44.67-21.36,44.65-21.37Zm.07-.07h-.11a0,0,0,0,0,0,0h.09A0,0,0,0,1,44.72-21.44Zm.08-.2h-.06l0,0,.06,0S44.76-21.64,44.8-21.64Zm.14,0h0a.43.43,0,0,0,0,.05s0,0,0,0A.21.21,0,0,0,44.94-21.62Zm.2.12,0,.06h0l.07-.05Zm.58,0s0,0,0,0l0,0a0,0,0,0,0,.07,0Zm0,0c0,.05.05,0,.09.05h0l-.1-.05Zm0,.14,0,.05s0,0,0-.05a.05.05,0,0,0,0,0Zm.13.09-.11-.05,0,.05h.13Zm.49-.16,0,0-.05,0s0,.06.07,0Zm.28.12s0,0,0,0a.1.1,0,0,1,0,0h0l0,0A.14.14,0,0,0,46.63-21.33Zm1.55,0-.07,0h0l.07,0S48.17-21.27,48.18-21.28Z" transform="translate(-0.07 21.8)"/><path class="cls-2" d="M46.65-21.22Z" transform="translate(-0.07 21.8)"/><path class="cls-2" d="M44.55-21.23Z" transform="translate(-0.07 21.8)"/><polygon class="cls-2" points="44.47 0.57 44.47 0.57 44.47 0.57 44.47 0.57"/><polygon class="cls-2" points="37.42 0.04 37.42 0.04 37.42 0.04 37.42 0.04"/><path class="cls-2" d="M40.85-21.35s0,0,0,0h0Z" transform="translate(-0.07 21.8)"/><polygon class="cls-2" points="38.68 0.57 38.68 0.57 38.68 0.57 38.68 0.57"/><polygon class="cls-2" points="44.54 0.36 44.53 0.36 44.54 0.36 44.54 0.36 44.54 0.36"/><polygon class="cls-2" points="37.62 0.48 37.62 0.48 37.62 0.48 37.62 0.48 37.62 0.48"/><polygon class="cls-2" points="42.38 0.43 42.38 0.43 42.38 0.43 42.38 0.43"/><path class="cls-2" d="M37.77-21.51Z" transform="translate(-0.07 21.8)"/><polygon class="cls-2" points="37.24 0.54 37.24 0.54 37.24 0.54 37.24 0.54"/><polygon class="cls-2" points="40.02 0.68 40.03 0.68 40.02 0.68 40.02 0.68"/><path class="cls-2" d="M39.79-21.13h0s0,0,0,0h0l0,0h0v0h-.07s0,0,0,0h0a.07.07,0,0,1,.08.05s.06,0,.08,0l0,0v-.05Z" transform="translate(-0.07 21.8)"/><path class="cls-2" d="M36.92-21.23h0s-.07,0-.08,0h0v.06h.08Z" transform="translate(-0.07 21.8)"/><path class="cls-2" d="M39.94-21.1h0s0,0,0,0,0-.05,0,0v.05s.08,0,.12,0v0h0S39.94-21.16,39.94-21.1Z" transform="translate(-0.07 21.8)"/><path class="cls-2" d="M37.35-21.7h.12l-.15-.06,0,0S37.33-21.7,37.35-21.7Z" transform="translate(-0.07 21.8)"/><polygon class="cls-2" points="40.02 0.68 40.02 0.68 40.02 0.68 40.02 0.68"/><path class="cls-2" d="M40.08-21.15s-.06,0-.06,0-.05,0,0,0h0c0,.05.07,0,.1,0S40.09-21.15,40.08-21.15Z" transform="translate(-0.07 21.8)"/><path class="cls-2" d="M38.93-21.75c0-.06-.06,0-.09,0h0a.15.15,0,0,0,.07,0S38.94-21.73,38.93-21.75Z" transform="translate(-0.07 21.8)"/><path class="cls-2" d="M40.52-21.11l0,0-.05,0v0l0,0Z" transform="translate(-0.07 21.8)"/><path class="cls-2" d="M42-21.15l0,0s0,0,0,0,.05,0,.06,0S42.05-21.14,42-21.15Z" transform="translate(-0.07 21.8)"/><path class="cls-2" d="M39-21.72v0h0s0,0,0,0h0v0s0,0,0,0,0,0,0,0h0S39-21.72,39-21.72Z" transform="translate(-0.07 21.8)"/><path class="cls-2" d="M39-21.68h0Z" transform="translate(-0.07 21.8)"/><path class="cls-2" d="M40.87-21.17v0h0s0,0,0,0,0,0,0-.06S40.89-21.14,40.87-21.17Z" transform="translate(-0.07 21.8)"/><path class="cls-2" d="M48.14-21.23v0l.09,0h0S48.16-21.18,48.14-21.23Z" transform="translate(-0.07 21.8)"/><path class="cls-2" d="M44.31-21.17l-.06,0h0l0,0Z" transform="translate(-0.07 21.8)"/><path class="cls-2" d="M43.06-21.16v.05h.05v0a.07.07,0,0,0,0,0Z" transform="translate(-0.07 21.8)"/><path class="cls-2" d="M45.11-21.17l0,0h.05s0,0,0,0Z" transform="translate(-0.07 21.8)"/><path class="cls-2" d="M46.53-21.24l-.06,0s.05,0,.07,0v0Z" transform="translate(-0.07 21.8)"/><path class="cls-2" d="M41.69-21.16s0,.06,0,.07,0,0,0,0,0,0,0,0S41.69-21.14,41.69-21.16Z" transform="translate(-0.07 21.8)"/><path class="cls-2" d="M37.42-21.74l.08,0h0S37.41-21.79,37.42-21.74Z" transform="translate(-0.07 21.8)"/><polygon class="cls-2" points="37.42 0.04 37.42 0.04 37.42 0.04 37.42 0.04"/><path class="cls-2" d="M37.5-21.76Z" transform="translate(-0.07 21.8)"/><path class="cls-2" d="M40.87-21.14h0Z" transform="translate(-0.07 21.8)"/><path class="cls-2" d="M40.85-21.18h0v0l0,.06v0S40.83-21.16,40.85-21.18Z" transform="translate(-0.07 21.8)"/><polygon class="cls-2" points="40.79 0.66 40.79 0.66 40.79 0.66 40.79 0.66"/><polygon class="cls-2" points="40.79 0.66 40.79 0.66 40.79 0.66 40.79 0.66"/><path class="cls-2" d="M44.55-21.23Z" transform="translate(-0.07 21.8)"/><path class="cls-2" d="M44.54-21.24s0,0,0,0a.43.43,0,0,0,0,.05h0v0h0Z" transform="translate(-0.07 21.8)"/><polygon class="cls-2" points="44.47 0.57 44.47 0.57 44.47 0.57 44.47 0.57"/><path class="cls-2" d="M44-21.13h0A0,0,0,0,0,44-21.13Z" transform="translate(-0.07 21.8)"/><path class="cls-2" d="M38.52-21.34s0,0,0,0,0-.06-.06,0l0,0S38.52-21.33,38.52-21.34Z" transform="translate(-0.07 21.8)"/><path class="cls-2" d="M38.26-21.42s0,0,0,0l.05,0-.06,0Z" transform="translate(-0.07 21.8)"/><path class="cls-1" d="M48.88-21.28h-.17l.09,0Z" transform="translate(-0.07 21.8)"/><path class="cls-1" d="M48.83-21.37s0,0,0,0l.09,0h0Z" transform="translate(-0.07 21.8)"/><path class="cls-1" d="M49.07-21.35s0,0,0,0h.07a.45.45,0,0,0-.11,0C49-21.37,49.05-21.36,49.07-21.35Z" transform="translate(-0.07 21.8)"/><path class="cls-1" d="M48.84-21.23s0,0,0,0,0,0,0,0,0,0,0,0h-.07Z" transform="translate(-0.07 21.8)"/><path class="cls-1" d="M49.06-21.33H49s0,0,0,0l0,0v0s0,0,0,0-.06,0,0,0a0,0,0,0,0,0,0l0,0h0l0,0h.13S49.07-21.33,49.06-21.33Z" transform="translate(-0.07 21.8)"/><path class="cls-2" d="M50-21.41s0,.07-.05,0l0,0,0,0c.07.06-.11,0,0,.08s-.07.06-.12.06,0,0,0,0,.05,0,0,0h.08v0h-.1l0,0h-.11a.25.25,0,0,0-.17,0s0,0,0,0,0,0,0,0h0a.33.33,0,0,0-.24,0h0s0,0,0,0h0s0,0,0,0l.06,0a.05.05,0,0,1,0,0h-.05l-.15,0v0s0,0,0,0,0,0,0,0h0s0,0-.08,0h0l0,0v-.07l.09,0,.08,0h-.17v-.39h.08c0,.09.05,0,.08,0a.1.1,0,0,0,.07,0h0v0h.08l.23,0h.08a.44.44,0,0,1,.23,0v0s0,0,0,0l0,0s.06,0,.09,0h0s0,0,0,0,.06,0,.06.06,0,0,.05,0h0a.05.05,0,0,0,0,0s0,0,0,0h0s0,.05,0,.08h.06S50-21.43,50-21.41Zm-1.09.07-.07,0s0,0,0,0l.09,0Zm0,.09h-.07v0s0,0,0,0,0,0,0,0S48.9-21.23,48.91-21.25Zm.17-.05s0,0,0,0H49s0,0,0,0l0,0v0s0,0,0,0-.06,0,0,0a0,0,0,0,0,0,0l0,0h0l0,0h.13Zm.09,0a.45.45,0,0,0-.11,0c-.06,0,0,0,0,0s0,0,0,0Z" transform="translate(-0.07 21.8)"/><path class="cls-2" d="M50-21.62h0l.06.07v0Z" transform="translate(-0.07 21.8)"/></g></g></svg>