<svg xmlns="http://www.w3.org/2000/svg" xmlns:xlink="http://www.w3.org/1999/xlink" viewBox="0 0 139.9 114.25"><defs><style>.cls-1,.cls-5{fill:none;}.cls-2{clip-path:url(#clip-path);}.cls-3{fill:#85b7d5;}.cls-4{fill:#fff;}.cls-5{stroke:#85b7d5;stroke-miterlimit:10;stroke-width:0.78px;}</style><clipPath id="clip-path" transform="translate(-5.44 -3.89)"><rect class="cls-1" width="157" height="122.02"/></clipPath></defs><g id="レイヤー_2" data-name="レイヤー 2"><g id="モバMAIN"><g id="こうぼうロゴ"><g class="cls-2"><g class="cls-2"><path class="cls-3" d="M132.45,111.81c-20.56,6-39.17,7-62.54,6-18-.85-50.71-2.13-55.69-4.25-6-2.55-9.42-11.05-8.56-18.7S3.09,20.88,9.08,14.09C16.22,6,31.47,4,51.06,3.89c16.56-.05,32.37.88,54,1.7,11.9.45,34.13,1.75,36.83,7.65,4.29,9.34,4.29,48.43,1.72,80.73-.55,6.85-5.49,16.21-11.14,17.84" transform="translate(-5.44 -3.89)"/><path class="cls-4" d="M28.26,21.52c2.43.2,2.12,0,5,.12a10.62,10.62,0,0,0,2.3-.12,34.94,34.94,0,0,1,11.56.11,4.19,4.19,0,0,1,2.79,1.73c.6,1-.61,4.68-1.7,4.78l-5.86.53a1.87,1.87,0,0,0-1.61.75,2.43,2.43,0,0,0-.17,1.26q.26,8,.53,16a3.45,3.45,0,0,0,3.25,3.16,8.77,8.77,0,0,0,4.47-1.47,2.29,2.29,0,0,1,.69,2.82,4.83,4.83,0,0,1-2.11,2.11c-4,2.41-10.39,3-14.8,1.86a7.87,7.87,0,0,1-4-2.24,4.85,4.85,0,0,1-1-4.74c.64-1.56,2.64-2.32,3.79-1.19.45.44.72,1.09,1.17,1.54s1.23.62,1.58.08L33.7,30.25a1.55,1.55,0,0,0-.23-.94,1.06,1.06,0,0,0-.71-.3,17.09,17.09,0,0,0-7.59.35,3.83,3.83,0,0,1-2.81-.07c-1.49-.94-.38-5.6,1-6.76s3.22-1.14,4.92-1" transform="translate(-5.44 -3.89)"/><path class="cls-5" d="M28.26,21.52c2.43.2,2.12,0,5,.12a10.62,10.62,0,0,0,2.3-.12,34.94,34.94,0,0,1,11.56.11,4.19,4.19,0,0,1,2.79,1.73c.6,1-.61,4.68-1.7,4.78l-5.86.53a1.87,1.87,0,0,0-1.61.75,2.43,2.43,0,0,0-.17,1.26q.26,8,.53,16a3.45,3.45,0,0,0,3.25,3.16,8.77,8.77,0,0,0,4.47-1.47,2.29,2.29,0,0,1,.69,2.82,4.83,4.83,0,0,1-2.11,2.11c-4,2.41-10.39,3-14.8,1.86a7.87,7.87,0,0,1-4-2.24,4.85,4.85,0,0,1-1-4.74c.64-1.56,2.64-2.32,3.79-1.19.45.44.72,1.09,1.17,1.54s1.23.62,1.58.08L33.7,30.25a1.55,1.55,0,0,0-.23-.94,1.06,1.06,0,0,0-.71-.3,17.09,17.09,0,0,0-7.59.35,3.83,3.83,0,0,1-2.81-.07c-1.49-.94-.38-5.6,1-6.76s3.22-1.14,4.92-1" transform="translate(-5.44 -3.89)"/><path class="cls-4" d="M123,32.11a1.78,1.78,0,0,1-.53.72,5.71,5.71,0,0,1-5,1.61c-.75-.15-1,1.34-1,2.42l.09,7.49A2.59,2.59,0,0,0,118.45,47a3.4,3.4,0,0,0,2.69-1.38,8.85,8.85,0,0,1,1.6-1.63,1.27,1.27,0,0,1,1.83.3,6.85,6.85,0,0,1,.33,4.13,5,5,0,0,1-1.6,1.77c-2.87,2.21-6.29,2.62-9.55,2.81a9.2,9.2,0,0,1-8.67-5.21,3,3,0,0,1,2.66-2.53A5,5,0,0,1,111,46.71c.66.55,1.16-1.05,1.12-2.15l-.3-10.44a3.47,3.47,0,0,0-.12-1,1.62,1.62,0,0,0-1.72-1l-6.45-.22a2.38,2.38,0,0,1-1.64-.49c-.85-.79-.93-2.65-.4-3.89a4.94,4.94,0,0,1,2.46-2.44c4.37-2.23,9.19-.9,13.74.45A9.29,9.29,0,0,1,121,27.1a5.78,5.78,0,0,1,2,4,2.39,2.39,0,0,1-.1,1" transform="translate(-5.44 -3.89)"/><path class="cls-5" d="M123,32.11a1.78,1.78,0,0,1-.53.72,5.71,5.71,0,0,1-5,1.61c-.75-.15-1,1.34-1,2.42l.09,7.49A2.59,2.59,0,0,0,118.45,47a3.4,3.4,0,0,0,2.69-1.38,8.85,8.85,0,0,1,1.6-1.63,1.27,1.27,0,0,1,1.83.3,6.85,6.85,0,0,1,.33,4.13,5,5,0,0,1-1.6,1.77c-2.87,2.21-6.29,2.62-9.55,2.81a9.2,9.2,0,0,1-8.67-5.21,3,3,0,0,1,2.66-2.53A5,5,0,0,1,111,46.71c.66.55,1.16-1.05,1.12-2.15l-.3-10.44a3.47,3.47,0,0,0-.12-1,1.62,1.62,0,0,0-1.72-1l-6.45-.22a2.38,2.38,0,0,1-1.64-.49c-.85-.79-.93-2.65-.4-3.89a4.94,4.94,0,0,1,2.46-2.44c4.37-2.23,9.19-.9,13.74.45A9.29,9.29,0,0,1,121,27.1a5.78,5.78,0,0,1,2,4,2.39,2.39,0,0,1-.1,1" transform="translate(-5.44 -3.89)"/><path class="cls-4" d="M51.87,30.37a3.45,3.45,0,0,1,2.68-2.82,5.69,5.69,0,0,1,1.54.07c4.63.63,9.86,1.59,12.28,5.13a10.29,10.29,0,0,1,1.48,4c.78,4.28.24,8.66-.29,13a1.54,1.54,0,0,1-.31.88,2,2,0,0,1-.61.4,8.66,8.66,0,0,1-4.36,1.16c-1.53-.14-3-1.47-2.53-2.76A54.11,54.11,0,0,0,64,41.46c.36-1.75.58-3.7-.57-5.16s-3.57-2-5.63-1.69a10,10,0,0,1-3.38.28c-2.05-.43-3-2.69-2.55-4.52" transform="translate(-5.44 -3.89)"/><path class="cls-5" d="M51.87,30.37a3.45,3.45,0,0,1,2.68-2.82,5.69,5.69,0,0,1,1.54.07c4.63.63,9.86,1.59,12.28,5.13a10.29,10.29,0,0,1,1.48,4c.78,4.28.24,8.66-.29,13a1.54,1.54,0,0,1-.31.88,2,2,0,0,1-.61.4,8.66,8.66,0,0,1-4.36,1.16c-1.53-.14-3-1.47-2.53-2.76A54.11,54.11,0,0,0,64,41.46c.36-1.75.58-3.7-.57-5.16s-3.57-2-5.63-1.69a10,10,0,0,1-3.38.28c-2.05-.43-3-2.69-2.55-4.52" transform="translate(-5.44 -3.89)"/><path class="cls-4" d="M89,22.49a6,6,0,0,1,3.82,1.76,6.19,6.19,0,0,1,.93,3.63Q94,33.42,94.25,39c.19,4.69.29,9.73-2.39,13.61a4.51,4.51,0,0,1-3,2.14c-1.25.14-2.65-1-2.37-2.17a72.78,72.78,0,0,0,1.59-24.3c-.13-1.3-.53-2.86-1.82-3.18-1-.24-.91-1.74-.11-2.31A3.86,3.86,0,0,1,89,22.49" transform="translate(-5.44 -3.89)"/><path class="cls-5" d="M89,22.49a6,6,0,0,1,3.82,1.76,6.19,6.19,0,0,1,.93,3.63Q94,33.42,94.25,39c.19,4.69.29,9.73-2.39,13.61a4.51,4.51,0,0,1-3,2.14c-1.25.14-2.65-1-2.37-2.17a72.78,72.78,0,0,0,1.59-24.3c-.13-1.3-.53-2.86-1.82-3.18-1-.24-.91-1.74-.11-2.31A3.86,3.86,0,0,1,89,22.49" transform="translate(-5.44 -3.89)"/><path class="cls-4" d="M82.34,40.66a4.57,4.57,0,0,1-3.17,1.6c-1.87-.13-3-2.43-3.9-4.45s-1.69-4-2.54-6A15.54,15.54,0,0,1,71.51,28a8.07,8.07,0,0,1,2-6.73,2.28,2.28,0,0,1,2.25-.84c1.3.44,1.6,2.47,1.73,4.1A64.79,64.79,0,0,0,79,34.41a4.47,4.47,0,0,0,1,2.22,1.12,1.12,0,0,0,1.84-.24,1.06,1.06,0,0,1,1.85-.12,2.73,2.73,0,0,1,.13,2.48,5.74,5.74,0,0,1-1.48,1.91" transform="translate(-5.44 -3.89)"/><path class="cls-5" d="M82.34,40.66a4.57,4.57,0,0,1-3.17,1.6c-1.87-.13-3-2.43-3.9-4.45s-1.69-4-2.54-6A15.54,15.54,0,0,1,71.51,28a8.07,8.07,0,0,1,2-6.73,2.28,2.28,0,0,1,2.25-.84c1.3.44,1.6,2.47,1.73,4.1A64.79,64.79,0,0,0,79,34.41a4.47,4.47,0,0,0,1,2.22,1.12,1.12,0,0,0,1.84-.24,1.06,1.06,0,0,1,1.85-.12,2.73,2.73,0,0,1,.13,2.48,5.74,5.74,0,0,1-1.48,1.91" transform="translate(-5.44 -3.89)"/><path class="cls-4" d="M121.2,82.73c-1-1.5-3-1.52-4.72-1.49a10.49,10.49,0,0,1-4.31-.64,4.76,4.76,0,0,1-2.84-3.32c-.29-1.54.58-3.34,2-3.64a11,11,0,0,0,5.1.87,16.36,16.36,0,0,1,6.08,1.09,8,8,0,0,1,4.4,4.43,12.08,12.08,0,0,1,.47,4.64,20.5,20.5,0,0,1-1.75,8.17c-1.23,2.48-3.45,4.54-6,4.86a6.37,6.37,0,0,1-6-3,4.35,4.35,0,0,1-.62-3.54,2.09,2.09,0,0,1,2.79-1.38c.52.31.85.89,1.33,1.26,1.18.92,3,.27,3.8-1a7.68,7.68,0,0,0,1-4.48,5.23,5.23,0,0,0-.63-2.8" transform="translate(-5.44 -3.89)"/><path class="cls-5" d="M121.2,82.73c-1-1.5-3-1.52-4.72-1.49a10.49,10.49,0,0,1-4.31-.64,4.76,4.76,0,0,1-2.84-3.32c-.29-1.54.58-3.34,2-3.64a11,11,0,0,0,5.1.87,16.36,16.36,0,0,1,6.08,1.09,8,8,0,0,1,4.4,4.43,12.08,12.08,0,0,1,.47,4.64,20.5,20.5,0,0,1-1.75,8.17c-1.23,2.48-3.45,4.54-6,4.86a6.37,6.37,0,0,1-6-3,4.35,4.35,0,0,1-.62-3.54,2.09,2.09,0,0,1,2.79-1.38c.52.31.85.89,1.33,1.26,1.18.92,3,.27,3.8-1a7.68,7.68,0,0,0,1-4.48,5.23,5.23,0,0,0-.63-2.8" transform="translate(-5.44 -3.89)"/><path class="cls-4" d="M111.7,58.43a12.26,12.26,0,0,1,4.58,9.6,2.17,2.17,0,0,1-.24,1.16c-.48.74-1.54.59-2.3.22A9.16,9.16,0,0,1,109,60c.14-1,.64-2.08,1.54-2.09a1.93,1.93,0,0,1,1.15.5" transform="translate(-5.44 -3.89)"/><path class="cls-5" d="M111.7,58.43a12.26,12.26,0,0,1,4.58,9.6,2.17,2.17,0,0,1-.24,1.16c-.48.74-1.54.59-2.3.22A9.16,9.16,0,0,1,109,60c.14-1,.64-2.08,1.54-2.09a1.93,1.93,0,0,1,1.15.5" transform="translate(-5.44 -3.89)"/><path class="cls-4" d="M35.81,76.51c-1.26,0-3.23-2.13-5.05-2.9a17.9,17.9,0,0,1-4.55-3.19c-1.38-1.19-2.9-2.76-2.62-4.64a3.4,3.4,0,0,1,3-2.67,7.12,7.12,0,0,1,4,1.1,21.2,21.2,0,0,1,5.66,4.52,4.64,4.64,0,0,1,1.5,3.37,5,5,0,0,1-.63,1.74c-.44.89-.08,2.67-1.34,2.67" transform="translate(-5.44 -3.89)"/><path class="cls-5" d="M35.81,76.51c-1.26,0-3.23-2.13-5.05-2.9a17.9,17.9,0,0,1-4.55-3.19c-1.38-1.19-2.9-2.76-2.62-4.64a3.4,3.4,0,0,1,3-2.67,7.12,7.12,0,0,1,4,1.1,21.2,21.2,0,0,1,5.66,4.52,4.64,4.64,0,0,1,1.5,3.37,5,5,0,0,1-.63,1.74c-.44.89-.08,2.67-1.34,2.67" transform="translate(-5.44 -3.89)"/><path class="cls-4" d="M41.21,90.61a1.83,1.83,0,0,1-.31,2.17,3.81,3.81,0,0,1-2,1,17.71,17.71,0,0,1-8.62-.07,5.33,5.33,0,0,1-3.72-2.55c-.68-1.46.22-3.71,1.73-3.58,1,.09,1.64-1.19,2.6-1.51a3,3,0,0,1,1.61.06c3.22.75,6.72,1.68,8.7,4.51" transform="translate(-5.44 -3.89)"/><path class="cls-5" d="M41.21,90.61a1.83,1.83,0,0,1-.31,2.17,3.81,3.81,0,0,1-2,1,17.71,17.71,0,0,1-8.62-.07,5.33,5.33,0,0,1-3.72-2.55c-.68-1.46.22-3.71,1.73-3.58,1,.09,1.64-1.19,2.6-1.51a3,3,0,0,1,1.61.06c3.22.75,6.72,1.68,8.7,4.51" transform="translate(-5.44 -3.89)"/><path class="cls-4" d="M52.86,92.69c1.61-1.12,1.81-3.61,1.36-5.62a7.6,7.6,0,0,0-2-3.88,3.62,3.62,0,0,0-3.88-.85,4,4,0,0,1-5.3-2.59c-.57-2.29,1.56-4.91,3.7-4.36l7.64,2c1.74.44,3.72,1.11,4.36,2.9A6.32,6.32,0,0,1,59,81.89a40.69,40.69,0,0,1-1.43,13.5c-.45,1.62-1.19,3.41-2.68,4a3,3,0,0,1-3.72-2.23,4.24,4.24,0,0,1,1.66-4.42" transform="translate(-5.44 -3.89)"/><path class="cls-5" d="M52.86,92.69c1.61-1.12,1.81-3.61,1.36-5.62a7.6,7.6,0,0,0-2-3.88,3.62,3.62,0,0,0-3.88-.85,4,4,0,0,1-5.3-2.59c-.57-2.29,1.56-4.91,3.7-4.36l7.64,2c1.74.44,3.72,1.11,4.36,2.9A6.32,6.32,0,0,1,59,81.89a40.69,40.69,0,0,1-1.43,13.5c-.45,1.62-1.19,3.41-2.68,4a3,3,0,0,1-3.72-2.23,4.24,4.24,0,0,1,1.66-4.42" transform="translate(-5.44 -3.89)"/><path class="cls-4" d="M52.35,71.8a2.07,2.07,0,0,1-1.23,0,7.86,7.86,0,0,1-4.6-3.22c-.85-1.24-1.47-2.81-2.77-3.44-.68-.33,0-1.32.55-1.63a5.92,5.92,0,0,1,6.3.1,6.9,6.9,0,0,1,2.89,6,2.39,2.39,0,0,1-1.14,2.18" transform="translate(-5.44 -3.89)"/><path class="cls-5" d="M52.35,71.8a2.07,2.07,0,0,1-1.23,0,7.86,7.86,0,0,1-4.6-3.22c-.85-1.24-1.47-2.81-2.77-3.44-.68-.33,0-1.32.55-1.63a5.92,5.92,0,0,1,6.3.1,6.9,6.9,0,0,1,2.89,6,2.39,2.39,0,0,1-1.14,2.18" transform="translate(-5.44 -3.89)"/><path class="cls-4" d="M88.33,96.11a6.92,6.92,0,0,1-5.87-4c-1-2.37-.4-5.56,1.65-7a4.75,4.75,0,0,0,2-3.86c0-1.54-2.7-2.65-4-3.16s-2.68-.08-4-.37-.79-2.42.1-3.51c.68-.83,1.92-.49,2.91-.15s2.33.45,2.78-.56-.65-2.2-1.72-2.53-2.32-.42-3-1.37a2.62,2.62,0,0,1,.15-2.9,3.84,3.84,0,0,1,2.52-1.41c2.7-.43,5.3,1.1,7.66,2.57a3.56,3.56,0,0,1,1.92,2.16c.17,1-1.08,2.11-1.73,1.35s-1.54.41-1.25,1.2a2.16,2.16,0,0,0,2,1.12c.79.05,2.74.07,3.38.56s.75,1.78,0,2c-2.22.77-4.18,4.24-2.59,6.09A7,7,0,0,0,93.45,84l8.69,4.4c1.4.71,1.39,3.14.19,4.2A3.78,3.78,0,0,1,98,92.7a13.49,13.49,0,0,1-3.37-3.41,1,1,0,0,0-.65-.48c-.8-.06-.59,1.3-.35,2.11a4,4,0,0,1-1.29,4,5.44,5.44,0,0,1-4,1.17m-.45-8.3c-.47-.21-.85.49-.84,1a3.07,3.07,0,0,0,1.69,2.69,4.29,4.29,0,0,0-.53-3.41.89.89,0,0,0-.32-.32" transform="translate(-5.44 -3.89)"/><path class="cls-5" d="M88.33,96.11a6.92,6.92,0,0,1-5.87-4c-1-2.37-.4-5.56,1.65-7a4.75,4.75,0,0,0,2-3.86c0-1.54-2.7-2.65-4-3.16s-2.68-.08-4-.37-.79-2.42.1-3.51c.68-.83,1.92-.49,2.91-.15s2.33.45,2.78-.56-.65-2.2-1.72-2.53-2.32-.42-3-1.37a2.62,2.62,0,0,1,.15-2.9,3.84,3.84,0,0,1,2.52-1.41c2.7-.43,5.3,1.1,7.66,2.57a3.56,3.56,0,0,1,1.92,2.16c.17,1-1.08,2.11-1.73,1.35s-1.54.41-1.25,1.2a2.16,2.16,0,0,0,2,1.12c.79.05,2.74.07,3.38.56s.75,1.78,0,2c-2.22.77-4.18,4.24-2.59,6.09A7,7,0,0,0,93.45,84l8.69,4.4c1.4.71,1.39,3.14.19,4.2A3.78,3.78,0,0,1,98,92.7a13.49,13.49,0,0,1-3.37-3.41,1,1,0,0,0-.65-.48c-.8-.06-.59,1.3-.35,2.11a4,4,0,0,1-1.29,4,5.44,5.44,0,0,1-4,1.17m-.45-8.3c-.47-.21-.85.49-.84,1a3.07,3.07,0,0,0,1.69,2.69,4.29,4.29,0,0,0-.53-3.41.89.89,0,0,0-.32-.32" transform="translate(-5.44 -3.89)"/><path class="cls-4" d="M63.59,72.94c-.16-1.64-.24-3.44.64-4.79s4.26-2.85,5-1.4a4.38,4.38,0,0,1,.18,2.31A27.11,27.11,0,0,0,73,85c.52.88,1.22,1.82,2.2,1.91,1.36.11,2.4-1.48,3.76-1.57S80,87.68,80.09,89a4.46,4.46,0,0,1-1.64,3.4,6,6,0,0,1-6.73.77A10.29,10.29,0,0,1,68,89c-2.68-4.81-3.84-10.44-4.39-16" transform="translate(-5.44 -3.89)"/><path class="cls-5" d="M63.59,72.94c-.16-1.64-.24-3.44.64-4.79s4.26-2.85,5-1.4a4.38,4.38,0,0,1,.18,2.31A27.11,27.11,0,0,0,73,85c.52.88,1.22,1.82,2.2,1.91,1.36.11,2.4-1.48,3.76-1.57S80,87.68,80.09,89a4.46,4.46,0,0,1-1.64,3.4,6,6,0,0,1-6.73.77A10.29,10.29,0,0,1,68,89c-2.68-4.81-3.84-10.44-4.39-16" transform="translate(-5.44 -3.89)"/><path class="cls-4" d="M101.41,72.47a6.77,6.77,0,0,1-.17,3.35,2.78,2.78,0,0,1-2.36,2c-1.38,0-2.38-1.39-3.07-2.68-.38-.73-.74-1.47-1.07-2.22a3,3,0,0,1-.35-2A2.77,2.77,0,0,1,96,69.35a4.14,4.14,0,0,1,3.29-.51c1.29.54,1.87,2.16,2.09,3.63" transform="translate(-5.44 -3.89)"/><path class="cls-5" d="M101.41,72.47a6.77,6.77,0,0,1-.17,3.35,2.78,2.78,0,0,1-2.36,2c-1.38,0-2.38-1.39-3.07-2.68-.38-.73-.74-1.47-1.07-2.22a3,3,0,0,1-.35-2A2.77,2.77,0,0,1,96,69.35a4.14,4.14,0,0,1,3.29-.51c1.29.54,1.87,2.16,2.09,3.63" transform="translate(-5.44 -3.89)"/><path class="cls-4" d="M105.36,69.34a9.43,9.43,0,0,1-6.5-4.92,3.6,3.6,0,0,1-.47-2.64c.43-1.41,2.08-1.83,3.45-1.88a2.85,2.85,0,0,1,1.73.33,3.38,3.38,0,0,1,1,1.36,35.63,35.63,0,0,1,1.85,4.79,3.81,3.81,0,0,1,.23,1.88c-.14.62-.68,1.19-1.27,1.08" transform="translate(-5.44 -3.89)"/><path class="cls-5" d="M105.36,69.34a9.43,9.43,0,0,1-6.5-4.92,3.6,3.6,0,0,1-.47-2.64c.43-1.41,2.08-1.83,3.45-1.88a2.85,2.85,0,0,1,1.73.33,3.38,3.38,0,0,1,1,1.36,35.63,35.63,0,0,1,1.85,4.79,3.81,3.81,0,0,1,.23,1.88c-.14.62-.68,1.19-1.27,1.08" transform="translate(-5.44 -3.89)"/></g></g></g></g></g></svg>