<svg id="レイヤー_1" data-name="レイヤー 1" xmlns="http://www.w3.org/2000/svg" xmlns:xlink="http://www.w3.org/1999/xlink" viewBox="0 0 299 57.31"><defs><style>.cls-1{fill:none;}.cls-2{clip-path:url(#clip-path);}.cls-3{clip-path:url(#clip-path-2);}.cls-4{fill:#271a10;}</style><clipPath id="clip-path" transform="translate(0 0)"><rect class="cls-1" width="299" height="57.31"/></clipPath><clipPath id="clip-path-2" transform="translate(0 0)"><rect class="cls-1" width="299" height="57.31"/></clipPath></defs><g id="KoboLogo"><g class="cls-2"><g class="cls-3"><path class="cls-4" d="M9.13,7.67c3.35.27,2.92,0,6.84.16a14.55,14.55,0,0,0,3.18-.16,48.37,48.37,0,0,1,16,.15A5.8,5.8,0,0,1,39,10.21c.82,1.43-.85,6.45-2.34,6.59l-8.09.73a2.58,2.58,0,0,0-2.22,1,3.45,3.45,0,0,0-.24,1.73q.36,11.06.73,22.12a4.76,4.76,0,0,0,4.49,4.35c2.16.12,4.21-1,6.17-2,1.21.6,1.52,2.52.94,3.87a6.63,6.63,0,0,1-2.91,2.92C30,54.87,21.16,55.73,15.06,54.12A10.78,10.78,0,0,1,9.5,51a6.66,6.66,0,0,1-1.35-6.53c.87-2.16,3.63-3.21,5.22-1.65.62.61,1,1.51,1.61,2.13s1.7.86,2.19.1q-.27-12.68-.55-25.36a2.07,2.07,0,0,0-.31-1.29,1.51,1.51,0,0,0-1-.42,23.92,23.92,0,0,0-10.47.48c-1.29.28-2.71.62-3.86-.1C-1.08,17.1.45,10.67,2.34,9.06S6.78,7.48,9.13,7.67" transform="translate(0 0)"/><path class="cls-4" d="M139.11,22.28a2.49,2.49,0,0,1-.73,1,7.84,7.84,0,0,1-6.87,2.22c-1-.2-1.43,1.85-1.41,3.33l.12,10.34a3.56,3.56,0,0,0,2.67,3.61c1.34.17,2.64-.73,3.7-1.9a12.15,12.15,0,0,1,2.22-2.25,1.74,1.74,0,0,1,2.52.42c.65,1,1,4.58.45,5.69a6.82,6.82,0,0,1-2.2,2.45c-4,3-8.68,3.62-13.18,3.88a12.71,12.71,0,0,1-12-7.2,4.18,4.18,0,0,1,3.68-3.49,6.94,6.94,0,0,1,4.42,2c.92.77,1.6-1.44,1.55-3l-.42-14.4a4.59,4.59,0,0,0-.16-1.35,2.25,2.25,0,0,0-2.37-1.4l-8.9-.3a3.19,3.19,0,0,1-2.26-.68c-1.18-1.09-1.29-3.66-.55-5.36a6.83,6.83,0,0,1,3.38-3.37c6-3.08,12.68-1.24,18.95.63a12.54,12.54,0,0,1,4.68,2.14,8,8,0,0,1,2.81,5.49,3.58,3.58,0,0,1-.14,1.43" transform="translate(0 0)"/><path class="cls-4" d="M41.05,19.88A4.75,4.75,0,0,1,44.74,16a7.63,7.63,0,0,1,2.13.09c6.38.87,13.59,2.2,16.93,7.07a14,14,0,0,1,2,5.49c1.08,5.9.34,11.94-.4,17.88A2.14,2.14,0,0,1,65,47.74a2.74,2.74,0,0,1-.85.54c-1.87.88-3.89,1.79-6,1.59s-4.16-2-3.5-3.8a73.82,73.82,0,0,0,3.11-10.9c.5-2.41.8-5.1-.79-7.11s-4.92-2.75-7.77-2.34c-1.55.23-3.13.72-4.66.39-2.83-.59-4.06-3.71-3.51-6.23" transform="translate(0 0)"/><path class="cls-4" d="M92.32,9c2,.35,4.05.89,5.26,2.43,1.1,1.38,1.21,3.26,1.29,5l.63,15.29c.27,6.46.4,13.42-3.3,18.78a6.18,6.18,0,0,1-4.07,2.94c-1.74.19-3.67-1.32-3.27-3a100.88,100.88,0,0,0,2.19-33.53c-.18-1.79-.74-4-2.51-4.39-1.31-.33-1.26-2.4-.16-3.18S91,8.77,92.32,9" transform="translate(0 0)"/><path class="cls-4" d="M83.08,34.07c-1.29,1.19-2.77,2.33-4.38,2.21-2.57-.18-4.2-3.35-5.38-6.14S71,24.6,69.82,21.83a22.29,22.29,0,0,1-1.69-5.16,11.21,11.21,0,0,1,2.76-9.29c.87-.87,2-1.54,3.11-1.16,1.79.61,2.21,3.4,2.39,5.66a88.79,88.79,0,0,0,2.1,13.56,6.3,6.3,0,0,0,1.36,3.08,1.56,1.56,0,0,0,2.54-.33A1.46,1.46,0,0,1,84.93,28a3.71,3.71,0,0,1,.18,3.42,7.8,7.8,0,0,1-2,2.63" transform="translate(0 0)"/><path class="cls-4" d="M290.43,34.21c-1.37-2.07-4.16-2.1-6.52-2.06a14.42,14.42,0,0,1-5.94-.88,6.55,6.55,0,0,1-3.92-4.58c-.4-2.12.8-4.6,2.78-5,2.13,1.18,4.63,1.13,7,1.2a22.37,22.37,0,0,1,8.38,1.51,11,11,0,0,1,6.08,6.11,16.77,16.77,0,0,1,.64,6.4,28.31,28.31,0,0,1-2.41,11.27c-1.7,3.42-4.76,6.26-8.34,6.69a8.77,8.77,0,0,1-8.33-4.17A6,6,0,0,1,279,45.8c.55-1.62,2.44-2.72,3.84-1.9.72.42,1.18,1.22,1.84,1.74,1.63,1.26,4.08.36,5.25-1.39a10.63,10.63,0,0,0,1.33-6.18,7.22,7.22,0,0,0-.86-3.86" transform="translate(0 0)"/><path class="cls-4" d="M278,.7a16.83,16.83,0,0,1,6.32,13.23,3,3,0,0,1-.33,1.6c-.66,1-2.12.81-3.17.31-4.49-2.15-7.31-7.74-6.53-13,.2-1.32.89-2.86,2.14-2.88A2.67,2.67,0,0,1,278,.7" transform="translate(0 0)"/><path class="cls-4" d="M173.28,25.63c-1.74,0-4.46-2.94-7-4a25.09,25.09,0,0,1-6.28-4.4c-1.9-1.64-4-3.81-3.6-6.4a4.67,4.67,0,0,1,4.16-3.68,9.72,9.72,0,0,1,5.53,1.51,29.59,29.59,0,0,1,7.81,6.24c1.14,1.28,2.25,2.88,2.07,4.65a6.93,6.93,0,0,1-.87,2.4c-.61,1.23-.11,3.68-1.85,3.68" transform="translate(0 0)"/><path class="cls-4" d="M180.72,45.08a2.5,2.5,0,0,1-.42,3,5.41,5.41,0,0,1-2.75,1.35,24.41,24.41,0,0,1-11.89-.11c-2-.54-4.19-1.5-5.13-3.52s.3-5.11,2.39-4.93c1.38.12,2.26-1.64,3.58-2.09a4.14,4.14,0,0,1,2.23.1c4.44,1,9.27,2.3,12,6.21" transform="translate(0 0)"/><path class="cls-4" d="M196.8,48c2.22-1.54,2.49-5,1.87-7.75a10.36,10.36,0,0,0-2.73-5.35,5,5,0,0,0-5.35-1.18,5.46,5.46,0,0,1-7.32-3.57c-.78-3.15,2.16-6.77,5.11-6l10.55,2.71c2.39.61,5.12,1.53,6,4a8.47,8.47,0,0,1,.37,2.25,56.15,56.15,0,0,1-2,18.62c-.63,2.24-1.64,4.7-3.7,5.45s-4.51-.81-5.13-3.07A5.84,5.84,0,0,1,196.8,48" transform="translate(0 0)"/><path class="cls-4" d="M196.1,19.13a2.79,2.79,0,0,1-1.69,0,10.83,10.83,0,0,1-6.36-4.45c-1.17-1.7-2-3.87-3.82-4.74-.93-.45.07-1.81.76-2.24a8.1,8.1,0,0,1,8.69.14,9.52,9.52,0,0,1,4,8.3c-.07,1.21-.51,2.59-1.57,3" transform="translate(0 0)"/><path class="cls-4" d="M245.73,52.67a9.57,9.57,0,0,1-8.11-5.51c-1.42-3.27-.54-7.67,2.29-9.6a6.52,6.52,0,0,0,2.8-5.32c0-2.12-3.72-3.66-5.59-4.36s-3.7-.11-5.51-.52-1.09-3.33.12-4.83c.94-1.15,2.66-.68,4-.22s3.22.62,3.84-.76-.9-3-2.37-3.49-3.21-.58-4.14-1.89a3.59,3.59,0,0,1,.21-4,5.25,5.25,0,0,1,3.47-1.94c3.72-.6,7.31,1.5,10.57,3.53,1.14.71,2.4,1.59,2.64,3s-1.49,2.9-2.38,1.86c-.74-.86-2.13.57-1.72,1.65a3,3,0,0,0,2.73,1.54c1.08.08,3.78.1,4.67.77s1,2.47,0,2.83c-3.08,1.07-5.78,5.86-3.58,8.41A9.66,9.66,0,0,0,252.8,36l12,6.07c1.94,1,1.93,4.33.27,5.79s-4.16,1.25-6,.15a18.4,18.4,0,0,1-4.65-4.7c-.24-.31-.52-.64-.9-.66-1.09-.08-.81,1.79-.48,2.91a5.57,5.57,0,0,1-1.78,5.54,7.53,7.53,0,0,1-5.46,1.62m-.62-11.45c-.65-.29-1.17.68-1.16,1.43a4.23,4.23,0,0,0,2.33,3.71,5.88,5.88,0,0,0-.74-4.7,1.07,1.07,0,0,0-.43-.44" transform="translate(0 0)"/><path class="cls-4" d="M211.6,20.71c-.22-2.26-.33-4.75.89-6.61s5.87-3.93,6.88-1.93a5.81,5.81,0,0,1,.26,3.19,37.33,37.33,0,0,0,4.89,21.93c.73,1.23,1.7,2.52,3,2.64,1.87.16,3.31-2,5.18-2.15,1.7-.11,1.55,3.26,1.62,5.09a6.13,6.13,0,0,1-2.26,4.69,8.23,8.23,0,0,1-9.28,1.07,14.32,14.32,0,0,1-5.17-5.81c-3.7-6.64-5.29-14.41-6.05-22.11" transform="translate(0 0)"/><path class="cls-4" d="M263.77,20.06a9.48,9.48,0,0,1-.23,4.62,3.82,3.82,0,0,1-3.25,2.68c-1.92,0-3.3-1.91-4.24-3.69-.53-1-1-2-1.48-3.06a4.13,4.13,0,0,1-.48-2.73,3.78,3.78,0,0,1,2.26-2.13c1.44-.69,3.07-1.3,4.54-.69,1.78.74,2.57,3,2.88,5" transform="translate(0 0)"/><path class="cls-4" d="M269.23,15.74a13,13,0,0,1-9-6.79,5,5,0,0,1-.65-3.65c.6-1.93,2.87-2.51,4.77-2.58a3.87,3.87,0,0,1,2.39.46,4.59,4.59,0,0,1,1.34,1.87,49.38,49.38,0,0,1,2.56,6.61,5.36,5.36,0,0,1,.31,2.59c-.19.86-.94,1.64-1.74,1.49" transform="translate(0 0)"/></g></g></g></svg>