<svg id="group1" xmlns="http://www.w3.org/2000/svg" viewBox="0 0 193.16 36.25"><defs><style>.cls-1{fill:#88bede;}.cls-2{fill:#fff;}.cls-3{fill:#d4145a;}.cls-4{fill:#271a10;}</style></defs><g id="Mark"><path class="cls-1" d="M53.52,37a1,1,0,0,0,.62.21,1,1,0,0,0,.61-1.78,7.61,7.61,0,0,0-3.28-1.26,11.31,11.31,0,0,0-.92-3.84c-.61-2.68-4-17.55-5.43-17.55-1.59,0-7.3,7.12-8.13,8.17a25.4,25.4,0,0,0-9,0c-.82-1-6.54-8.17-8.13-8.17C18.46,12.79,15,28,14.43,30.42a11,11,0,0,0-.89,3.81A9.36,9.36,0,0,0,8.9,35.68a1,1,0,1,0,1.24,1.57,7.33,7.33,0,0,1,3.47-1,10.77,10.77,0,0,0,.54,2.17c-2.14.57-4,1.35-5,2.46a1,1,0,0,0,.75,1.66,1,1,0,0,0,.75-.34c.7-.8,2.32-1.43,4.32-1.91,2.85,5.15,9.63,8.78,17.54,8.78s14.61-3.59,17.5-8.7a7,7,0,0,1,3,1.55,1,1,0,0,0,.75.33,1,1,0,0,0,.66-.25,1,1,0,0,0,.09-1.41,8.51,8.51,0,0,0-3.68-2.06,11.47,11.47,0,0,0,.57-2.31A5.13,5.13,0,0,1,53.52,37Z" transform="translate(-8.52 -12.79)"/><path class="cls-2" d="M39,39.21a1,1,0,0,0-1.37.32,3.85,3.85,0,0,1-2.31,1.74,2.27,2.27,0,0,1-1.43-.6,1.65,1.65,0,0,1-.56-1.26,1,1,0,0,0-1-1h-.07a1,1,0,0,0-1,1,1.61,1.61,0,0,1-.56,1.26,2.21,2.21,0,0,1-1.42.6A3.82,3.82,0,0,1,27,39.53a1,1,0,0,0-1.37-.33,1,1,0,0,0-.33,1.38c.16.25,1.6,2.49,3.84,2.68h.23A4.28,4.28,0,0,0,32,42.15c.09-.09.16-.18.24-.27.08.09.15.18.24.27a4.25,4.25,0,0,0,2.72,1.12h.23c2.24-.19,3.68-2.43,3.84-2.68A1,1,0,0,0,39,39.21Z" transform="translate(-8.52 -12.79)"/><path class="cls-3" d="M32.24,39.25c-1.13-.69-4.93-3.21-3.85-5.58s3.85,0,3.85,0,2.78-2.37,3.86,0S33.38,38.56,32.24,39.25Z" transform="translate(-8.52 -12.79)"/></g><g id="KoboLogo"><path class="cls-4" d="M62.55,21.53c1.61.13,1.4,0,3.29.08a7.64,7.64,0,0,0,1.52-.08A23.11,23.11,0,0,1,75,21.6a2.74,2.74,0,0,1,1.84,1.15c.4.68-.4,3.09-1.12,3.16l-3.88.35a1.24,1.24,0,0,0-1.07.5,1.65,1.65,0,0,0-.11.83L71,38.21a2.28,2.28,0,0,0,2.15,2.08,5.71,5.71,0,0,0,3-1,1.51,1.51,0,0,1,.46,1.86,3.21,3.21,0,0,1-1.4,1.4,14.09,14.09,0,0,1-9.8,1.23,5.19,5.19,0,0,1-2.67-1.48,3.19,3.19,0,0,1-.65-3.14,1.61,1.61,0,0,1,2.51-.79c.3.29.47.72.77,1s.82.41,1,0l-.26-12.17a1.06,1.06,0,0,0-.15-.62.76.76,0,0,0-.48-.21,11.37,11.37,0,0,0-5,.24,2.54,2.54,0,0,1-1.86,0c-1-.62-.25-3.7.65-4.47a4.32,4.32,0,0,1,3.26-.67" transform="translate(-8.52 -12.79)"/><path class="cls-4" d="M124.94,28.54a1.25,1.25,0,0,1-.35.48,3.79,3.79,0,0,1-3.3,1.06c-.5-.1-.69.89-.68,1.6l.06,5A1.71,1.71,0,0,0,122,38.37a2.23,2.23,0,0,0,1.78-.91,5.72,5.72,0,0,1,1.06-1.08.85.85,0,0,1,1.22.2,4.62,4.62,0,0,1,.21,2.73,3.21,3.21,0,0,1-1.06,1.18,10.83,10.83,0,0,1-6.32,1.86,6.09,6.09,0,0,1-5.74-3.45,2,2,0,0,1,1.76-1.68,3.37,3.37,0,0,1,2.13,1c.43.37.76-.69.74-1.42l-.2-6.91a2.75,2.75,0,0,0-.08-.65,1.08,1.08,0,0,0-1.14-.67L112,28.41a1.57,1.57,0,0,1-1.09-.33,2.55,2.55,0,0,1-.26-2.57,3.27,3.27,0,0,1,1.62-1.62c2.9-1.48,6.09-.6,9.1.3a6.18,6.18,0,0,1,2.25,1A3.82,3.82,0,0,1,125,27.85,1.75,1.75,0,0,1,124.94,28.54Z" transform="translate(-8.52 -12.79)"/><path class="cls-4" d="M77.87,27.39a2.29,2.29,0,0,1,1.77-1.87,3.88,3.88,0,0,1,1,0c3.07.42,6.53,1.06,8.13,3.4a6.62,6.62,0,0,1,1,2.63,28.4,28.4,0,0,1-.19,8.58,1.1,1.1,0,0,1-.2.59A1.43,1.43,0,0,1,89,41a5.67,5.67,0,0,1-2.88.76c-1-.09-2-1-1.68-1.82a35.75,35.75,0,0,0,1.49-5.23,4,4,0,0,0-.38-3.42,4.08,4.08,0,0,0-3.73-1.12,6.51,6.51,0,0,1-2.23.19A2.46,2.46,0,0,1,77.87,27.39Z" transform="translate(-8.52 -12.79)"/><path class="cls-4" d="M102.48,22.17A4,4,0,0,1,105,23.33a4.08,4.08,0,0,1,.61,2.41l.31,7.33c.13,3.11.19,6.45-1.59,9a2.93,2.93,0,0,1-2,1.41c-.83.09-1.76-.63-1.57-1.43A48.4,48.4,0,0,0,101.87,26c-.09-.86-.35-1.9-1.2-2.11-.63-.16-.61-1.15-.08-1.52A2.5,2.5,0,0,1,102.48,22.17Z" transform="translate(-8.52 -12.79)"/><path class="cls-4" d="M98,34.2a3,3,0,0,1-2.1,1.06c-1.23-.09-2-1.61-2.58-2.95l-1.68-4a11,11,0,0,1-.81-2.47,5.38,5.38,0,0,1,1.32-4.46,1.54,1.54,0,0,1,1.5-.56c.86.3,1.06,1.64,1.14,2.72a43,43,0,0,0,1,6.51,3,3,0,0,0,.65,1.47.74.74,0,0,0,1.22-.15.7.7,0,0,1,1.22-.08A1.75,1.75,0,0,1,99,32.94a3.82,3.82,0,0,1-1,1.26Z" transform="translate(-8.52 -12.79)"/><path class="cls-4" d="M197.56,34.27c-.66-1-2-1-3.13-1a6.92,6.92,0,0,1-2.85-.42,3.18,3.18,0,0,1-1.88-2.2A2.08,2.08,0,0,1,191,28.25a7.32,7.32,0,0,0,3.38.57,10.77,10.77,0,0,1,4,.73,5.28,5.28,0,0,1,2.92,2.93,8.13,8.13,0,0,1,.31,3.07A13.53,13.53,0,0,1,200.5,41a5.53,5.53,0,0,1-4,3.21,4.2,4.2,0,0,1-4-2,2.87,2.87,0,0,1-.41-2.34,1.37,1.37,0,0,1,1.85-.91c.34.2.56.58.88.83a1.84,1.84,0,0,0,2.52-.66,5.26,5.26,0,0,0,.64-3A3.42,3.42,0,0,0,197.56,34.27Z" transform="translate(-8.52 -12.79)"/><path class="cls-4" d="M191.58,18.18a8.1,8.1,0,0,1,3,6.36,1.41,1.41,0,0,1-.16.76c-.31.49-1,.39-1.52.15a6.08,6.08,0,0,1-3.13-6.22c.09-.64.43-1.37,1-1.38A1.27,1.27,0,0,1,191.58,18.18Z" transform="translate(-8.52 -12.79)"/><path class="cls-4" d="M141.34,30.15c-.84,0-2.14-1.41-3.35-1.92a12.13,12.13,0,0,1-3-2.11c-.91-.79-1.92-1.83-1.73-3.07a2.23,2.23,0,0,1,2-1.77,4.63,4.63,0,0,1,2.66.72,14.21,14.21,0,0,1,3.75,3,3,3,0,0,1,1,2.23,3.37,3.37,0,0,1-.41,1.15C141.93,29,142.17,30.15,141.34,30.15Z" transform="translate(-8.52 -12.79)"/><path class="cls-4" d="M144.91,39.48a1.22,1.22,0,0,1-.2,1.44,2.52,2.52,0,0,1-1.32.64,11.62,11.62,0,0,1-5.71-.05,3.51,3.51,0,0,1-2.46-1.68c-.45-1,.14-2.46,1.14-2.37.67.06,1.09-.79,1.72-1a2,2,0,0,1,1.07,0C141.28,37,143.6,37.61,144.91,39.48Z" transform="translate(-8.52 -12.79)"/><path class="cls-4" d="M152.62,40.86c1.07-.74,1.2-2.39.9-3.72a5,5,0,0,0-1.31-2.57,2.4,2.4,0,0,0-2.56-.57,2.62,2.62,0,0,1-3.52-1.7c-.37-1.52,1-3.25,2.45-2.89l5.07,1.3c1.14.29,2.45.74,2.88,1.92a3.88,3.88,0,0,1,.18,1.08,26.68,26.68,0,0,1-1,8.94c-.3,1.07-.78,2.25-1.77,2.61a2,2,0,0,1-2.46-1.47A2.8,2.8,0,0,1,152.62,40.86Z" transform="translate(-8.52 -12.79)"/><path class="cls-4" d="M152.29,27a1.4,1.4,0,0,1-.81,0,5.23,5.23,0,0,1-3-2.14c-.57-.82-1-1.86-1.84-2.28-.44-.21,0-.87.37-1.07a3.9,3.9,0,0,1,4.17.06,4.58,4.58,0,0,1,1.91,4A1.57,1.57,0,0,1,152.29,27Z" transform="translate(-8.52 -12.79)"/><path class="cls-4" d="M176.11,43.13a4.61,4.61,0,0,1-3.89-2.65,3.89,3.89,0,0,1,1.1-4.61,3.12,3.12,0,0,0,1.34-2.55c0-1-1.79-1.76-2.68-2.09s-1.78-.06-2.65-.25-.52-1.6.06-2.32c.45-.55,1.28-.33,1.93-.1s1.54.29,1.84-.37-.43-1.46-1.13-1.68-1.54-.27-2-.9a1.71,1.71,0,0,1,.1-1.92,2.5,2.5,0,0,1,1.66-.93c1.79-.29,3.51.72,5.08,1.69a2.34,2.34,0,0,1,1.26,1.43c.12.67-.71,1.4-1.14.9s-1,.27-.82.79a1.41,1.41,0,0,0,1.31.74,6,6,0,0,1,2.24.37c.42.33.49,1.19,0,1.36-1.48.51-2.77,2.81-1.72,4a4.65,4.65,0,0,0,1.49,1L185.25,38a1.82,1.82,0,0,1,.13,2.78,2.49,2.49,0,0,1-2.9.07,8.68,8.68,0,0,1-2.23-2.25c-.12-.15-.26-.31-.43-.32-.53,0-.39.86-.23,1.4a2.69,2.69,0,0,1-.86,2.66,3.63,3.63,0,0,1-2.62.78m-.3-5.5c-.31-.14-.56.33-.55.69a2,2,0,0,0,1.11,1.78,2.8,2.8,0,0,0-.35-2.26.6.6,0,0,0-.21-.21" transform="translate(-8.52 -12.79)"/><path class="cls-4" d="M159.73,27.78a4.85,4.85,0,0,1,.43-3.16c.58-.9,2.81-1.89,3.3-.93a2.81,2.81,0,0,1,.12,1.53,17.91,17.91,0,0,0,2.35,10.53c.35.59.81,1.2,1.46,1.26.9.08,1.59-1,2.49-1s.74,1.57.77,2.44a3,3,0,0,1-1.08,2.26,4,4,0,0,1-4.46.51,6.94,6.94,0,0,1-2.48-2.79A27.31,27.31,0,0,1,159.73,27.78Z" transform="translate(-8.52 -12.79)"/><path class="cls-4" d="M184.77,27.48a4.58,4.58,0,0,1-.11,2.21A1.84,1.84,0,0,1,183.1,31c-.92,0-1.59-.92-2-1.77-.25-.48-.49-1-.71-1.47a2,2,0,0,1-.23-1.31,1.81,1.81,0,0,1,1.09-1,2.75,2.75,0,0,1,2.18-.34A3,3,0,0,1,184.77,27.48Z" transform="translate(-8.52 -12.79)"/><path class="cls-4" d="M187.39,25.4a6.26,6.26,0,0,1-4.31-3.26,2.37,2.37,0,0,1-.31-1.75c.29-.93,1.38-1.2,2.29-1.24a1.87,1.87,0,0,1,1.14.22,2.3,2.3,0,0,1,.65.9,23.32,23.32,0,0,1,1.22,3.17,2.45,2.45,0,0,1,.15,1.25C188.13,25.1,187.77,25.47,187.39,25.4Z" transform="translate(-8.52 -12.79)"/></g></svg>