<svg id="レイヤー_1" data-name="レイヤー 1" xmlns="http://www.w3.org/2000/svg" xmlns:xlink="http://www.w3.org/1999/xlink" viewBox="0 0 202 157.08"><defs><style>.cls-1{fill:none;}.cls-2{clip-path:url(#clip-path);}.cls-3{fill:#88bede;}.cls-4{fill:#fff;}.cls-5{fill:#d4145a;}</style><clipPath id="clip-path" transform="translate(-14 -12)"><rect class="cls-1" x="14" y="12" width="202" height="157.08"/></clipPath></defs><g id="Mark_アウトライン" data-name="Mark アウトライン"><g class="cls-2"><g class="cls-2"><path class="cls-3" d="M214.35,110.13c-3.36-2.65-8.35-4.38-14.17-5.45A48.15,48.15,0,0,0,196.13,88c-2.62-11.63-17.42-76-23.54-76-6.87,0-31.61,30.86-35.2,35.38a109.44,109.44,0,0,0-38.93,0C94.9,42.91,70.12,12,63.25,12,57.07,12,42,77.69,39.64,88.37a47.73,47.73,0,0,0-3.92,16.5c-8.3.9-15.61,2.8-20.07,6.32a4.33,4.33,0,0,0,2.69,7.73A4.28,4.28,0,0,0,21,118c1.84-1.45,6-3.45,15.05-4.47A47.21,47.21,0,0,0,38.31,123c-9.25,2.44-17.36,5.85-21.57,10.61a4.34,4.34,0,0,0,6.49,5.75c3.05-3.46,10.07-6.2,18.69-8.31,12.39,22.34,41.76,38.05,76,38.05,34.09,0,63.33-15.54,75.83-37.69,6,1.84,10.66,4.07,13,6.71a4.33,4.33,0,1,0,6.49-5.74c-3.32-3.75-9.05-6.65-15.85-8.89a48.27,48.27,0,0,0,2.44-10.06c3.94.8,7.11,1.94,9.12,3.52a4.26,4.26,0,0,0,2.67.93,4.33,4.33,0,0,0,2.69-7.73" transform="translate(-14 -12)"/><path class="cls-4" d="M146,126.45a4.35,4.35,0,0,0-6,1.38c-1.23,2-5.43,7.15-10,7.55a9.62,9.62,0,0,1-6.17-2.57,7.15,7.15,0,0,1-2.43-5.48A4.33,4.33,0,0,0,117.1,123h-.29a4.33,4.33,0,0,0-4.33,4.33,7.18,7.18,0,0,1-2.43,5.48,9.62,9.62,0,0,1-6.17,2.57c-4.57-.4-8.77-5.58-10-7.55a4.34,4.34,0,0,0-7.37,4.57c.68,1.1,6.92,10.78,16.62,11.61.33,0,.66,0,1,0a18.52,18.52,0,0,0,11.79-4.85c.37-.35.71-.7,1-1.07.33.37.68.72,1.05,1.07a18.52,18.52,0,0,0,11.78,4.85c.34,0,.67,0,1,0,9.71-.83,15.95-10.51,16.63-11.61a4.34,4.34,0,0,0-1.4-6" transform="translate(-14 -12)"/><path class="cls-5" d="M116.81,126.64c-2.68,0-21.37-13.91-16.7-24.18s16.7,0,16.7,0,12-10.26,16.71,0-14,24.18-16.71,24.18" transform="translate(-14 -12)"/></g></g></g></svg>