<?xml version="1.0" encoding="utf-8"?>
<!-- Generator: Adobe Illustrator 25.2.1, SVG Export Plug-In . SVG Version: 6.00 Build 0)  -->
<svg version="1.1" id="レイヤー_1" xmlns="http://www.w3.org/2000/svg" xmlns:xlink="http://www.w3.org/1999/xlink" x="0px"
	 y="0px" width="287.2px" height="346.1px" viewBox="0 0 287.2 346.1" style="enable-background:new 0 0 287.2 346.1;"
	 xml:space="preserve">
<style type="text/css">
	.st0{fill:#FFFFE0;}
</style>
<g id="brush-yellow_1_">
	<g id="brush-yellow">
		<path class="st0" d="M49.8,329c12.5-16.2-32.2,20-43.7,16.9c-7.1-0.8,33.7-21.1,38.2-27c11.1-16.6,24.1-31.8,38.7-45.5
			c6.3-10.5-10.3-15.4-8.5-2.3C61.2,286,15.9,346,39.5,302c-53.4,55.8-26.8,14.5-4.8-21.3c-9.1-8.6-13.1,22.3-19,17.3
			c-7-0.7-12.5,17.5-15.7,24c0.2-32,40.9-52.8,40.3-85.3c0.4-5.8,4.7,6.1,8.7,0.1c0.2,1.6-1.4,6.3,1.9,2.7
			c17.5-13.4,32.5,29.1,49,17.8c-5.6,10,6.5,0.4,4.4-2.1c-1.6-1.9-0.9-2.6,1.3-2.2c4.6-0.1-3.3-3.7,1.2-5.4
			c9.8-0.2,4.8-14.5,13.9-16.6c-7.1,8.5,1.9,11.7,5.5,2.8c-2.9-64.1-39-15.7-69.7-0.1c-23.2-0.1,41.2-36.7,49.7-42.4
			c9-12.9,16.6-28.4,33.2-32.1c11.5-10.6-7.4-2.6,0.3-9.7c18.3-14.9,35.5-31.3,50.5-50.3c13.2-13.1,32-29.1,35.7-45.3
			c-0.1-9.9,10.9-11.4,17.1-14.9c-5.4-6.7-1.8-4.8,3.3-9.7c1.6-6.6,25.1-8.6,17.8-18.4c20.3-4.5,8.5-13.3,16.5-10.3
			c18.2-4.4-7.3,42.2-4.9,50.5c-3,10.6-15,12.9-17,21.8c0.6,5.9-7.9-1.3-7.1,5.3c-1.8,4.2-10.5,1.7-10.2,9.3
			c-1.4,4-7.7,6.4-5.1,11.5c-3.9,4.2-25.3,24.5-22.7,30.2c0.8,1.8-0.6,2.6-2.1,2.3C138.9,185.1,122.7,272.3,49.8,329z M130.7,186.1
			c10.5,9.4,9.9-4.6,18.3-8.5c42.4-33.1,72.9-74.4,99.5-119.4C261.5,23.2,111.5,186.2,130.7,186.1z M274.7,27.2
			c6.4-16.3-21.5,12.4-23.7,15.2c2.3,2.7,2.2,13.8,7.6,6.9C264.2,42.2,273.2,37.1,274.7,27.2z M82.2,291.4c4.1-9.3-10.2,3.7-9.3,7.6
			C74,306.7,79.4,291.9,82.2,291.4z M71.2,254.8c-1.3-1.4-3.5-1.6-5-0.3c-0.8,0.7-1.2,1.7-1.2,2.8C67.5,262.3,80.2,260,71.2,254.8z
			 M135.8,199.2c-7.5-1.5-6.6,2.4-4.2,7.7C132.7,205.1,137.3,201,135.8,199.2L135.8,199.2z M37,265.5c1.9,2.2,4.3-2,2.8-3
			C37.2,261.3,33.1,263.3,37,265.5z M60.8,252.8c2.8-4.9-4.6-0.5-4.9,2.1C57.1,256.8,59.7,253.6,60.8,252.8L60.8,252.8z M282.5,16.1
			c2-2.4-1.3-4.2-2.6-1.3C277.6,17.5,281,19.2,282.5,16.1z M42.6,268.1c-1.5-0.4-5,1.3-3.3,3.1C41.2,272.6,44.5,270.2,42.6,268.1z
			 M269.2,52.1c-0.1,0.9-2.2,2.7-0.7,3.5C270.8,55.6,273.3,46.2,269.2,52.1z M58.8,305.1c-1.9,0.4-4.5,3.1-2.2,3.7
			C57.9,308.2,58.3,306.9,58.8,305.1z"/>
	</g>
</g>
</svg>
