<svg xmlns="http://www.w3.org/2000/svg" viewBox="0 0 72.42 443.98"><defs><style>.cls-1{fill:#ffffe0;}</style></defs><g id="brush-yellow" data-name="brush-y"><g id="brush-yellow"><path class="cls-1" d="M67.31,402.69c-.86-20.43-11.79,36-22.64,41-5.94,3.95,12.23-37.83,11.92-45.23A264,264,0,0,1,57,338.73c-1.95-12.12-17.79-5.13-8,3.72-.58,19.92,3.21,95-6.92,46.09-5,77.08-11.16,28.34-17.39-13.24-12.54-.72,4.32,25.55-3.44,25.43-5.86,3.95,1.66,21.42,3.37,28.5C4.18,404.55,22,362.45.66,338c-3.4-4.67,7.53,1.7,6.74-5.5,1.21,1.12,3,5.68,3.14.84,4.78-21.49,43.61,1.4,49-17.85,2.11,11.25,5.19-3.89,2.05-4.45-2.44-.37-2.33-1.4-.41-2.56,3.47-3.06-4.87-.73-2.55-4.93,7.37-6.48-5.68-14.2,0-21.65,0,11.1,9,7.76,6-1.33-43.45-47.26-39.94,13-53.43,44.7-17.84,14.79,8-54.59,10.77-64.42-1.38-15.64-5.51-32.42,4.83-45.93,2-15.55-7.35,2.72-6-7.6,4.43-23.22,7.07-46.73,6.32-71,1.69-18.47,5.81-42.85-1.8-57.66-6.49-7.52,1-15.75,3.53-22.44-8.44-1.63-4.5-2.51-3.7-9.5C22.14,40.6,38.87,24,27,21.21,39.67,4.72,25,5.55,33,2.73c11.16-15.08,21.51,37,28.7,41.88,4.5,10-3.21,19.57,1,27.67,4.25,4.08-6.88,4.11-2.07,8.61,1.37,4.39-6.92,8.07-1.86,13.7,1.48,3.92-1.72,9.86,3.5,12.08-.27,5.74-3.65,35,2,37.68,1.76.91,1.24,2.37-.08,3.12C43.12,235.12,86.7,312.28,67.31,402.69ZM37.42,241.22c14.11.45,4.58-9.87,8.51-18.28,11.22-52.66,8-103.89-.5-155.4C32.91,32.29,22.81,253.62,37.42,241.22ZM45.57,26.88c-5.56-16.57-8.5,23.3-8.43,26.89,3.52.6,10.5,9.14,10.27.45C47.19,45.06,50.85,35.43,45.57,26.88ZM68,353c-2.83-9.73-5.45,9.36-2.2,11.8C71.56,370,66.08,355.17,68,353ZM36,332a3.52,3.52,0,0,0-3.07,5.89C38,340.13,46.26,330.22,36,332Zm13.79-84.08c-6.73,3.63-3.53,6.06,1.74,8.62C51.18,254.38,52.11,248.33,49.78,247.88ZM16.69,362.19c2.82.47,2-4.35.21-4.11C14.12,358.89,12.27,363,16.69,362.19Zm10.06-25c-1-5.51-3.85,2.63-2.4,4.71C26.49,342.61,26.44,338.46,26.75,337.18ZM44.39,13.37c-.06-3.14-3.75-2.4-2.82.7C41.61,17.54,45.31,16.66,44.39,13.37ZM22.68,360.63c-1.4.68-2.95,4.19-.48,4.49C24.47,365,25.52,361,22.68,360.63ZM57.44,49.49c.54.73,0,3.5,1.67,3.13C60.85,51.11,56.78,42.33,57.44,49.49Zm1.41,329.09c-1.17,1.51-1.4,5.26.71,4.23C60.1,381.5,59.62,380.27,58.85,378.58Z"/></g></g></svg>