<svg xmlns="http://www.w3.org/2000/svg" viewBox="0 0 132.92 77.76"><defs><style>.cls-1{fill:#ff972c;}.cls-2{font-size:24px;fill:#fff;font-family:DonguriKn-R-83pv-RKSJ-H, Donguri Kana;}</style></defs><g id="レイヤー_2" data-name="レイヤー 2"><g id="モバMAIN"><path class="cls-1" d="M102.91,0H30A21.36,21.36,0,0,0,18.62,3.29L10,8.71a21.4,21.4,0,0,0,0,36.22l8.62,5.42A21.36,21.36,0,0,0,30,53.64h72.9a21.39,21.39,0,0,0,11.4-3.29l8.61-5.42a21.39,21.39,0,0,0,0-36.22l-8.61-5.42A21.39,21.39,0,0,0,102.91,0Z"/><polygon class="cls-1" points="106.85 77.76 70.43 16.25 53.86 29.79 106.85 77.76"/><text class="cls-2" transform="translate(16.9 37.57)">ポイント</text></g></g></svg>