<svg xmlns="http://www.w3.org/2000/svg" xmlns:xlink="http://www.w3.org/1999/xlink" viewBox="0 0 449.1 98.72"><defs><style>.cls-1{fill:none;}.cls-2{clip-path:url(#clip-path);}.cls-3{fill:#ffffe0;}</style><clipPath id="clip-path" transform="translate(22.87 -8.48)"><rect class="cls-1" width="375" height="102"/></clipPath></defs><g id="レイヤー_2" data-name="レイヤー 2"><g id="モバMAIN"><g class="cls-2"><path class="cls-3" d="M140.77,102.77c4.56,10.21-17.77-.37-24.46-.7-46.95-10.43-89.67-39.83-132-60.52C-31.91,27.84-17.54,10.6-3.6,8.48,8.82,17.2,26.56,21.37,39.84,30.89c11.86,5.37,42.77,27,50.08,23.5,4.23-.41,6.22,4.19,10.1,4.5C114.69,70.94,143,103.73,140.77,102.77ZM57,65.39C39.75,52.17,20.89,46.1,3.35,33.07c24.18,4.29,46,26.38,66.33,29.75-1.9-4.12-4.16-2.63-6.91-1.92-3.33-1.78,1.32-4-2.59-5.46C46.6,50.62,36.24,39.14,22,34,27.31,44.14-9.2,21.65-13.2,18.07-22.9,31.24,10,47.23,24.72,52.85c5.53,7.17,16,11.43,22.65,9.08C42.2,65.18,60.87,74.16,64.1,72.71,71,80.17,89.72,89.6,81.74,75,80.2,77.45,58.51,62.06,57,65.39Zm-34.5-34.7C42.3,39.44,78.07,66.82,91.9,65.07c2.55-2.16-15.29-10.58-16.55-7.36-12.75-13.51-40.51-23.62-57.5-34C-19,9.45-1.64,28,22.49,30.69Zm73.87,56c-12.15-.11,7.14,9.46,11.64,8.51.36-3.16,21.14-11.08,8.47-16.29.55-3.8-6.67-4.28-8.13-7.93a1.12,1.12,0,0,0-2.06-.18C97.73,78.23,95.24,71.66,96.36,86.73ZM72.05,63.88C68.83,67.24,83,71,86.34,71.61,84.19,66.22,77.53,65.18,72.05,63.88ZM86,78.54c-1.77,1.3,2.38,3.32,4.12,4.07C89.47,80.63,89.23,77.14,86,78.54ZM-.18,13.18c-2.8-.37-3.63.07-3.23,1.71C-.48,15.65.15,15.31-.18,13.18Z" transform="translate(22.87 -8.48)"/><path class="cls-3" d="M215.32,106.11c10.73-2-19.53-2.33-22.65-6.75-2.35-2.32,20.49,2.39,24.38,1.65a168.67,168.67,0,0,1,31.52-4.63c6.3-1.84,1.9-8.31-2.33-3.24-10.52,1.34-49.93,9.07-24.6.64-40.85,4-15.44-2.68,6.19-8.79-.18-5.62-13.27,4-13.55.52-2.35-2.28-11.22,2.46-14.87,3.79,12.09-11.06,35.08-6.56,47-18,2.3-1.89-.56,3.48,3.2,2.55-.54.62-2.86,1.78-.3,1.46,11.54.39,1.22,19.46,11.61,20.31-5.84,1.84,2.28,2,2.44.55.08-1.11.63-1.15,1.33-.39,1.77,1.29.16-2.22,2.48-1.53,3.75,2.75,7.23-3.66,11.41-1.74-5.85.88-3.68,4.62,1,2.55,22.95-23.08-8.64-16.68-26-20.11-8.6-6.73,29.14-.84,34.44-.41,8.18-1.87,16.84-5,24.43-1.55,8.28-.35-1.77-3,3.73-3.29a202.94,202.94,0,0,0,37.68-2.9c9.81-.74,22.85-.87,30.31-5.44,3.67-3.49,8.35-.83,12-.24.47-3.88,1.12-2.2,4.84-2.41,3.13-1.81,12.65,4.28,13.57-1.21,9.26,4.3,8.16-2.14,10,1.19,8.45,3.74-18.51,12.52-20.79,16.1-5.07,2.81-10.45.16-14.54,2.69-1.95,2.21-2.47-2.73-4.63-.23-2.25,1-4.56-2.43-7.3.27-2,1-5.28,0-6.21,2.53-3,.34-18.61,1.19-19.77,3.91a.93.93,0,0,1-1.65.22C302.55,81.89,263.84,107.44,215.32,106.11Zm83.76-26.25c.4,6.29,5.41,1.23,10,2.3,28.26.74,55.12-4.79,81.89-12.73C409,61,291.89,74.37,299.08,79.86ZM412.42,66.23c8.49-3.81-12.66-1.9-14.55-1.58-.16,1.61-4.34,5.39.23,4.59C402.92,68.41,408.15,69.26,412.42,66.23ZM241.52,102.4c5-2-5.18-1.66-6.32,0C232.74,105.37,240.31,101.74,241.52,102.4Zm9.67-15.88c.1-1.49-2.09-2.1-3.24-.89C247,88.07,252.57,90.94,251.19,86.52Zm44.94-.64c-2.22-2.7-3.36-1.08-4.47,1.46C292.76,87,296,86.94,296.13,85.88Zm-61.74-5.49c-.12,1.29,2.38.53,2.17-.24C236,79,233.76,78.49,234.39,80.39ZM248,82.84c2.86-.9-1.56-1.5-2.59-.69C245.15,83.16,247.33,82.8,248,82.84ZM419.49,64.62c1.65-.29,1.1-1.86-.49-1.2C417.17,63.72,417.8,65.29,419.49,64.62Zm-184,18.3c-.42-.57-2.34-1-2.39.15C233.24,84.07,235.44,84.2,235.48,82.92ZM401,73.31c-.36.3-1.85.27-1.57,1C400.34,75,404.79,72.44,401,73.31Zm-173.4,27.11c-.84-.4-2.83-.2-2.19.65A3.21,3.21,0,0,0,227.64,100.42Z" transform="translate(22.87 -8.48)"/></g></g></g></svg>